<?xml version="1.0" encoding="UTF-8"?>
<svg width="30px" height="30px" viewBox="0 0 30 30" version="1.1" xmlns="http://www.w3.org/2000/svg" xmlns:xlink="http://www.w3.org/1999/xlink">
    <title>编组 34</title>
    <g id="编组-34" stroke="none" stroke-width="1" fill="none" fill-rule="evenodd">
        <g>
            <rect id="矩形" x="0" y="0" width="30" height="30"></rect>
            <g id="icon_good">
                <g id="icon_follow" opacity="0">
                    <g id="Group-5">
                        <g id="首页tab-栅格" stroke-width="0.5">
                            <g id="图标栅格－240px">
                                <g id="线" opacity="0.40123" stroke="#4A4A4A">
                                    <line x1="15" y1="0" x2="15" y2="30" id="Line"></line>
                                    <line x1="10" y1="0" x2="10" y2="30" id="Line"></line>
                                    <line x1="2.04545455" y1="0" x2="2.04545455" y2="30" id="Line"></line>
                                    <line x1="20" y1="0" x2="20" y2="30" id="Line"></line>
                                    <line x1="27.9545455" y1="0" x2="27.9545455" y2="30" id="Line"></line>
                                    <line x1="29.875" y1="20" x2="-7.10542736e-15" y2="20" id="Line" transform="translate(14.937500, 20.000000) scale(-1, -1) translate(-14.937500, -20.000000) "></line>
                                    <line x1="29.875" y1="27.9545455" x2="-4.36014861e-14" y2="27.9545455" id="Line" transform="translate(14.937500, 27.954545) scale(-1, -1) translate(-14.937500, -27.954545) "></line>
                                    <line x1="29.875" y1="15" x2="-7.10542736e-15" y2="15" id="Line" transform="translate(14.937500, 15.000000) scale(-1, -1) translate(-14.937500, -15.000000) "></line>
                                    <line x1="29.875" y1="10" x2="-7.10542736e-15" y2="10" id="Line" transform="translate(14.937500, 10.000000) scale(-1, -1) translate(-14.937500, -10.000000) "></line>
                                    <line x1="29.875" y1="2.04545455" x2="-1.93784382e-14" y2="2.04545455" id="Line" transform="translate(14.937500, 2.045455) scale(-1, -1) translate(-14.937500, -2.045455) "></line>
                                    <line x1="0" y1="0" x2="30" y2="30" id="Line"></line>
                                    <line x1="0" y1="0" x2="30" y2="30" id="Line" transform="translate(15.000000, 15.000000) scale(-1, 1) translate(-15.000000, -15.000000) "></line>
                                </g>
                                <g id="栅格" opacity="0.976213728" transform="translate(1.818182, 1.818182)" stroke="#9B9B9B">
                                    <circle id="正圆" cx="13.1818182" cy="13.1818182" r="12.7045455"></circle>
                                    <rect id="正方形" x="1.84090909" y="1.84090909" width="22.6818182" height="22.6818182" rx="0.909090909"></rect>
                                    <rect id="竖矩形" x="3.20454545" y="0.477272727" width="19.9545455" height="25.4090909" rx="0.909090909"></rect>
                                    <path d="M22.503792,0.477272727 C22.6846047,0.477272727 22.8482563,0.550913296 22.9667724,0.669642438 C23.0855683,0.788651889 23.1590909,0.952985769 23.1590909,1.13419916 L23.1590909,1.13419916 L23.1590909,25.2294372 C23.1590909,25.4105664 23.0851851,25.5744874 22.966581,25.6933047 C22.8477224,25.8123769 22.6838375,25.8863636 22.503792,25.8863636 L22.503792,25.8863636 L3.85984434,25.8863636 C3.67903166,25.8863636 3.51538001,25.8127231 3.39686394,25.6939939 C3.27806806,25.5749845 3.20454545,25.4106506 3.20454545,25.2294372 L3.20454545,25.2294372 L3.20454545,1.13419916 C3.20454545,0.953069972 3.27845129,0.789149009 3.39705541,0.670331668 C3.51591397,0.551259419 3.67979883,0.477272727 3.85984434,0.477272727 L3.85984434,0.477272727 Z" id="横矩形" transform="translate(13.181818, 13.181818) scale(-1, -1) rotate(90.000000) translate(-13.181818, -13.181818) "></path>
                                    <circle id="中心圆" cx="13.1818182" cy="13.1818182" r="5.88636364"></circle>
                                </g>
                            </g>
                        </g>
                        <rect id="Rectangle" fill="#FD4C5C" opacity="0.1" x="2.04545455" y="2.04545455" width="25.9090909" height="25.9090909"></rect>
                    </g>
                    <rect id="矩形" fill="#D8D8D8" x="0" y="0" width="30" height="30"></rect>
                </g>
                <g id="icon_video_good_p" transform="translate(4.000000, 3.000000)" fill="#999999">
                    <path d="M2.5,7 L4.5,7 C4.77614237,7 5,7.22385763 5,7.5 L5,21.5 C5,21.7761424 4.77614237,22 4.5,22 L2.5,22 C1.11928813,22 1.94544528e-15,20.8807119 0,19.5 L0,9.5 C-1.69088438e-16,8.11928813 1.11928813,7 2.5,7 Z" id="Rectangle-15" fill-rule="nonzero"></path>
                    <path d="M14.5,7 C15.7289103,2.57631755 15.0622436,0.247373249 12.5,0.0131671054 C9.51895518,-0.213002324 11.6068636,2.48898402 8,7 L14.5,7 Z" id="Path-4" fill-rule="nonzero"></path>
                    <path d="M7.5,7 L18.6238774,7 C20.8330164,7 22.6238774,8.790861 22.6238774,11 C22.6238774,11.3892983 22.5670466,11.7765114 22.4551825,12.1493915 L20.1413869,19.8620437 C19.7607013,21.1309955 18.5927327,22 17.267908,22 L7.5,22 C7.22385763,22 7,21.7761424 7,21.5 L7,7.5 C7,7.22385763 7.22385763,7 7.5,7 Z" id="矩形"></path>
                </g>
            </g>
        </g>
        <polygon id="路径-14" fill="#999999" points="12.5 9.5 11.5 10.5 18.5 10.5 18.5 9.5"></polygon>
    </g>
</svg>