<?xml version="1.0" encoding="UTF-8"?>
<svg width="20px" height="20px" viewBox="0 0 20 20" version="1.1" xmlns="http://www.w3.org/2000/svg" xmlns:xlink="http://www.w3.org/1999/xlink">
    <!-- Generator: Sketch 59 (86127) - https://sketch.com -->
    <title>实验室</title>
    <desc>Created with Sketch.</desc>
    <g id="实验室" stroke="none" stroke-width="1" fill="none" fill-rule="evenodd">
        <g>
            <rect id="矩形" x="0" y="0" width="20" height="20"></rect>
            <path d="M13,0 C14.6568542,0 16,1.34314575 16,3 C16,4.30654141 15.16478,5.41800674 13.9991367,5.82959929 L13.9991367,7.26322066 L18.4716321,13.7231601 C19.7290961,15.5394969 19.2760401,18.0313048 17.4597033,19.2887688 C16.790753,19.7518882 15.9964812,20 15.1828633,20 L4.81713666,20 C2.60799766,20 0.817136662,18.209139 0.817136662,16 C0.817136662,15.1863822 1.0652485,14.3921103 1.5282811,13.7232855 L5.99913666,7.26433073 L5.99913666,5.828989 L5.82696606,5.761998 C4.75304175,5.30532044 4,4.24060138 4,3 C4,1.34314575 5.34314575,0 7,0 L13,0 Z M13,2 L7,2 C6.44771525,2 6,2.44771525 6,3 C6,3.55228475 6.44771525,4 7,4 L7.99913666,4 L7.99913666,7.889 L3.17275228,14.86158 C2.94119258,15.1960552 2.81713666,15.5931911 2.81713666,16 C2.81713666,17.1045695 3.71256716,18 4.81713666,18 L15.1828633,18 C15.5896723,18 15.9868082,17.8759441 16.3212833,17.6443844 C17.2294517,17.0156524 17.4559797,15.7697485 16.8272477,14.86158 L11.9991367,7.888 L11.9991367,4 L13,4 C13.5522847,4 14,3.55228475 14,3 C14,2.44771525 13.5522847,2 13,2 Z M12,10 L15.5310469,15.7379513 C15.6757725,15.9731302 15.6024455,16.2811037 15.3672665,16.4258292 C15.2884627,16.4743238 15.1977477,16.5 15.1052178,16.5 L4.89478221,16.5 C4.61863984,16.5 4.39478221,16.2761424 4.39478221,16 C4.39478221,15.9074701 4.42045838,15.8167551 4.46895305,15.7379513 L8,10 L12,10 Z M8.5,13 C7.67157288,13 7,13.6715729 7,14.5 C7,15.3284271 7.67157288,16 8.5,16 C9.32842712,16 10,15.3284271 10,14.5 C10,13.6715729 9.32842712,13 8.5,13 Z M11.5,11 C11.2238576,11 11,11.2238576 11,11.5 C11,11.7761424 11.2238576,12 11.5,12 C11.7761424,12 12,11.7761424 12,11.5 C12,11.2238576 11.7761424,11 11.5,11 Z M10,7 C10.5522847,7 11,7.44771525 11,8 C11,8.55228475 10.5522847,9 10,9 C9.44771525,9 9,8.55228475 9,8 C9,7.44771525 9.44771525,7 10,7 Z" id="形状结合" fill="#333333" fill-rule="nonzero"></path>
            <rect id="矩形" x="0" y="0" width="20" height="20"></rect>
        </g>
    </g>
</svg>