<?xml version="1.0" encoding="UTF-8"?>
<svg width="22px" height="21px" viewBox="0 0 22 21" version="1.1" xmlns="http://www.w3.org/2000/svg" xmlns:xlink="http://www.w3.org/1999/xlink">
    <!-- Generator: Sketch 64 (93537) - https://sketch.com -->
    <title>22猴子</title>
    <desc>Created with Sketch.</desc>
    <defs>
        <linearGradient x1="50%" y1="34.5952261%" x2="50%" y2="87.0995905%" id="linearGradient-1">
            <stop stop-color="#000000" stop-opacity="0" offset="0%"></stop>
            <stop stop-color="#000000" offset="100%"></stop>
        </linearGradient>
        <path d="M19.1706706,10.3260882 C18.2835529,6.63202941 14.9667294,3.88267647 11.0002588,3.88267647 C7.03314118,3.88267647 3.71631765,6.63202941 2.8292,10.3260882 C1.41602353,10.6360294 0.371670588,11.8673824 0.293376471,13.5426176 C0.189847059,15.7536176 1.80490588,17.8973235 3.90137647,18.3308529 C4.34655294,18.4233824 4.77684706,18.4259706 5.18061176,18.3593235 C6.69214118,19.8100294 8.73943529,20.7062059 11.0002588,20.7062059 C13.2604353,20.7062059 15.3077294,19.8100294 16.8192588,18.3593235 C17.2230235,18.4259706 17.6533176,18.4233824 18.0984941,18.3308529 C20.1949647,17.8973235 21.8106706,15.7536176 21.7064941,13.5426176 C21.6282,11.8673824 20.5838471,10.6360294 19.1706706,10.3260882" id="path-2"></path>
    </defs>
    <g id="页面-1" stroke="none" stroke-width="1" fill="none" fill-rule="evenodd">
        <g id="iPhone-8" transform="translate(-286.000000, -220.000000)">
            <g id="icon/monkey/web/big" transform="translate(286.000000, 220.000000)">
                <polygon id="Fill-1" points="0 22 22 22 22 0 0 0"></polygon>
                <g id="Fill-2" fill-rule="evenodd">
                    <use fill="#FEB624" xlink:href="#path-2"></use>
                    <use fill="url(#linearGradient-1)" style="mix-blend-mode: soft-light;" xlink:href="#path-2"></use>
                </g>
                <path d="M6.79411765,14.4292824 C6.97270588,15.5014588 6.24864706,16.3704588 5.17647059,16.3704588 C4.10429412,16.3704588 3.09035294,15.5014588 2.91176471,14.4292824 C2.73317647,13.3571059 3.45723529,12.4881059 4.52941176,12.4881059 C5.60158824,12.4881059 6.61552941,13.3571059 6.79411765,14.4292824" id="Fill-4" fill="#EAA70C" fill-rule="evenodd" opacity="0.6" style="mix-blend-mode: multiply;"></path>
                <path d="M15.2058824,14.4292824 C15.0272941,15.5014588 15.7513529,16.3704588 16.8235294,16.3704588 C17.8957059,16.3704588 18.9096471,15.5014588 19.0882353,14.4292824 C19.2668235,13.3571059 18.5427647,12.4881059 17.4705882,12.4881059 C16.3984118,12.4881059 15.3844706,13.3571059 15.2058824,14.4292824" id="Fill-6" fill="#EAA70C" fill-rule="evenodd" opacity="0.6" style="mix-blend-mode: multiply;"></path>
                <path d="M13.2682,2.82648235 L13.2772588,2.83748235 C13.4202588,3.01089412 13.4875529,3.23412941 13.4649059,3.45801176 C13.4422588,3.68254118 13.3303176,3.88765882 13.1549647,4.02871765 C13.0087294,4.14971765 12.8909647,4.27136471 12.7699647,4.42342353 C12.5221412,4.71265882 11.8712,5.31118824 10.7504941,5.18695294 C9.78249412,5.07565882 8.8572,4.48554118 8.39261176,3.68383529 C8.2522,3.48195294 7.99661176,3.30207059 7.64396471,3.18754118 C7.49061176,3.13771765 7.35408235,3.04454118 7.25249412,2.91965882 L7.12502353,2.76371765 L6.43267059,3.05424706 L6.41908235,3.26712941 C6.41067059,3.39524706 6.37314118,3.52012941 6.30908235,3.63142353 C6.07614118,4.03971765 6.03731765,4.52630588 6.19067059,5.12030588 C6.45337647,6.14071765 7.19167059,6.82207059 7.76431765,7.21418824 C8.60937647,7.79330588 9.72555294,8.17830588 10.7504941,8.24430588 C11.8712,8.31742353 12.9789647,8.07736471 13.7858471,7.5856 C14.3455529,7.24524706 15.0307882,6.62212941 15.1136118,5.58942353 L15.1213765,5.41471765 C15.1246118,5.25942353 15.1045529,5.08924706 15.0624941,4.93330588 L15.0217294,4.80648235 C14.9266118,4.50171765 15.0120235,4.16912941 15.2423765,3.94718824 C15.3983176,3.79836471 15.6014941,3.71683529 15.8104941,3.71295294 L16.1767294,2.55665882 L13.9152588,1.50777647 L13.2682,2.82648235 Z" id="Fill-8" fill="#FFF700" fill-rule="evenodd"></path>
                <path d="M17.8392824,17.0630059 C17.6839882,17.0953588 17.5286941,17.1083 17.3798706,17.1083 C17.2634,17.1083 17.1469294,17.1018294 17.0304588,17.0824176 C16.9592824,17.0694765 16.8881059,17.0630059 16.8169294,17.0630059 C16.4869294,17.0630059 16.1634,17.1924176 15.9239882,17.4253588 C14.5910471,18.7065353 12.8375176,19.4118294 10.9998706,19.4118294 C9.16222353,19.4118294 7.40869412,18.7065353 6.07575294,17.4253588 C5.83634118,17.1924176 5.51281176,17.0630059 5.18281176,17.0630059 C5.11163529,17.0630059 5.04045882,17.0694765 4.96928235,17.0824176 C4.85281176,17.1018294 4.73634118,17.1083 4.61987059,17.1083 C4.47104706,17.1083 4.31575294,17.0953588 4.16045882,17.0630059 C2.69163529,16.7588882 1.51398824,15.1735941 1.58516471,13.6012412 C1.63692941,12.5594765 2.21928235,11.7830059 3.10575294,11.5888882 C3.59104706,11.4853588 3.97281176,11.1100647 4.08928235,10.6312412 C4.39987059,9.33712353 5.04692941,8.1983 5.9334,7.30535882 C6.22457647,6.99477059 6.56104706,6.71006471 6.91692941,6.45771176 C6.64516471,6.15359412 6.40575294,5.78477059 6.2634,5.34477059 C6.23751765,5.27359412 6.21163529,5.19594706 6.19222353,5.1183 C6.03692941,4.52947647 6.07575294,4.03771176 6.30869412,3.63006471 C6.3734,3.52006471 6.41222353,3.39712353 6.41869412,3.26771176 L6.43163529,3.05418235 L7.12398824,2.76300588 L7.2534,2.9183 C7.35692941,3.04771176 7.49281176,3.1383 7.64163529,3.19006471 C7.99751765,3.30006471 8.24987059,3.48124118 8.39222353,3.68182941 C8.49575294,3.86300588 8.62516471,4.03124118 8.77398824,4.18653529 C9.26575294,4.71712353 9.97751765,5.08594706 10.7086941,5.18300588 C10.7216353,5.18300588 10.7345765,5.18947647 10.7475176,5.18947647 C10.8510471,5.19594706 10.9545765,5.20241765 11.0451647,5.20241765 C11.1357529,5.20241765 11.2198706,5.19594706 11.2975176,5.18300588 C11.3039882,5.18947647 11.3104588,5.18300588 11.3104588,5.18300588 C12.0934,5.10535882 12.5657529,4.65888824 12.7728118,4.42594706 C12.8569294,4.31594706 12.9410471,4.21888824 13.0381059,4.13477059 C13.0769294,4.09594706 13.1157529,4.06359412 13.1545765,4.03124118 C13.3292824,3.88888824 13.4392824,3.68182941 13.4651647,3.45535882 C13.4845765,3.23535882 13.4198706,3.00888824 13.2775176,2.83418235 L13.2710471,2.82771176 L13.9181059,1.50771176 L16.1763412,2.55594706 L15.8075176,3.71418235 C15.6004588,3.71418235 15.3998706,3.7983 15.2445765,3.94712353 C15.0116353,4.16712353 14.9275176,4.50359412 15.0245765,4.80771176 L15.0634,4.93065294 C15.1022235,5.08594706 15.1216353,5.26065294 15.1216353,5.41594706 L15.1151647,5.59065294 C15.0957529,5.87535882 15.0245765,6.12771176 14.9275176,6.34771176 C15.2963412,6.59359412 15.6392824,6.87182941 15.9498706,7.18241765 C16.8945765,8.09477059 17.5804588,9.27241765 17.9104588,10.6312412 C18.0269294,11.1100647 18.4086941,11.4853588 18.8939882,11.5888882 C19.7804588,11.7830059 20.3628118,12.5594765 20.4145765,13.6012412 C20.4857529,15.1735941 19.3081059,16.7588882 17.8392824,17.0630059 M19.1722235,10.3271235 C18.7386941,8.54124118 17.7486941,6.98182941 16.3834,5.84300588 C16.3963412,5.79771176 16.3963412,5.74594706 16.4028118,5.69418235 C16.4028118,5.67477059 16.4028118,5.66182941 16.4092824,5.64888824 L16.4157529,5.47418235 L16.4157529,5.43535882 C16.4157529,5.25418235 16.4028118,5.06006471 16.3704588,4.87888824 C16.6875176,4.72359412 16.9334,4.45182941 17.0434,4.10241765 L17.4122235,2.95065294 C17.6063412,2.32947647 17.3086941,1.65653529 16.7198706,1.38477059 L14.4616353,0.336535294 C14.2804588,0.252417647 14.0992824,0.213594118 13.9181059,0.213594118 C13.4392824,0.213594118 12.9798706,0.478888235 12.7534,0.9383 L12.1063412,2.2583 C11.9445765,2.58182941 11.9316353,2.95065294 12.0545765,3.28065294 C11.9575176,3.37771176 11.8669294,3.48124118 11.7763412,3.59124118 C11.6728118,3.70771176 11.5110471,3.83712353 11.2651647,3.88888824 C11.2004588,3.90182941 11.1228118,3.9083 11.0451647,3.9083 C10.9998706,3.9083 10.9481059,3.9083 10.8963412,3.90182941 C10.8704588,3.89535882 10.8381059,3.89535882 10.8122235,3.88888824 C10.2816353,3.7983 9.75751765,3.45535882 9.51163529,3.03477059 C9.49222353,3.00241765 9.47281176,2.97653529 9.4534,2.94418235 C9.16869412,2.53006471 8.72222353,2.20653529 8.17222353,1.99947647 L8.12692941,1.94771176 C7.87457647,1.63712353 7.50575294,1.46888824 7.12398824,1.46888824 C6.95575294,1.46888824 6.78751765,1.50124118 6.62575294,1.57241765 L5.9334,1.85712353 C5.48045882,2.05124118 5.16987059,2.4783 5.13751765,2.97006471 L5.13104706,3.08653529 C4.77516471,3.76594706 4.71045882,4.56182941 4.93692941,5.44182941 C5.00810588,5.71359412 5.09869412,5.96594706 5.20869412,6.20535882 C4.05045882,7.30535882 3.21575294,8.72241765 2.82751765,10.3271235 C1.41692941,10.6377118 0.368694118,11.8671235 0.291047059,13.5430059 C0.187517647,15.7559471 1.80516471,17.8977118 3.90163529,18.3312412 C4.14751765,18.3830059 4.38692941,18.4024176 4.61987059,18.4024176 C4.81398824,18.4024176 5.00163529,18.3894765 5.18281176,18.3571235 C6.69045882,19.8065353 8.74163529,20.7059471 10.9998706,20.7059471 C13.2581059,20.7059471 15.3092824,19.8065353 16.8169294,18.3571235 C16.9981059,18.3894765 17.1857529,18.4024176 17.3798706,18.4024176 C17.6128118,18.4024176 17.8522235,18.3830059 18.0981059,18.3312412 C20.1945765,17.8977118 21.8122235,15.7559471 21.7086941,13.5430059 C21.6310471,11.8671235 20.5828118,10.6377118 19.1722235,10.3271235" id="Fill-10" fill="#C16400" fill-rule="evenodd"></path>
                <path d="M11,19.4117647 C7.07558824,19.4117647 3.88429412,16.8125294 4.52941176,12.9411765 C5.17647059,9.05882353 8.41176471,8.41176471 11,11 C13.5882353,8.41176471 16.8235294,9.05882353 17.4705882,12.9411765 C18.1157059,16.8125294 14.9244118,19.4117647 11,19.4117647" id="Fill-12" fill="#FFE5A9" fill-rule="evenodd"></path>
                <circle id="椭圆形" fill="#FFFFFF" fill-rule="nonzero" opacity="0.7" cx="7.11764706" cy="9.70588235" r="1.29411765"></circle>
                <rect id="矩形" fill="#C16400" fill-rule="evenodd" x="7" y="13" width="2" height="3" rx="1"></rect>
                <rect id="矩形备份" fill="#C16400" fill-rule="evenodd" x="13" y="13" width="2" height="3" rx="1"></rect>
            </g>
        </g>
    </g>
</svg>