<?xml version="1.0" encoding="UTF-8"?>
<svg width="18px" height="18px" viewBox="0 0 18 18" version="1.1" xmlns="http://www.w3.org/2000/svg" xmlns:xlink="http://www.w3.org/1999/xlink">
    <title>icon_v_web</title>
    <defs>
        <linearGradient x1="0%" y1="25.0567901%" x2="100%" y2="80.4500871%" id="linearGradient-1">
            <stop stop-color="#52D1F4" offset="0%"></stop>
            <stop stop-color="#43ACF3" offset="100%"></stop>
        </linearGradient>
    </defs>
    <g id="icon_v_web" stroke="none" stroke-width="1" fill="none" fill-rule="evenodd">
        <path d="M6.58570277,14.6877271 L4.34751253,14.3770725 C3.92438983,14.3183442 3.59388372,13.9820187 3.54254892,13.5579355 L3.27100345,11.3146645 L1.90802992,9.5123591 C1.65036414,9.17163898 1.65447905,8.70011786 1.91805197,8.36394657 L3.31227247,6.58570277 L3.62292707,4.34751253 C3.68165532,3.92438983 4.01798078,3.59388372 4.44206398,3.54254892 L6.685335,3.27100345 L8.48764047,1.90802992 C8.82836055,1.65036414 9.29988167,1.65447905 9.636053,1.91805197 L11.4142968,3.31227247 L13.652487,3.62292707 C14.0756097,3.68165532 14.4061158,4.01798078 14.4574506,4.44206398 L14.7289961,6.685335 L16.0919696,8.48764047 C16.3496354,8.82836055 16.3455205,9.29988167 16.0819476,9.636053 L14.6877271,11.4142968 L14.3770725,13.652487 C14.3183442,14.0756097 13.9820187,14.4061158 13.5579355,14.4574506 L11.3146645,14.7289961 L9.5123591,16.0919696 C9.17163898,16.3496354 8.70011786,16.3455205 8.36394657,16.0819476 L6.58570277,14.6877271 Z" id="Star-Copy" fill="url(#linearGradient-1)" fill-rule="nonzero"></path>
        <path d="M9.636053,1.91805197 L11.4142968,3.31227247 L13.652487,3.62292707 C14.0756097,3.68165532 14.4061158,4.01798078 14.4574506,4.44206398 L14.7289961,6.685335 L16.0919696,8.48764047 C16.3496354,8.82836055 16.3455205,9.29988167 16.0819476,9.636053 L14.6877271,11.4142968 L14.3770725,13.652487 C14.3183442,14.0756097 13.9820187,14.4061158 13.5579355,14.4574506 L11.3146645,14.7289961 L9.5123591,16.0919696 C9.17163898,16.3496354 8.70011786,16.3455205 8.36394657,16.0819476 L6.58570277,14.6877271 L4.34751253,14.3770725 C3.92438983,14.3183442 3.59388372,13.9820187 3.54254892,13.5579355 L3.27100345,11.3146645 L1.90802992,9.5123591 C1.65036414,9.17163898 1.65447905,8.70011786 1.91805197,8.36394657 L3.31227247,6.58570277 L3.62292707,4.34751253 C3.68165532,3.92438983 4.01798078,3.59388372 4.44206398,3.54254892 L6.685335,3.27100345 L8.48764047,1.90802992 C8.82836055,1.65036414 9.29988167,1.65447905 9.636053,1.91805197 Z M11.0095961,4.26568752 L9.054,2.732 L7.07333465,4.2313363 L4.607,4.53 L4.26568752,6.99040345 L2.732,8.945 L4.23133629,10.9266648 L4.53,13.392 L6.99040345,13.734312 L8.945,15.267 L10.9266648,13.7686633 L13.392,13.469 L13.734312,11.0095961 L15.267,9.054 L13.7686633,7.07333465 L13.469,4.607 L11.0095961,4.26568752 Z" id="Star-Copy" fill="#4389EE" fill-rule="nonzero"></path>
        <path d="M13.0107635,6.82750344 C13.1228755,6.88145496 13.1782522,7.00963674 13.1406912,7.12824964 L12.8910493,7.91658524 L12.8649031,7.97347686 C12.8000883,8.07767195 12.6650363,8.12217626 12.5478941,8.068076 L12.4930617,8.04236345 L12.3509766,8.44660821 L12.4277113,8.57522718 C12.5678553,8.83437459 12.6245128,9.13293798 12.5978959,9.46459076 C12.4764688,10.9776042 10.6486388,12.2611211 8.87400611,12.1467258 C7.38923746,12.0510156 5.70858199,10.6848502 5.31279845,9.15051642 L5.2717408,8.96386882 C5.19423718,8.53512031 5.24502584,8.15415216 5.42850574,7.83025824 L5.47397115,7.76067685 L5.48962863,7.49834854 C5.49571925,7.40359737 5.55495807,7.32047423 5.64253355,7.28379435 L6.16993119,7.06290053 L6.23256813,7.04578647 C6.31727355,7.03417474 6.40400926,7.06671092 6.46004297,7.13523389 L6.63615541,7.34952269 L6.54755235,7.32625626 C6.94312979,7.41509904 7.24563925,7.59387807 7.44232249,7.86296777 L7.52009895,7.98382224 C7.74918459,8.39033733 8.40212914,8.81507847 9.05544103,8.88998304 C9.59293466,8.95160864 10.0174689,8.77563569 10.3055999,8.47318646 L10.5120075,8.23334625 C10.6316486,8.10658497 10.7638256,8.00310908 10.908149,7.92375966 L10.9526038,7.90244043 L11.1202865,7.42568522 L10.9484581,7.34756246 C10.8203306,7.28911744 10.7657387,7.13642578 10.8277672,7.00999419 L11.2078711,6.23523565 C11.2683594,6.11194356 11.4169747,6.0605262 11.5407223,6.1200771 L13.0107635,6.82750344 Z" id="路径" fill="#FFFFFF" fill-rule="nonzero"></path>
        <circle id="椭圆形" fill="#FFFFFF" fill-rule="nonzero" opacity="0.7" cx="5.29411765" cy="4.23529412" r="1.05882353"></circle>
    </g>
</svg>