<?xml version="1.0" encoding="UTF-8"?>
<svg width="22px" height="22px" viewBox="0 0 22 22" version="1.1" xmlns="http://www.w3.org/2000/svg" xmlns:xlink="http://www.w3.org/1999/xlink">
    <title>icon_v_web_big</title>
    <defs>
        <linearGradient x1="2.46252111%" y1="26.4208618%" x2="100%" y2="80.4500871%" id="linearGradient-1">
            <stop stop-color="#52D1F4" offset="0%"></stop>
            <stop stop-color="#43ACF3" offset="100%"></stop>
        </linearGradient>
    </defs>
    <g id="icon_v_web_big" stroke="none" stroke-width="1" fill="none" fill-rule="evenodd">
        <path d="M7.68034163,18.820625 L4.60283005,18.393475 C4.02103635,18.3127236 3.56659045,17.8502761 3.49600509,17.2671617 L3.12263006,14.182664 L1.24854147,11.704494 C0.894251023,11.2360039 0.899909014,10.5876624 1.26232178,10.1254269 L3.17937497,7.68034163 L3.60652504,4.60283005 C3.68727639,4.02103635 4.1497239,3.56659045 4.7328383,3.49600509 L7.81733596,3.12263006 L10.295506,1.24854147 C10.7639961,0.894251023 11.4123376,0.899909014 11.8745731,1.26232178 L14.3196584,3.17937497 L17.39717,3.60652504 C17.9789637,3.68727639 18.4334096,4.1497239 18.5039949,4.7328383 L18.8773699,7.81733596 L20.7514585,10.295506 C21.105749,10.7639961 21.100091,11.4123376 20.7376782,11.8745731 L18.820625,14.3196584 L18.393475,17.39717 C18.3127236,17.9789637 17.8502761,18.4334096 17.2671617,18.5039949 L14.182664,18.8773699 L11.704494,20.7514585 C11.2360039,21.105749 10.5876624,21.100091 10.1254269,20.7376782 L7.68034163,18.820625 Z" id="Star-Copy" fill="url(#linearGradient-1)"></path>
        <path d="M13.5352329,8.27575644 L13.509908,8.34750413 C13.4770881,8.4933421 13.5492965,8.64777972 13.6914211,8.7126095 L13.944,8.828 L13.703,9.507 L13.8393404,9.44395207 C13.551109,9.56344473 13.2943718,9.74711763 13.0704786,9.99205452 L12.8790503,10.2203109 C12.4752138,10.6867053 11.8638758,10.9620471 11.0778276,10.8719238 C10.233465,10.7751146 9.39010312,10.2566701 9.0226924,9.72888132 L8.86672279,9.48170337 L8.75610656,9.3420736 C8.52203654,9.07604093 8.21109464,8.88895391 7.82604228,8.77333062 L7.739,8.75 L7.49580529,8.45185502 C7.40516253,8.34100903 7.25243851,8.30293045 7.12036653,8.35824713 L6.39519477,8.66197613 L6.33185237,8.6973089 C6.25394818,8.75307458 6.20362338,8.84153917 6.1973178,8.93963449 L6.173,9.303 L6.22881081,9.22050959 C5.84104221,9.75869926 5.75333069,10.4287228 5.95357703,11.2050176 C6.49557812,13.3061928 8.79905306,15.1786336 10.8319586,15.3096775 C13.2618535,15.4663118 15.7648522,13.7086861 15.9308506,11.6403028 L15.9395115,11.442369 C15.9418968,11.05261 15.8546528,10.6998222 15.6775866,10.3897558 L15.586,10.246 L15.794,9.659 L15.8907319,9.70335525 C16.0675937,9.78503603 16.2760025,9.69303099 16.3348151,9.50730838 L16.6780727,8.42334694 C16.7266812,8.26984789 16.6550171,8.10396558 16.5099311,8.03414598 L14.4886244,7.06143475 C14.3284805,6.98436887 14.1361547,7.05090898 14.0578758,7.21046345 L13.5352329,8.27575644 Z" id="路径" fill="#FFFFFF" fill-rule="nonzero"></path>
        <path d="M11.0808401,1.73663936 C10.9637746,1.73561775 10.8463804,1.77226377 10.747891,1.84674529 L8.1083357,3.8428797 L4.82296705,4.24056994 C4.7003805,4.2554089 4.59047769,4.31059685 4.50697748,4.39265228 C4.42347726,4.47470771 4.36637966,4.58363062 4.34940352,4.70593952 L3.89443626,7.98386714 L1.85253928,10.5881831 C1.77635023,10.6853576 1.73766098,10.8020944 1.73663936,10.9191599 C1.73561775,11.0362254 1.77226377,11.1536196 1.84674529,11.252109 L3.8428797,13.8916643 L4.24056994,17.1770329 C4.2554089,17.2996195 4.31059685,17.4095223 4.39265228,17.4930225 C4.47470771,17.5765227 4.58363062,17.6336203 4.70593952,17.6505965 L7.98386714,18.1055637 L10.5881831,20.1474607 C10.6853576,20.2236498 10.8020944,20.262339 10.9191599,20.2633606 C11.0362254,20.2643823 11.1536196,20.2277362 11.252109,20.1532547 L13.8916643,18.1571203 L17.1770329,17.7594301 C17.2996195,17.7445911 17.4095223,17.6894032 17.4930225,17.6073477 C17.5765227,17.5252923 17.6336203,17.4163694 17.6505965,17.2940605 L18.1055637,14.0161329 L20.1474607,11.4118169 C20.2236498,11.3146424 20.262339,11.1979056 20.2633606,11.0808401 C20.2643823,10.9637746 20.2277362,10.8463804 20.1532547,10.747891 L18.1571203,8.1083357 L17.7594301,4.82296705 C17.7445911,4.7003805 17.6894032,4.59047769 17.6073477,4.50697748 C17.5252923,4.42347726 17.4163694,4.36637966 17.2940605,4.34940352 L14.0161329,3.89443626 L11.0808401,1.73663936 Z" id="Star-Copy" stroke="#4389EE" stroke-width="1.5"></path>
        <circle id="椭圆形" fill="#FFFFFF" fill-rule="nonzero" opacity="0.7" cx="6.47058824" cy="5.17647059" r="1.29411765"></circle>
    </g>
</svg>