<?xml version="1.0" encoding="UTF-8"?>
<svg width="18px" height="18px" viewBox="0 0 18 18" version="1.1" xmlns="http://www.w3.org/2000/svg" xmlns:xlink="http://www.w3.org/1999/xlink">
    <!-- Generator: Sketch 64 (93537) - https://sketch.com -->
    <title>18猴子svg</title>
    <desc>Created with Sketch.</desc>
    <defs>
        <linearGradient x1="50%" y1="34.5952261%" x2="50%" y2="87.0995905%" id="linearGradient-1">
            <stop stop-color="#000000" stop-opacity="0" offset="0%"></stop>
            <stop stop-color="#000000" offset="100%"></stop>
        </linearGradient>
        <path d="M15.6850941,8.44861765 C14.9592706,5.42620588 12.2455059,3.17673529 9.00021176,3.17673529 C5.75438824,3.17673529 3.04062353,5.42620588 2.3148,8.44861765 C1.15856471,8.70220588 0.304094118,9.70967647 0.240035294,11.0803235 C0.155329412,12.8893235 1.47674118,14.6432647 3.19203529,14.9979706 C3.55627059,15.0736765 3.90832941,15.0757941 4.23868235,15.0212647 C5.47538824,16.2082059 7.15044706,16.9414412 9.00021176,16.9414412 C10.8494471,16.9414412 12.5245059,16.2082059 13.7612118,15.0212647 C14.0915647,15.0757941 14.4436235,15.0736765 14.8078588,14.9979706 C16.5231529,14.6432647 17.8450941,12.8893235 17.7598588,11.0803235 C17.6958,9.70967647 16.8413294,8.70220588 15.6850941,8.44861765" id="path-2"></path>
    </defs>
    <g id="18猴子svg" stroke="none" stroke-width="1" fill="none" fill-rule="evenodd">
        <polygon id="Fill-1" points="0 18 18 18 18 0 0 0"></polygon>
        <g id="Fill-2">
            <use fill="#FEB624" xlink:href="#path-2"></use>
            <use fill="url(#linearGradient-1)" style="mix-blend-mode: soft-light;" xlink:href="#path-2"></use>
        </g>
        <path d="M5.55882353,11.8057765 C5.70494118,12.6830118 5.11252941,13.3940118 4.23529412,13.3940118 C3.35805882,13.3940118 2.52847059,12.6830118 2.38235294,11.8057765 C2.23623529,10.9285412 2.82864706,10.2175412 3.70588235,10.2175412 C4.58311765,10.2175412 5.41270588,10.9285412 5.55882353,11.8057765" id="Fill-4" fill="#EAA70C" opacity="0.6" style="mix-blend-mode: multiply;"></path>
        <path d="M12.4411765,11.8057765 C12.2950588,12.6830118 12.8874706,13.3940118 13.7647059,13.3940118 C14.6419412,13.3940118 15.4715294,12.6830118 15.6176471,11.8057765 C15.7637647,10.9285412 15.1713529,10.2175412 14.2941176,10.2175412 C13.4168824,10.2175412 12.5872941,10.9285412 12.4411765,11.8057765" id="Fill-6" fill="#EAA70C" opacity="0.6" style="mix-blend-mode: multiply;"></path>
        <path d="M10.8558,2.31257647 L10.8632118,2.32157647 C10.9802118,2.46345882 11.0352706,2.64610588 11.0167412,2.82928235 C10.9982118,3.01298824 10.9066235,3.18081176 10.7631529,3.29622353 C10.6435059,3.39522353 10.5471529,3.49475294 10.4481529,3.61916471 C10.2453882,3.85581176 9.7128,4.34551765 8.79585882,4.24387059 C8.00385882,4.15281176 7.2468,3.66998824 6.86668235,3.01404706 C6.7518,2.84887059 6.54268235,2.70169412 6.25415294,2.60798824 C6.12868235,2.56722353 6.01697647,2.49098824 5.93385882,2.38881176 L5.82956471,2.26122353 L5.26309412,2.49892941 L5.25197647,2.67310588 C5.24509412,2.77792941 5.21438824,2.88010588 5.16197647,2.97116471 C4.97138824,3.30522353 4.93962353,3.70334118 5.06509412,4.18934118 C5.28003529,5.02422353 5.88409412,5.58169412 6.35262353,5.90251765 C7.04403529,6.37634118 7.95727059,6.69134118 8.79585882,6.74534118 C9.7128,6.80516471 10.6191529,6.60875294 11.2793294,6.2064 C11.7372706,5.92792941 12.2979176,5.41810588 12.3656824,4.57316471 L12.3720353,4.43022353 C12.3746824,4.30316471 12.3582706,4.16392941 12.3238588,4.03634118 L12.2905059,3.93257647 C12.2126824,3.68322353 12.2825647,3.41110588 12.4710353,3.22951765 C12.5986235,3.10775294 12.7648588,3.04104706 12.9358588,3.03787059 L13.2355059,2.09181176 L11.3852118,1.23363529 L10.8558,2.31257647 Z" id="Fill-8" fill="#FFF700"></path>
        <path d="M14.5957765,13.9606412 C14.4687176,13.9871118 14.3416588,13.9977 14.2198941,13.9977 C14.1246,13.9977 14.0293059,13.9924059 13.9340118,13.9765235 C13.8757765,13.9659353 13.8175412,13.9606412 13.7593059,13.9606412 C13.4893059,13.9606412 13.2246,14.0665235 13.0287176,14.2571118 C11.9381294,15.3053471 10.5034235,15.8824059 8.99989412,15.8824059 C7.49636471,15.8824059 6.06165882,15.3053471 4.97107059,14.2571118 C4.77518824,14.0665235 4.51048235,13.9606412 4.24048235,13.9606412 C4.18224706,13.9606412 4.12401176,13.9659353 4.06577647,13.9765235 C3.97048235,13.9924059 3.87518824,13.9977 3.77989412,13.9977 C3.65812941,13.9977 3.53107059,13.9871118 3.40401176,13.9606412 C2.20224706,13.7118176 1.23871765,12.4147588 1.29695294,11.1282882 C1.33930588,10.2759353 1.81577647,9.64064118 2.54107059,9.48181765 C2.93812941,9.39711176 3.25048235,9.09005294 3.34577647,8.69828824 C3.59989412,7.63946471 4.12930588,6.7077 4.8546,5.97711176 C5.09283529,5.72299412 5.36812941,5.49005294 5.65930588,5.28358235 C5.43695294,5.03475882 5.24107059,4.73299412 5.1246,4.37299412 C5.10342353,4.31475882 5.08224706,4.25122941 5.06636471,4.1877 C4.93930588,3.70593529 4.97107059,3.30358235 5.16165882,2.97005294 C5.2146,2.88005294 5.24636471,2.77946471 5.25165882,2.67358235 L5.26224706,2.49887647 L5.82871765,2.26064118 L5.9346,2.3877 C6.01930588,2.49358235 6.13048235,2.5677 6.25224706,2.61005294 C6.54342353,2.70005294 6.74989412,2.84828824 6.86636471,3.01240588 C6.95107059,3.16064118 7.05695294,3.29828824 7.17871765,3.42534706 C7.58107059,3.85946471 8.16342353,4.16122941 8.76165882,4.24064118 C8.77224706,4.24064118 8.78283529,4.24593529 8.79342353,4.24593529 C8.87812941,4.25122941 8.96283529,4.25652353 9.03695294,4.25652353 C9.11107059,4.25652353 9.17989412,4.25122941 9.24342353,4.24064118 C9.24871765,4.24593529 9.25401176,4.24064118 9.25401176,4.24064118 C9.8946,4.17711176 10.2810706,3.81181765 10.4504824,3.62122941 C10.5193059,3.53122941 10.5881294,3.45181765 10.6675412,3.38299412 C10.6993059,3.35122941 10.7310706,3.32475882 10.7628353,3.29828824 C10.9057765,3.18181765 10.9957765,3.01240588 11.0169529,2.82711176 C11.0328353,2.64711176 10.9798941,2.46181765 10.8634235,2.31887647 L10.8581294,2.31358235 L11.3875412,1.23358235 L13.2351882,2.09122941 L12.9334235,3.03887647 C12.7640118,3.03887647 12.5998941,3.1077 12.4728353,3.22946471 C12.2822471,3.40946471 12.2134235,3.68475882 12.2928353,3.93358235 L12.3246,4.03417059 C12.3563647,4.16122941 12.3722471,4.30417059 12.3722471,4.43122941 L12.3669529,4.57417059 C12.3510706,4.80711176 12.2928353,5.01358235 12.2134235,5.19358235 C12.5151882,5.39475882 12.7957765,5.62240588 13.0498941,5.87652353 C13.8228353,6.62299412 14.3840118,7.58652353 14.6540118,8.69828824 C14.7493059,9.09005294 15.0616588,9.39711176 15.4587176,9.48181765 C16.1840118,9.64064118 16.6604824,10.2759353 16.7028353,11.1282882 C16.7610706,12.4147588 15.7975412,13.7118176 14.5957765,13.9606412 M15.6863647,8.44946471 C15.3316588,6.98828824 14.5216588,5.71240588 13.4046,4.78064118 C13.4151882,4.74358235 13.4151882,4.70122941 13.4204824,4.65887647 C13.4204824,4.64299412 13.4204824,4.63240588 13.4257765,4.62181765 L13.4310706,4.47887647 L13.4310706,4.44711176 C13.4310706,4.29887647 13.4204824,4.14005294 13.3940118,3.99181765 C13.6534235,3.86475882 13.8546,3.64240588 13.9446,3.35652353 L14.2463647,2.41417059 C14.4051882,1.90593529 14.1616588,1.35534706 13.6798941,1.13299412 L11.8322471,0.275347059 C11.6840118,0.206523529 11.5357765,0.174758824 11.3875412,0.174758824 C10.9957765,0.174758824 10.6198941,0.391817647 10.4346,0.7677 L9.90518824,1.8477 C9.77283529,2.11240588 9.76224706,2.41417059 9.86283529,2.68417059 C9.78342353,2.76358235 9.70930588,2.84828824 9.63518824,2.93828824 C9.55048235,3.03358235 9.41812941,3.13946471 9.21695294,3.18181765 C9.16401176,3.19240588 9.10048235,3.1977 9.03695294,3.1977 C8.99989412,3.1977 8.95754118,3.1977 8.91518824,3.19240588 C8.89401176,3.18711176 8.86754118,3.18711176 8.84636471,3.18181765 C8.41224706,3.1077 7.98342353,2.82711176 7.78224706,2.48299412 C7.76636471,2.45652353 7.75048235,2.43534706 7.7346,2.40887647 C7.50165882,2.07005294 7.13636471,1.80534706 6.68636471,1.63593529 L6.64930588,1.59358235 C6.44283529,1.33946471 6.14107059,1.20181765 5.82871765,1.20181765 C5.69107059,1.20181765 5.55342353,1.22828824 5.42107059,1.28652353 L4.8546,1.51946471 C4.48401176,1.67828824 4.22989412,2.0277 4.20342353,2.43005294 L4.19812941,2.52534706 C3.90695294,3.08122941 3.85401176,3.73240588 4.03930588,4.45240588 C4.09754118,4.67475882 4.17165882,4.88122941 4.26165882,5.07711176 C3.31401176,5.97711176 2.63107059,7.13652353 2.31342353,8.44946471 C1.15930588,8.70358235 0.301658824,9.70946471 0.238129412,11.0806412 C0.153423529,12.8912294 1.47695294,14.6435824 3.19224706,14.9982882 C3.39342353,15.0406412 3.58930588,15.0565235 3.77989412,15.0565235 C3.93871765,15.0565235 4.09224706,15.0459353 4.24048235,15.0194647 C5.47401176,16.2053471 7.15224706,16.9412294 8.99989412,16.9412294 C10.8475412,16.9412294 12.5257765,16.2053471 13.7593059,15.0194647 C13.9075412,15.0459353 14.0610706,15.0565235 14.2198941,15.0565235 C14.4104824,15.0565235 14.6063647,15.0406412 14.8075412,14.9982882 C16.5228353,14.6435824 17.8463647,12.8912294 17.7616588,11.0806412 C17.6981294,9.70946471 16.8404824,8.70358235 15.6863647,8.44946471" id="Fill-10" fill="#C16400"></path>
        <path d="M9,15.8823529 C5.78911765,15.8823529 3.17805882,13.7557059 3.70588235,10.5882353 C4.23529412,7.41176471 6.88235294,6.88235294 9,9 C11.1176471,6.88235294 13.7647059,7.41176471 14.2941176,10.5882353 C14.8219412,13.7557059 12.2108824,15.8823529 9,15.8823529" id="Fill-12" fill="#FFE5A9"></path>
        <rect id="矩形" fill="#C16400" x="6" y="10.5" width="1.5" height="2.5" rx="0.75"></rect>
        <rect id="矩形备份" fill="#C16400" x="10.5" y="10.5" width="1.5" height="2.5" rx="0.75"></rect>
        <circle id="椭圆形" fill="#FFFFFF" fill-rule="nonzero" opacity="0.7" cx="5.82352941" cy="7.94117647" r="1.05882353"></circle>
    </g>
</svg>