<?xml version="1.0" encoding="UTF-8"?>
<svg width="14px" height="14px" viewBox="0 0 14 14" version="1.1" xmlns="http://www.w3.org/2000/svg" xmlns:xlink="http://www.w3.org/1999/xlink">
    <title>icon_观看人数</title>
    <g id="icon_观看人数" stroke="none" stroke-width="1" fill="none" fill-rule="evenodd">
        <path d="M7,1.16666667 C9.25516273,1.16666667 11.0833333,2.99483727 11.0833333,5.25 C11.0833333,6.65811647 10.3705819,7.89976092 9.28617414,8.6338382 C10.0605009,8.96295124 10.75933,9.46034352 11.3340175,10.0965663 L11.5436112,10.3416 L11.6993621,10.5434396 C12.1702467,11.1826655 12.0337791,12.0825878 11.3945532,12.5534724 C11.1886709,12.7051353 10.9468509,12.7985812 10.6944492,12.8254852 L10.5419412,12.8335759 L3.48720509,12.8335759 C2.68515498,12.8335759 2.03495181,12.1834592 2.03495181,11.3814102 C2.03495181,11.1815656 2.07618887,10.9846057 2.16525747,10.7861462 L2.24113038,10.6369519 L2.32365355,10.5124109 C2.94706794,9.67772107 3.77316545,9.03265265 4.71336758,8.63210985 C3.62897753,7.89899327 2.91666667,6.65768119 2.91666667,5.25 C2.91666667,2.99483727 4.74483727,1.16666667 7,1.16666667 Z M7,9.33333333 C5.59104127,9.33333333 4.28753784,9.96138437 3.42706152,10.993462 L3.27988037,11.1797418 L3.23832771,11.2413499 C3.21428822,11.2840577 3.20161848,11.3322919 3.20161848,11.3814102 C3.20161848,11.5165753 3.2955296,11.6297832 3.42168049,11.6593699 L3.48715707,11.6669093 L10.5420458,11.6669093 C10.5998035,11.6669093 10.6560672,11.6484362 10.7026057,11.6141536 C10.8029844,11.5402099 10.8375723,11.4101223 10.7996229,11.3052821 L10.7680948,11.2460588 L10.6286855,11.0653703 C9.74741226,9.97719344 8.42712047,9.33333333 7,9.33333333 Z M7.01809242,8.16669432 L7.17137632,8.16171544 C8.70243892,8.07300363 9.91666667,6.80330086 9.91666667,5.25 C9.91666667,3.63916948 8.61083052,2.33333333 7,2.33333333 C5.38916948,2.33333333 4.08333333,3.63916948 4.08333333,5.25 C4.08333333,6.80330086 5.29756108,8.07300363 6.82862368,8.16171544 L7.01809242,8.16669432 Z" id="形状" fill="#FFFFFF" fill-rule="nonzero"></path>
    </g>
</svg>