<?xml version="1.0" encoding="UTF-8"?>
<svg width="30px" height="30px" viewBox="0 0 30 30" version="1.1" xmlns="http://www.w3.org/2000/svg" xmlns:xlink="http://www.w3.org/1999/xlink">
    <title>icon_aq_g</title>
    <g id="icon_aq_g" stroke="none" stroke-width="1" fill="none" fill-rule="evenodd">
        <g>
            <rect id="矩形" x="0" y="0" width="30" height="30"></rect>
            <path d="M14.2006898,1.10817695 L6.08046241,3.34913764 L5.83241262,3.4261014 C4.12736689,4.02282134 3,5.57135949 3,7.31785032 L3,16.3749285 L3.00596087,16.6910118 C3.18402129,21.2530542 6.89020154,24.8900137 13.8528182,27.772347 C14.5860485,28.0758843 15.4139515,28.0758843 16.1471818,27.772347 C23.2815326,24.8189205 27,21.0689738 27,16.3749285 L27,7.31785032 L26.991471,7.06305578 C26.8642619,5.2925153 25.6344031,3.82239362 23.9195376,3.34913764 L15.7993102,1.10817695 L15.4823383,1.0389127 C15.0555163,0.969569879 14.6178589,0.99304969 14.2006898,1.10817695 Z M15.155,3.012 L15.3198139,3.04909224 L23.3874815,5.27706821 C24.2938853,5.52721089 24.9310009,6.28879214 24.9947165,7.17108035 L25.0006481,7.35384618 L25,16.3749285 C25,20.0713908 21.851887,23.2461546 15.3821948,25.9244306 C15.1387991,26.0251898 14.8612009,26.0251898 14.6178052,25.9244306 C8.29781357,23.3081266 5.14495447,20.2141537 5.00500915,16.6325149 L4.99981076,16.3554748 L4.99981076,7.31785032 C4.99981076,6.43113025 5.58131805,5.63263849 6.46147726,5.32429201 L6.64492695,5.26753242 L14.7327459,3.03610753 C14.8255558,3.01049452 14.9217195,2.99845749 15.0178558,2.9999995 L15.155,3.012 Z" id="形状" fill="#CCCCCC" fill-rule="nonzero"></path>
            <path d="M15,2 C15.1454241,2.00619657 15.25275,2.01491829 15.3219777,2.02616515 L15.5332822,2.07233581 L23.6535095,4.31327851 C24.9693255,4.6764048 25.8980079,5.79603101 25.992119,7.09920486 L26,7.31800178 L26,16.3750072 C26,20.6459767 22.4392905,24.0853025 15.7646883,26.8483835 C15.6029992,26.9153178 15.3481031,26.9658566 15,27 L15,2 Z" id="路径" fill-opacity="0.2" fill="#CCCCCC" fill-rule="nonzero"></path>
        </g>
    </g>
</svg>