<?xml version="1.0" encoding="UTF-8"?>
<svg width="22px" height="22px" viewBox="0 0 22 22" version="1.1" xmlns="http://www.w3.org/2000/svg" xmlns:xlink="http://www.w3.org/1999/xlink">
    <title>icon_up_web_big</title>
    <defs>
        <linearGradient x1="84.8208452%" y1="86.6757839%" x2="-1.11022302e-14%" y2="9.5%" id="linearGradient-1">
            <stop stop-color="#F24D86" offset="0%"></stop>
            <stop stop-color="#FFB1CC" offset="100%"></stop>
        </linearGradient>
    </defs>
    <g id="icon_up_web_big" stroke="none" stroke-width="1" fill="none" fill-rule="evenodd">
        <path d="M13.5,2 C17.6421356,2 21,5.35786438 21,9.5 C21,13.6421356 17.6421356,17 13.5,17 L12,17 L12,18.7058824 C12,19.4206038 11.4206038,20 10.7058824,20 L6.29411765,20 C5.57939621,20 5,19.4206038 5,18.7058824 L4.99935971,15.6897751 C2.51202694,14.4274827 1,11.8397436 1,9 L1,5.29411765 C1,4.57939621 1.57939621,4 2.29411765,4 L4.999,4 L5,3.29411765 C5,2.57939621 5.57939621,2 6.29411765,2 L13.5,2 Z" id="路径" fill="url(#linearGradient-1)" fill-rule="nonzero"></path>
        <path d="M6.17647059,5.5 L2.82352941,5.5 C2.64484905,5.5 2.5,5.64484905 2.5,5.82352941 L2.5,9 L2.5,9 C2.5,12.1953618 5.1862915,15 8.5,15 C11.8137085,15 14.5,12.1953618 14.5,9 L14.5,5.82352941 C14.5,5.64484905 14.3551509,5.5 14.1764706,5.5 L10.8235294,5.5 C10.6448491,5.5 10.5,5.64484905 10.5,5.82352941 L10.5,9 L10.5,9 C10.5,10.0651206 9.6045695,11 8.5,11 C7.3954305,11 6.5,10.0651206 6.5,9 L6.5,5.82352941 C6.5,5.64484905 6.35515095,5.5 6.17647059,5.5 Z" id="路径" fill="#FFF700" fill-rule="nonzero"></path>
        <path d="M13.5,2.75 L5.75,3.29411765 L5.74793905,4.75 L1.75,5.29411765 L1.75,9 C1.75,10.2879606 2.09331106,11.5189882 2.72123342,12.5693211 C3.41255847,13.7257085 4.44917761,14.662485 5.74925819,15.2114839 L6.29411765,19.25 L11.25,18.7058824 L11.25,16.25 L13.5,16.25 C15.363961,16.25 17.051461,15.4944805 18.2729708,14.2729708 C19.4944805,13.051461 20.25,11.363961 20.25,9.5 C20.25,7.63603897 19.4944805,5.94853897 18.2729708,4.72702923 C17.051461,3.50551948 15.363961,2.75 13.5,2.75 Z" id="路径" stroke="#DD3496" stroke-width="1.5" fill-rule="nonzero"></path>
        <circle id="椭圆形" fill="#FFFFFF" fill-rule="nonzero" opacity="0.7" cx="6.47058824" cy="5.17647059" r="1.29411765"></circle>
    </g>
</svg>