<?xml version="1.0" encoding="UTF-8"?>
<svg width="40px" height="40px" viewBox="0 0 40 40" version="1.1" xmlns="http://www.w3.org/2000/svg" xmlns:xlink="http://www.w3.org/1999/xlink">
    <!-- Generator: Sketch 56.2 (81672) - https://sketch.com -->
    <title>icon_share_qqkl</title>
    <desc>Created with Sketch.</desc>
    <g id="icon_share_qqkl" stroke="none" stroke-width="1" fill="none" fill-rule="evenodd">
        <g fill-rule="nonzero">
            <g id="QQkongjian">
                <path d="M20,0 C8.954,0 0,8.954 0,20 C0,31.046 8.954,40 20,40 C31.046,40 40,31.046 40,20 C40,8.954 31.046,0 20,0 Z" id="路径" fill="#FAB619"></path>
                <path d="M14.1557442,23.379562 C14.8025199,22.6666667 23.0979088,18.026764 23.0979088,18.026764 L12.26564,16.56691 L26.7543967,16.4099757 C26.8993967,16.5415783 26.9819936,16.7276684 26.9819936,16.9227494 C26.9819936,17.1178303 26.8993967,17.3039205 26.7543967,17.4355231 C26.2472657,18.026764 18.5472045,23.2579075 18.5472045,23.2579075 L27.2970514,23.9525547 L26.9993875,22.4756691 L34,15.6982968 L24.2873392,14.2907543 L20,6 L15.6599878,14.2384428 L6,15.6289538 L13.0006125,22.4756691 L11.2501531,32 L20,27.4635036 L28.7498469,32 L27.3142007,24.2141119 L14.1557442,24.7871046 C13.9714562,24.6161657 13.8668374,24.3769553 13.8668374,24.1265207 C13.8668374,23.8760861 13.9714562,23.6368757 14.1557442,23.4659367 L14.1557442,23.379562 Z" id="路径" fill="#FFFFFF"></path>
            </g>
            <rect id="Rectangle" fill-opacity="0" fill="#D8D8D8" x="0" y="0" width="40" height="40"></rect>
        </g>
    </g>
</svg>