<?xml version="1.0" encoding="UTF-8"?>
<svg width="22px" height="22px" viewBox="0 0 22 22" version="1.1" xmlns="http://www.w3.org/2000/svg" xmlns:xlink="http://www.w3.org/1999/xlink">
    <title>icon_avi_web_big</title>
    <defs>
        <linearGradient x1="8.22457004%" y1="19.519784%" x2="89.5121984%" y2="78.4185708%" id="linearGradient-1">
            <stop stop-color="#FFB1D8" offset="0%"></stop>
            <stop stop-color="#F04098" offset="100%"></stop>
        </linearGradient>
    </defs>
    <g id="icon_avi_web_big" stroke="none" stroke-width="1" fill="none" fill-rule="evenodd">
        <path d="M14.6719757,3.5 C14.7827859,3.5 14.8942738,3.50410537 15.0064395,3.51163189 C17.6577514,3.69534725 19.5794781,6.12606911 19.4974718,8.86127267 C19.4649221,9.95021036 19.2936671,10.9433716 19.0010492,11.8477784 L19,14 C19,14.5522847 18.5522847,15 18,15 C17.7742646,15 17.5659985,14.9252045 17.3986328,14.7990445 C16.2599352,16.2030143 14.7141461,17.2812388 12.9040955,18.0915156 C12.2965032,18.3638385 11.6482466,18.5 10.99999,18.5 C10.3520722,18.5 9.70381563,18.3638385 9.09588444,18.0915156 C6.97989462,17.1441996 5.22500792,15.8306376 4.05818355,14.0589896 L3.92307692,14.3843545 L3.87201243,14.4894172 C3.62740668,14.9262817 3.08877154,15.1200606 2.61538462,14.9228161 C2.14199769,14.7255715 1.90031654,14.2066608 2.03827901,13.7253616 L2.07692308,13.6151237 L2.92022129,11.5919324 C2.67563077,10.75703 2.53208689,9.84866659 2.50250816,8.86161478 C2.42084071,6.12606911 4.34222856,3.69534725 6.99387935,3.51163189 C7.10604503,3.50410537 7.21753296,3.5 7.32834316,3.5 C8.3920533,3.5 9.37477372,3.85340404 10.1721327,4.452104 L10.3291411,4.57493122 C10.5904471,4.78433242 10.9398679,5.07883632 10.99999,5.07883632 C11.0734725,5.07883632 11.5791173,4.63889839 11.8278472,4.452104 C12.6252062,3.85340404 13.6082655,3.5 14.6719757,3.5 Z" id="路径" fill="url(#linearGradient-1)"></path>
        <path d="M18,7 C18.5522847,7 19,7.44771525 19,8 L19,14 C19,14.5522847 18.5522847,15 18,15 C17.4477153,15 17,14.5522847 17,14 L17,8 C17,7.44771525 17.4477153,7 18,7 Z M10.3720124,7.51032193 L10.4230769,7.61538462 L11.9996471,11.3996471 L13.5769231,7.61538462 C13.7741676,7.14199769 14.2930783,6.90031654 14.7743775,7.03827901 L14.8846154,7.07692308 C15.3580023,7.27416763 15.5996835,7.79307831 15.461721,8.27437753 L15.4230769,8.38461538 L12.9230769,14.3846154 C12.5982906,15.1641026 11.5329915,15.2030769 11.1341538,14.5015385 L11.0769231,14.3846154 L8.57692308,8.38461538 C8.36450587,7.87481408 8.60558331,7.28934029 9.11538462,7.07692308 C9.58877154,6.87967852 10.1274067,7.07345742 10.3720124,7.51032193 Z M4.63415385,7.49820067 C5.012,6.83358528 5.988,6.83358528 6.36584615,7.49820067 L6.42307692,7.61512374 L8.92307692,13.6151237 L8.96172099,13.7253616 C9.08907096,14.1696378 8.89293762,14.6459616 8.48967807,14.8717516 L8.38461538,14.9228161 L8.27437753,14.9614601 C7.83010133,15.0888101 7.35377749,14.8926767 7.12798757,14.4894172 L7.07692308,14.3843545 L6.91673913,13.9997391 L4.08273913,13.9997391 L3.92307692,14.3843545 L3.87201243,14.4894172 C3.62740668,14.9262817 3.08877154,15.1200606 2.61538462,14.9228161 C2.14199769,14.7255715 1.90031654,14.2066608 2.03827901,13.7253616 L2.07692308,13.6151237 L4.57692308,7.61512374 L4.63415385,7.49820067 Z M5.49964706,10.6000921 L4.91573913,11.9997391 L6.08273913,11.9997391 L5.49964706,10.6000921 Z" id="形状" fill="#FFFFFF"></path>
        <path d="M14.6719757,2.75 C13.4585782,2.75 12.3298624,3.13534249 10.99999,4.32883632 C10.9743389,4.32883632 10.8834408,4.06116466 10.6224604,3.85234986 C9.71058964,3.16766835 8.5907523,2.748321 6.94204108,2.7634255 C5.42284268,2.86868072 4.10725284,3.60543172 3.17832611,4.71194061 C2.2457259,5.82282522 1.70579859,7.30821648 1.75284217,8.88399544 C1.78144045,9.83832967 1.91054346,10.7236208 2.12834083,11.5443309 L1.33122193,13.4725713 C1.19270953,13.910239 1.23533327,14.369033 1.42367812,14.7598356 C1.60330468,15.1325483 1.91494028,15.4434642 2.32692308,15.6151237 C2.79352585,15.8095416 3.29430333,15.8006674 4.05134184,15.312335 C5.25843426,16.7834694 6.88296109,17.9225341 8.78942421,18.7760462 C9.49510067,19.0921542 10.2477755,19.25 10.99999,19.25 C11.7526509,19.25 12.5053697,19.0921107 13.2108443,18.7759169 C14.9432074,18.0004173 16.4434391,16.9888152 18,15.75 C18.4832492,15.75 18.9207492,15.5541246 19.2374369,15.2374369 C19.5541246,14.9207492 19.75,14.4832492 19.75,14 L19.7509926,11.9639748 C20.0419779,11.0273267 20.213681,10.0029357 20.2471369,8.8836811 C20.2951363,7.28273184 19.7378814,5.77531327 18.7291295,4.65455932 C17.7658863,3.58436689 16.390146,2.86080945 14.6719757,2.75 Z" id="路径" stroke="#E6333A" stroke-width="1.5"></path>
        <circle id="椭圆形" fill="#FFFFFF" fill-rule="nonzero" opacity="0.7" cx="6.47058824" cy="5.17647059" r="1.29411765"></circle>
    </g>
</svg>