<?xml version="1.0" encoding="UTF-8"?>
<svg width="32px" height="32px" viewBox="0 0 32 32" version="1.1" xmlns="http://www.w3.org/2000/svg" xmlns:xlink="http://www.w3.org/1999/xlink">
    <!-- Generator: Sketch 56.2 (81672) - https://sketch.com -->
    <title>icon_bananaer_fl</title>
    <desc>Created with Sketch.</desc>
    <g id="icon_bananaer_fl" stroke="none" stroke-width="1" fill="none" fill-rule="evenodd">
        <g>
            <rect id="Rectangle-12" fill="#D8D8D8" fill-rule="nonzero" opacity="0" x="0" y="0" width="32" height="32"></rect>
            <path d="M7.98006785,1 L15.5747291,2.44952445 L14.6099983,6.51394039 L11.9184656,5.74215579 L10.6396271,9.16080535 C11.3264412,10.1767816 11.6514511,11.2488059 11.6146568,12.3768783 C11.5594653,14.0689869 12.1419181,16.8493863 15.1495783,18.8284235 C18.1572385,20.8074607 21.9395335,20.941638 23.8500373,20.2309256 C25.1237066,19.7571173 26.5337883,19.9187152 28.0802826,20.7157193 L29.6189951,20.4287284 L30.7715965,22.6452576 L29.9237262,23.7930518 C29.795462,25.5622359 28.8099532,27.1001698 26.9671997,28.4068536 C21.4828045,32.2958006 12.5049789,31.8085081 7.85404963,28.4068536 C2.06805405,24.1750201 -0.381945951,15.4250201 3.11805405,10.5250201 C4.08016238,9.17806846 5.46588143,8.40175329 7.27521118,8.19607461 L8.55404963,4.77742505 L6.53540006,4.1985866 L7.98006785,1 Z" id="路径" stroke="#FFFFFF" fill-opacity="0.4" fill="#FFFFFF" fill-rule="nonzero" stroke-linecap="round" stroke-linejoin="round" stroke-dasharray="2,3" transform="translate(16.135798, 16.071938) scale(-1, 1) translate(-16.135798, -16.071938) "></path>
            <rect id="矩形" x="0" y="5.68434189e-14" width="32" height="32"></rect>
        </g>
    </g>
</svg>