<?xml version="1.0" encoding="UTF-8"?>
<svg width="18px" height="18px" viewBox="0 0 18 18" version="1.1" xmlns="http://www.w3.org/2000/svg" xmlns:xlink="http://www.w3.org/1999/xlink">
    <title>icon_avi_web</title>
    <defs>
        <linearGradient x1="8.22457004%" y1="21.265426%" x2="89.5121984%" y2="76.7910019%" id="linearGradient-1">
            <stop stop-color="#FFB1D8" offset="0%"></stop>
            <stop stop-color="#F04098" offset="100%"></stop>
        </linearGradient>
    </defs>
    <g id="icon_avi_web" stroke="none" stroke-width="1" fill="none" fill-rule="evenodd">
        <path d="M11.5558758,2.00684554 C10.7276162,2.05191204 9.93815792,2.31836407 9.25524007,2.77266745 L8.999,2.955 C8.17023685,2.33021432 7.20483738,2 6.19226242,2 C6.0863626,2 5.97898725,2.0037989 5.86937388,2.01117301 C3.31496644,2.18860244 1.42342568,4.48952429 1.50236107,7.14033596 L1.51911605,7.49747065 C1.53427644,7.7335487 1.55741173,7.96560047 1.58848637,8.19360913 L1.646,8.557 L0.81188092,10.6428752 L0.754727733,10.8119417 C0.515859472,11.7552144 0.977501592,12.6674242 1.82474422,13.0063213 L1.97533454,13.0591044 C2.53097499,13.2270703 3.11965185,13.115673 3.56978603,12.7886977 L3.681,12.699 L3.89291223,12.9207518 C4.76352719,13.7998197 5.85221979,14.5236373 7.13442575,15.0991451 C7.72450592,15.3641494 8.35951374,15.5 9,15.5 C9.64076737,15.5 10.275842,15.3641341 10.8659441,15.0989721 L11.2165677,14.935565 C12.2534268,14.4338979 13.1546458,13.8290628 13.9057614,13.1169098 L14.087,12.937 L14.166649,12.9693388 C14.3490768,13.0336387 14.5447297,13.0683995 14.7474048,13.0683995 L14.9178826,13.0595348 C15.8507927,12.9355119 16.5,12.1979893 16.5,11.3209946 L16.5,6.3158043 L16.4926405,6.15505944 C16.473101,5.9423666 16.4149972,5.73697432 16.3224477,5.54807457 L16.278,5.467 L16.3206037,5.61461635 C15.7861283,3.61918543 14.1441932,2.15103602 12.1330507,2.01132211 C12.0212566,2.0037989 11.9138812,2 11.8079814,2 L11.5558758,2.00684554 Z" id="路径" fill="#E6333A" fill-rule="nonzero"></path>
        <path d="M11.8079814,3 C11.8927186,3 11.9779741,3.00314745 12.0637478,3.00891778 C13.6792216,3.12114461 14.9404863,4.32707654 15.3546538,5.87334561 C15.4459506,5.99663647 15.5,6.14990842 15.5,6.3158043 L15.5,11.3209946 C15.5,11.6993766 15.2188224,12.012086 14.8540136,12.0615765 L14.7474048,12.0683995 C14.3956196,12.0683995 14.100599,11.8253609 14.021092,11.4980326 C13.1411068,12.6550137 11.9100875,13.5342639 10.456073,14.1868286 C9.99144362,14.3956095 9.49571797,14.5 9,14.5 C8.50452583,14.5 8.00880019,14.3956095 7.54391163,14.1868286 C6.01589664,13.5009914 4.7341252,12.5647632 3.8447481,11.3188517 L3.38160054,11.318 L3.25966275,11.6220469 L3.21149523,11.7223547 C3.01287619,12.0730258 2.58072254,12.2316796 2.1961349,12.0778446 C1.81154726,11.9240095 1.60802486,11.5110852 1.70603938,11.1201724 L1.74033725,11.0143167 L2.68348147,8.65683093 C2.58000941,8.17185325 2.51824891,7.65693618 2.50191801,7.11057133 C2.43946642,5.01331965 3.90876302,3.14976622 5.93649597,3.00891778 C6.02226973,3.00314745 6.10752521,3 6.19226242,3 C7.00568782,3 7.7571799,3.27094309 8.36692503,3.7299464 L8.77549301,4.05721725 C8.88476637,4.14381683 8.97502213,4.21044118 9,4.21044118 C9.05618487,4.21044118 9.44285439,3.87315543 9.63305963,3.7299464 C10.2428048,3.27094309 10.994556,3 11.8079814,3 Z" id="路径" fill="url(#linearGradient-1)"></path>
        <path d="M3.79226379,5.9063737 C4.10104888,5.3645421 4.89895112,5.3645421 5.20773621,5.9063737 L5.25966275,6.01431672 L7.25966275,11.0143167 L7.29396062,11.1201724 C7.39197514,11.5110852 7.18845274,11.9240095 6.8038651,12.0778446 C6.41927746,12.2316796 5.98712381,12.0730258 5.78850477,11.7223547 L5.74033725,11.6220469 L5.61760054,11.318 L3.38160054,11.318 L3.25966275,11.6220469 L3.21149523,11.7223547 C3.01287619,12.0730258 2.58072254,12.2316796 2.1961349,12.0778446 C1.81154726,11.9240095 1.60802486,11.5110852 1.70603938,11.1201724 L1.74033725,11.0143167 L3.74033725,6.01431672 L3.79226379,5.9063737 Z M14.7525952,5.56839946 C15.1653755,5.56839946 15.5,5.90302401 15.5,6.3158043 L15.5,11.3209946 C15.5,11.6993766 15.2188224,12.012086 14.8540136,12.0615765 L14.7474048,12.0683995 C14.3346245,12.0683995 14,11.7337749 14,11.3209946 L14,6.3158043 C14,5.93742236 14.2811776,5.62471297 14.6459864,5.57522238 L14.7525952,5.56839946 Z M12.278543,5.62204194 C12.6310817,5.76305741 12.8176439,6.14157132 12.7277972,6.49990811 L12.6963575,6.59694247 L10.6963575,11.5969425 C10.4597046,12.1885748 9.65756287,12.2233767 9.35438185,11.7013482 L9.30364248,11.5969425 L7.30364248,6.59694247 C7.14980743,6.21235483 7.33686936,5.775877 7.72145699,5.62204194 C8.07399566,5.48102647 8.47013651,5.62645917 8.65220396,5.94790763 L8.69635752,6.03985645 L9.99952941,9.29951711 L11.3036425,6.03985645 C11.4574775,5.65526881 11.8939554,5.46820689 12.278543,5.62204194 Z M4.49952941,8.52206417 L3.98060054,9.818 L5.01760054,9.818 L4.49952941,8.52206417 Z" id="形状" fill="#FFFFFF"></path>
        <circle id="椭圆形" fill="#FFFFFF" fill-rule="nonzero" opacity="0.7" cx="5.29411765" cy="4.23529412" r="1.05882353"></circle>
    </g>
</svg>