<?xml version="1.0" encoding="UTF-8"?>
<svg width="22px" height="22px" viewBox="0 0 22 22" version="1.1" xmlns="http://www.w3.org/2000/svg" xmlns:xlink="http://www.w3.org/1999/xlink">
    <title>icon_gjdm_web_big</title>
    <defs>
        <linearGradient x1="1.28304246%" y1="1.27046363%" x2="101.999998%" y2="100.999999%" id="linearGradient-1">
            <stop stop-color="#FEFF55" offset="0%"></stop>
            <stop stop-color="#FF9A25" offset="100%"></stop>
        </linearGradient>
    </defs>
    <g id="icon_gjdm_web_big" stroke="none" stroke-width="1" fill="none" fill-rule="evenodd">
        <g id="矩形" transform="translate(2.235294, 3.235294)">
            <path d="M5.63970588,0.764705882 C5.98488385,0.764705882 6.26470588,1.04452791 6.26470588,1.38970588 L6.26470588,6.63970588 C6.26470588,6.98488385 5.98488385,7.26470588 5.63970588,7.26470588 L3.76470588,7.26470588 L3.76470588,8.26470588 L5.63970588,8.26470588 C5.98488385,8.26470588 6.26470588,8.54452791 6.26470588,8.88970588 L6.26470588,14.3808224 C6.26470588,14.5465827 6.19885786,14.7055539 6.08164762,14.8227641 L5.82276414,15.0816476 C5.70555391,15.1988579 5.54658271,15.2647059 5.38082241,15.2647059 L2.27708332,15.2647059 C1.97915768,15.2647059 1.72264842,15.0544186 1.6642204,14.7622785 L1.4142204,13.5122785 C1.34652543,13.1738036 1.56603589,12.8445379 1.90451074,12.776843 C1.94486898,12.7687713 1.98592583,12.7647059 2.02708332,12.7647059 L3.76470588,12.7647059 L3.76470588,10.7647059 L1.88970588,10.7647059 C1.54452791,10.7647059 1.26470588,10.4848839 1.26470588,10.1397059 L1.26470588,5.38970588 C1.26470588,5.04452791 1.54452791,4.76470588 1.88970588,4.76470588 L3.76470588,4.76470588 L3.76470588,3.26470588 L2.27708332,3.26470588 C1.97915768,3.26470588 1.72264842,3.05441859 1.6642204,2.76227847 L1.26470588,0.764705882 L5.63970588,0.764705882 Z M9.25232844,0.264705882 C9.55025408,0.264705882 9.80676334,0.474993175 9.86519137,0.767133298 L10.2647059,2.76470588 L13.2647059,2.76470588 L13.6642204,0.767133298 C13.7226484,0.474993175 13.9791577,0.264705882 14.2770833,0.264705882 L15.5023284,0.264705882 C15.8475064,0.264705882 16.1273284,0.544527914 16.1273284,0.889705882 C16.1273284,0.930863373 16.123263,0.971920227 16.1151914,1.01227847 L15.7647059,2.76470588 C16.0408483,2.76470588 16.2647059,2.98856351 16.2647059,3.26470588 L16.2647059,9.63970588 C16.2647059,9.98488385 15.9848839,10.2647059 15.6397059,10.2647059 L12.7647059,10.2647059 L12.7647059,11.2647059 L15.6397059,11.2647059 C15.9848839,11.2647059 16.2647059,11.5445279 16.2647059,11.8897059 L16.2647059,12.6397059 C16.2647059,12.9848839 15.9848839,13.2647059 15.6397059,13.2647059 L12.7647059,13.2647059 L12.7647059,14.6397059 C12.7647059,14.9848839 12.4848839,15.2647059 12.1397059,15.2647059 L11.3897059,15.2647059 C11.0445279,15.2647059 10.7647059,14.9848839 10.7647059,14.6397059 L10.7647059,13.2647059 L7.75269114,13.2647059 C7.46589886,13.2647059 7.21590942,13.06952 7.14635207,12.7912906 L6.76470588,11.2647059 L10.7647059,11.2647059 L10.7647059,10.2647059 L7.88970588,10.2647059 C7.54452791,10.2647059 7.26470588,9.98488385 7.26470588,9.63970588 L7.26470588,3.26470588 C7.26470588,3.01924599 7.44158104,2.81509751 7.67483025,2.77276155 L7.76470588,2.76470588 L7.26470588,0.264705882 L9.25232844,0.264705882 Z M14.2647059,7.26470588 L12.7647059,7.26470588 L12.7647059,8.76470588 L14.2647059,8.76470588 L14.2647059,7.26470588 Z M10.7647059,7.26470588 L9.26470588,7.26470588 L9.26470588,8.76470588 L10.7647059,8.76470588 L10.7647059,7.26470588 Z M10.7647059,4.26470588 L9.26470588,4.26470588 L9.26470588,5.76470588 L10.7647059,5.76470588 L10.7647059,4.26470588 Z M14.2647059,4.26470588 L12.7647059,4.26470588 L12.7647059,5.76470588 L14.2647059,5.76470588 L14.2647059,4.26470588 Z" id="形状" fill="url(#linearGradient-1)"></path>
            <polygon fill="#B14D29" opacity="0.4" transform="translate(13.647671, 11.617035) rotate(45.000000) translate(-13.647671, -11.617035) " points="12.3535534 6.61703484 14.9417887 7.74961061 14.9417887 16.6170348 12.3535534 16.6170348"></polygon>
            <rect id="矩形备份-6" fill="#FFFFFF" opacity="0.4" transform="translate(11.059436, 9.999388) rotate(45.000000) translate(-11.059436, -9.999388) " x="10.4123769" y="1.49938779" width="1.29411765" height="17"></rect>
            <rect id="矩形备份-7" fill="#FFFFFF" opacity="0.4" transform="translate(3.174634, 3.001837) rotate(45.000000) translate(-3.174634, -3.001837) " x="2.52757512" y="-0.498163358" width="1.29411765" height="7"></rect>
        </g>
        <path d="M11.4876226,2.05113636 C12.4212734,2.05113636 13.2323426,2.67353129 13.482904,3.55930745 L13.5212132,3.71828188 L13.687,4.551 L14.312,4.551 L14.4787868,3.71828188 C14.65112,2.85661606 15.3427773,2.20954981 16.1886566,2.07639516 L16.3489771,2.05752414 L16.5123774,2.05113636 L17.7376226,2.05113636 C18.8829858,2.05113636 19.8114862,2.97963674 19.8114862,4.125 C19.8114862,4.21604536 19.8054907,4.3069423 19.793558,4.39710292 L19.7712132,4.53171812 L19.599,5.389 L19.6348897,5.43882335 C19.7739078,5.65256174 19.8721478,5.89526092 19.9185802,6.15589139 L19.9435182,6.35455402 L19.9488636,6.5 L19.9488636,12.875 C19.9488636,13.2069894 19.8708548,13.5207588 19.7321672,13.7989781 L19.6418118,13.9615051 L19.615,13.999 L19.6418118,14.0384949 C19.7781152,14.2596721 19.8740492,14.508379 19.9193423,14.774344 L19.9436565,14.9768931 L19.9488636,15.125 L19.9488636,15.875 C19.9488636,16.9705649 19.0993472,17.8677145 18.0231069,17.9436565 L17.875,17.9488636 L16.446,17.948 L16.4436565,18.0231069 C16.3749817,18.9963577 15.6347481,19.7842006 14.6835196,19.9260716 L14.5231069,19.9436565 L14.375,19.9488636 L13.625,19.9488636 C12.5294351,19.9488636 11.6322855,19.0993472 11.5563435,18.0231069 L11.553,17.948 L9.9214226,17.9478056 C9.86311737,18.3131681 9.70654358,18.6580046 9.46766636,18.9444047 L9.34144304,19.0825596 L9.08255956,19.341443 C8.73684856,19.687154 8.2816498,19.898205 7.79846394,19.9408371 L7.61611652,19.9488636 L4.51237744,19.9488636 C3.57872664,19.9488636 2.7676574,19.3264687 2.51709599,18.4406925 L2.47878683,18.2817181 L2.22878683,17.0317181 C2.09775604,16.3765642 2.29100992,15.7318083 2.69773755,15.2636669 L2.81387275,15.1404957 L2.908,15.054 L2.81252169,14.980793 C2.43118289,14.668739 2.1630348,14.2235299 2.07906159,13.71615 L2.05634347,13.5231069 L2.05113636,13.375 L2.05113636,8.625 C2.05113636,8.08717725 2.2558628,7.59717092 2.59163618,7.2286605 L2.70831317,7.11042461 L2.794,7.035 L2.78135288,7.01752458 C2.69486733,6.88659119 2.62262815,6.74482495 2.567042,6.59419885 L2.51709599,6.44069255 L2.47878683,6.28171812 L2.07927232,4.28414554 C1.90850182,3.43029304 2.5223531,2.63093584 3.37100927,2.55674276 L3.5,2.55113636 L7.875,2.55113636 C8.04195004,2.55113636 8.20429251,2.57086371 8.35982353,2.60811452 C8.56737157,2.34095789 8.86810473,2.14696432 9.21811561,2.07833016 L9.37100927,2.05674276 L9.5,2.05113636 L11.4876226,2.05113636 Z M8.5,12.125 C8.5,11.8112018 8.26874212,11.5514169 7.96735792,11.5067766 L7.875,11.5 L6,11.5 L6,10.5 L7.875,10.5 L7.96735792,10.4932234 C7.99612641,10.4889623 8.02425594,10.4827409 8.05160637,10.4746993 C8.28004678,10.4059127 8.45201784,10.2145844 8.49144123,9.97862891 L8.5,9.875 L8.5,4.625 C8.5,4.31120185 8.26874212,4.05141686 7.96735792,4.0067766 L7.875,4 L3.5,4 L3.89951452,5.99757258 C3.95145054,6.25725269 4.15989519,6.45225896 4.41481774,6.49238776 L4.51237744,6.5 L6,6.5 L6,8 L4.125,8 C3.81120185,8 3.55141686,8.23125788 3.5067766,8.53264208 L3.5,8.625 L3.5,13.375 C3.5,13.6887982 3.73125788,13.9485831 4.03264208,13.9932234 L4.125,14 L6,14 L6,16 L4.26237744,16 C4.22121995,16 4.18016309,16.0040654 4.13980485,16.0121371 C3.83210045,16.073678 3.62271372,16.351393 3.63804665,16.6556792 L3.64951452,16.7475726 L3.89951452,17.9975726 C3.95145054,18.2572527 4.15989519,18.452259 4.41481774,18.4923878 L4.51237744,18.5 L7.61611652,18.5 L7.71447824,18.4922141 C7.81146571,18.4767583 7.90349113,18.4386401 7.98300058,18.3809885 L8.05805826,18.3169417 L8.31694174,18.0580583 C8.41070993,17.9642901 8.4716063,17.8437949 8.49221412,17.7144782 L8.5,17.6161165 L8.5,12.125 Z M16.5123774,3.5 C16.2475547,3.5 16.0154559,3.66615292 15.926112,3.90825514 L15.8995145,4.00242742 L15.5,6 L12.5,6 L12.1004855,4.00242742 C12.0485495,3.74274731 11.8401048,3.54774104 11.5851823,3.50761224 L11.4876226,3.5 L9.5,3.5 L10,6 L9.91012437,6.00805567 C9.70603131,6.04509963 9.54509963,6.20603131 9.50805567,6.41012437 L9.5,6.5 L9.5,12.875 C9.5,13.1574183 9.68731888,13.396086 9.94449174,13.4735381 L10.0342103,13.4933793 L10.125,13.5 L13,13.5 L13,14.5 L9,14.5 L9.38164619,16.0265848 C9.44347494,16.2738998 9.64786733,16.4556001 9.89394792,16.4929247 L9.98798525,16.5 L13,16.5 L13,17.875 C13,18.1887982 13.2312579,18.4485831 13.5326421,18.4932234 L13.625,18.5 L14.375,18.5 L14.4673579,18.4932234 C14.735255,18.4535432 14.9477436,18.243872 14.9916559,17.9773779 L15,17.875 L15,16.5 L17.875,16.5 L17.9673579,16.4932234 C18.235255,16.4535432 18.4477436,16.243872 18.4916559,15.9773779 L18.5,15.875 L18.5,15.125 C18.5,14.8112018 18.2687421,14.5514169 17.9673579,14.5067766 L17.875,14.5 L15,14.5 L15,13.5 L17.875,13.5 L17.9673579,13.4932234 C18.235255,13.4535432 18.4477436,13.243872 18.4916559,12.9773779 L18.5,12.875 L18.5,6.5 C18.5,6.25454011 18.3231248,6.05039163 18.0898756,6.00805567 L18,6 L18.3504855,4.24757258 C18.3585571,4.20721434 18.3626226,4.16615749 18.3626226,4.125 C18.3626226,3.81120185 18.1313647,3.55141686 17.8299805,3.5067766 L17.7376226,3.5 L16.5123774,3.5 Z M11.5,7.5 L13,7.5 L13,9 L11.5,9 L11.5,7.5 Z M15,7.5 L16.5,7.5 L16.5,9 L15,9 L15,7.5 Z M15,10.5 L16.5,10.5 L16.5,12 L15,12 L15,10.5 Z M11.5,10.5 L13,10.5 L13,12 L11.5,12 L11.5,10.5 Z" id="形状" fill="#B14D29" fill-rule="nonzero"></path>
        <circle id="椭圆形" fill="#FFFFFF" fill-rule="nonzero" opacity="0.7" cx="6.47058824" cy="5.17647059" r="1.29411765"></circle>
    </g>
</svg>