<?xml version="1.0" encoding="UTF-8"?>
<svg width="32px" height="32px" viewBox="0 0 32 32" version="1.1" xmlns="http://www.w3.org/2000/svg" xmlns:xlink="http://www.w3.org/1999/xlink">
    <!-- Generator: Sketch 59 (86127) - https://sketch.com -->
    <title>icon_banana_active</title>
    <desc>Created with Sketch.</desc>
    <defs>
        <path d="M6.6120138,0.274979875 L14.206675,1.72450433 L13.2419443,5.78892026 L10.5504115,5.01713567 L9.27157307,8.43578523 C9.95838718,9.45176147 10.2833971,10.5237858 10.2466027,11.6518582 C10.1914112,13.3439668 10.773864,16.1243662 13.7815242,18.1034034 C16.7891844,20.0824406 20.5714794,20.2166178 22.4819833,19.5059055 C23.7556525,19.0320972 25.1657343,19.1936951 26.7122286,19.9906992 L28.2509411,19.7037083 L29.4035425,21.9202375 L28.5556721,23.0680317 C28.4274079,24.8372157 27.4418991,26.3751496 25.5991457,27.6818334 C20.1147505,31.5707805 11.1369249,31.083488 6.48599558,27.6818334 C0.7,23.45 -1.75,14.7 1.75,9.8 C2.71210833,8.45304833 4.09782738,7.67673316 5.90715713,7.47105448 L7.18599558,4.05240492 L5.16734602,3.47356647 L6.6120138,0.274979875 Z" id="path-1"></path>
    </defs>
    <g id="icon_banana_active" stroke="none" stroke-width="1" fill="none" fill-rule="evenodd">
        <g id="icon_banana_c">
            <rect id="Rectangle-12" fill="#D8D8D8" fill-rule="nonzero" opacity="0" x="0" y="0" width="32" height="32"></rect>
            <g id="Path-3" transform="translate(15.500000, 16.000000) scale(-1, 1) translate(-15.500000, -16.000000) translate(0.500000, 0.500000)">
                <mask id="mask-2" fill="white">
                    <use xlink:href="#path-1"></use>
                </mask>
                <use id="路径" fill="#FFDF94" fill-rule="nonzero" xlink:href="#path-1"></use>
                <path d="M28.7,23.4 C27.0666667,25.0666667 24.6166667,26.25 21.35,26.95 C16.45,28 8.20342253,25.8568451 5.25,19.95 C1.98333333,13.4166667 2.33333333,9.45 6.3,8.05 L-0.3,7.9 L-0.3,30.4 L28.7,30.4 L28.7,23.4 Z" fill="#E6A146" fill-rule="nonzero" mask="url(#mask-2)"></path>
                <path d="M7,11.55 C6.76666667,13.1833333 7,14.4666667 7.7,15.4" id="Path-5" stroke="#FFFFFF" stroke-width="2.5" opacity="0.799553571" stroke-linecap="round" stroke-linejoin="round" fill-rule="nonzero" mask="url(#mask-2)"></path>
                <circle id="Oval-3" stroke="#FFFFFF" stroke-width="1.5" fill="#FFFFFF" fill-rule="nonzero" opacity="0.799553571" mask="url(#mask-2)" cx="9.8875" cy="18.8125" r="1"></circle>
                <polygon id="Path-7" fill="#C5CF1D" fill-rule="nonzero" mask="url(#mask-2)" points="12.1141954 10.3 1.5 6.08571429 6.7 0.4 14.7 0.4"></polygon>
                <polygon id="Path-7-Copy" fill="#C5CF1D" fill-rule="nonzero" mask="url(#mask-2)" transform="translate(27.992088, 20.921852) rotate(39.000000) translate(-27.992088, -20.921852) " points="31.3604286 23.9565235 23.846602 21.0337833 27.7323318 17.8871813 32.1375746 23.3272031"></polygon>
            </g>
            <path d="M7.98006785,1 L15.5747291,2.44952445 L14.6099983,6.51394039 L11.9184656,5.74215579 L10.6396271,9.16080535 C11.3264412,10.1767816 11.6514511,11.2488059 11.6146568,12.3768783 C11.5594653,14.0689869 12.1419181,16.8493863 15.1495783,18.8284235 C18.1572385,20.8074607 21.9395335,20.941638 23.8500373,20.2309256 C25.1237066,19.7571173 26.5337883,19.9187152 28.0802826,20.7157193 L29.6189951,20.4287284 L30.7715965,22.6452576 L29.9237262,23.7930518 C29.795462,25.5622359 28.8099532,27.1001698 26.9671997,28.4068536 C21.4828045,32.2958006 12.5049789,31.8085081 7.85404963,28.4068536 C2.06805405,24.1750201 -0.381945951,15.4250201 3.11805405,10.5250201 C4.08016238,9.17806846 5.46588143,8.40175329 7.27521118,8.19607461 L8.55404963,4.77742505 L6.53540006,4.1985866 L7.98006785,1 Z" id="路径" stroke="#B14D29" stroke-linejoin="round" fill-rule="nonzero" transform="translate(16.135798, 16.071938) scale(-1, 1) translate(-16.135798, -16.071938) "></path>
            <rect id="矩形" x="0" y="5.68434189e-14" width="32" height="32"></rect>
        </g>
    </g>
</svg>