<?xml version="1.0" encoding="UTF-8"?>
<svg width="20px" height="20px" viewBox="0 0 20 20" version="1.1" xmlns="http://www.w3.org/2000/svg" xmlns:xlink="http://www.w3.org/1999/xlink">
    <!-- Generator: Sketch 56.2 (81672) - https://sketch.com -->
    <title>icon_Navigation</title>
    <desc>Created with Sketch.</desc>
    <g id="icon_Navigation" stroke="none" stroke-width="1" fill="none" fill-rule="evenodd">
        <g>
            <rect id="矩形" x="0" y="0" width="20" height="20"></rect>
            <path d="M6,3 C7.65685425,3 9,4.34314575 9,6 C9,7.65685425 7.65685425,9 6,9 C4.34314575,9 3,7.65685425 3,6 C3,4.34314575 4.34314575,3 6,3 Z M6,4.3 C5.06111593,4.3 4.3,5.06111593 4.3,6 C4.3,6.93888407 5.06111593,7.7 6,7.7 C6.93888407,7.7 7.7,6.93888407 7.7,6 C7.7,5.06111593 6.93888407,4.3 6,4.3 Z M14,3 C15.6568542,3 17,4.34314575 17,6 C17,7.65685425 15.6568542,9 14,9 C12.3431458,9 11,7.65685425 11,6 C11,4.34314575 12.3431458,3 14,3 Z M14,4.3 C13.0611159,4.3 12.3,5.06111593 12.3,6 C12.3,6.93888407 13.0611159,7.7 14,7.7 C14.9388841,7.7 15.7,6.93888407 15.7,6 C15.7,5.06111593 14.9388841,4.3 14,4.3 Z M6,11 C7.65685425,11 9,12.3431458 9,14 C9,15.6568542 7.65685425,17 6,17 C4.34314575,17 3,15.6568542 3,14 C3,12.3431458 4.34314575,11 6,11 Z M6,12.3 C5.06111593,12.3 4.3,13.0611159 4.3,14 C4.3,14.9388841 5.06111593,15.7 6,15.7 C6.93888407,15.7 7.7,14.9388841 7.7,14 C7.7,13.0611159 6.93888407,12.3 6,12.3 Z M14,11 C15.6568542,11 17,12.3431458 17,14 C17,15.6568542 15.6568542,17 14,17 C12.3431458,17 11,15.6568542 11,14 C11,12.3431458 12.3431458,11 14,11 Z M14,12.3 C13.0611159,12.3 12.3,13.0611159 12.3,14 C12.3,14.9388841 13.0611159,15.7 14,15.7 C14.9388841,15.7 15.7,14.9388841 15.7,14 C15.7,13.0611159 14.9388841,12.3 14,12.3 Z" id="形状结合" fill="#909699" fill-rule="nonzero"></path>
            <rect id="矩形" x="0" y="5.68434189e-14" width="20" height="20"></rect>
        </g>
    </g>
</svg>