<?xml version="1.0" encoding="UTF-8"?>
<svg width="30px" height="30px" viewBox="0 0 30 30" version="1.1" xmlns="http://www.w3.org/2000/svg" xmlns:xlink="http://www.w3.org/1999/xlink">
    <!-- Generator: Sketch 56.2 (81672) - https://sketch.com -->
    <title>icon_share</title>
    <desc>Created with Sketch.</desc>
    <g id="icon_share" stroke="none" stroke-width="1" fill="none" fill-rule="evenodd">
        <g>
            <g id="列表icon-栅格-" opacity="0">
                <g id="列表icon-栅格-copy-3">
                    <g id="Group-5">
                        <g id="首页tab-栅格" stroke-width="0.5">
                            <g id="图标栅格－240px">
                                <g id="线" opacity="0.40123" stroke="#4A4A4A">
                                    <path d="M15,0 L15,30" id="Line"></path>
                                    <path d="M10,0 L10,30" id="Line"></path>
                                    <path d="M2.04545455,0 L2.04545455,30" id="Line"></path>
                                    <path d="M20,0 L20,30" id="Line"></path>
                                    <path d="M27.9545455,0 L27.9545455,30" id="Line"></path>
                                    <path d="M29.875,20 L-7.10542736e-15,20" id="Line" transform="translate(14.937500, 20.000000) scale(-1, -1) translate(-14.937500, -20.000000) "></path>
                                    <path d="M29.875,27.9545455 L-6.39488462e-14,27.9545455" id="Line" transform="translate(14.937500, 27.954545) scale(-1, -1) translate(-14.937500, -27.954545) "></path>
                                    <path d="M29.875,15 L-7.10542736e-15,15" id="Line" transform="translate(14.937500, 15.000000) scale(-1, -1) translate(-14.937500, -15.000000) "></path>
                                    <path d="M29.875,10 L-7.10542736e-15,10" id="Line" transform="translate(14.937500, 10.000000) scale(-1, -1) translate(-14.937500, -10.000000) "></path>
                                    <path d="M29.875,2.04545455 L-2.84217094e-14,2.04545455" id="Line" transform="translate(14.937500, 2.045455) scale(-1, -1) translate(-14.937500, -2.045455) "></path>
                                    <path d="M0,0 L30,30" id="Line"></path>
                                    <path d="M0,0 L30,30" id="Line" transform="translate(15.000000, 15.000000) scale(-1, 1) translate(-15.000000, -15.000000) "></path>
                                </g>
                                <g id="栅格" opacity="0.976213728" transform="translate(1.818182, 1.818182)" stroke="#9B9B9B">
                                    <circle id="正圆" cx="13.1818182" cy="13.1818182" r="12.7045455"></circle>
                                    <rect id="正方形" x="1.84090909" y="1.84090909" width="22.6818182" height="22.6818182" rx="0.909090909"></rect>
                                    <rect id="竖矩形" x="3.20454545" y="0.477272727" width="19.9545455" height="25.4090909" rx="0.909090909"></rect>
                                    <path d="M3.20454545,1.13419916 L3.20454545,25.2294372 C3.20454545,25.5917818 3.49839162,25.8863636 3.85984434,25.8863636 L22.503792,25.8863636 C22.8636012,25.8863636 23.1590909,25.5910797 23.1590909,25.2294372 L23.1590909,1.13419916 C23.1590909,0.771854592 22.8652447,0.477272727 22.503792,0.477272727 L3.85984434,0.477272727 C3.5000352,0.477272727 3.20454545,0.772556698 3.20454545,1.13419916 Z" id="横矩形" transform="translate(13.181818, 13.181818) scale(-1, -1) rotate(90.000000) translate(-13.181818, -13.181818) "></path>
                                    <circle id="中心圆" cx="13.1818182" cy="13.1818182" r="5.88636364"></circle>
                                </g>
                            </g>
                        </g>
                        <rect id="Rectangle" fill="#FD4C5C" opacity="0.1" x="2.04545455" y="2.04545455" width="25.9090909" height="25.9090909"></rect>
                    </g>
                </g>
            </g>
            <g id="icon_bottombar_share" transform="translate(3.363636, 1.363636)" fill="#999999" fill-rule="nonzero">
                <g id="icon_播放分享">
                    <path d="M3.13636364,21.6363636 C5.20260074,18.6411693 7.21040059,16.7245834 12.6363636,16.6363636 L12.6363636,19.5364977 C12.6363636,20.2896132 13.2468844,20.900134 14,20.900134 C14.3411705,20.900134 14.6699475,20.7722451 14.9214427,20.5417079 L22.4431778,13.646784 C23.5535023,12.6289865 23.6285103,10.9038028 22.6107128,9.79347829 C22.5573211,9.73523274 22.5014233,9.679335 22.4431778,9.62594325 L14.9214427,2.73101942 C14.3662804,2.22212068 13.5036885,2.25962468 12.9947898,2.81478694 C12.7642525,3.06628215 12.6363636,3.39505915 12.6363636,3.73622961 L12.6363636,6.63636364 C6.86659828,7.08470461 0.636363636,10.0338124 0.636363636,21.6363636 L0.896447403,22.3678492 C1.08146813,22.88822 1.65330096,23.160075 2.17367176,22.9750543 C2.42293267,22.8864282 2.62691912,22.7026428 2.74096591,22.4639403 L3.13636364,21.6363636 Z" id="Shape"></path>
                </g>
            </g>
            <rect id="矩形" x="0" y="5.68434189e-14" width="30" height="30"></rect>
        </g>
    </g>
</svg>