<?xml version="1.0" encoding="UTF-8"?>
<svg width="40px" height="40px" viewBox="0 0 40 40" version="1.1" xmlns="http://www.w3.org/2000/svg" xmlns:xlink="http://www.w3.org/1999/xlink">
    <!-- Generator: Sketch 59 (86127) - https://sketch.com -->
    <title>icon_share_bdtb</title>
    <desc>Created with Sketch.</desc>
    <g id="页面1" stroke="none" stroke-width="1" fill="none" fill-rule="evenodd">
        <g id="互动区用户信息区设计规范" transform="translate(-936.000000, -3202.000000)" fill="#2082FE">
            <g id="icon_share_bdtb" transform="translate(936.000000, 3202.000000)">
                <path d="M20,0 C31.045695,0 40,8.954305 40,20 C40,31.045695 31.045695,40 20,40 C8.954305,40 0,31.045695 0,20 C0,8.954305 8.954305,0 20,0 Z M25.4788048,10.0023925 C25.0551446,10.0005118 24.4902501,10.0007208 23.9724337,10.0010691 L23.2545568,10.0014522 C23.1299944,9.98609294 23.0139897,10.0948613 23.0273017,10.2193024 C23.0266678,13.1325396 23.0273017,16.0460902 23.0269847,18.9596408 L23.0269847,18.9596408 L21.2596563,18.9593274 C21.1905606,18.9561928 21.1154428,18.9706117 21.0704355,19.0270333 C20.9994381,19.1047698 21.0251113,19.2163593 21.020357,19.3116492 C21.0216248,22.7489806 21.0209909,26.1859987 21.0206739,29.6233302 C21.026696,29.7267699 20.9950007,29.8496436 21.073922,29.9342761 C21.1192462,29.9869363 21.1915114,30.0004148 21.2583885,29.9994744 L21.2583885,29.9994744 L27.9948664,29.9993491 C28.1930861,29.9966784 28.3907125,29.9843033 28.5841171,29.9361568 C29.1308605,29.809835 29.6256237,29.479455 29.9501833,29.0265147 C30.2329052,28.6378323 30.3859934,28.1601291 30.3840916,27.6814855 L30.3840916,27.6814855 L30.3844086,19.1837601 C30.3993054,19.0621401 30.2912245,18.9458489 30.1660282,18.9599543 L30.1660282,18.9599543 L25.6867258,18.9596408 L25.6867258,18.9596408 L25.6864088,14.3136193 L25.6864088,14.3136193 L30.1605664,14.3136895 C30.2403472,14.3150236 30.3246313,14.3178823 30.3859934,14.2609591 C30.4405092,14.2155084 30.4535043,14.1421602 30.4516026,14.0750812 C30.4509687,13.4578912 30.4516026,12.5282011 30.4509687,11.9110111 C30.4661824,11.7881373 30.3561998,11.6737268 30.2310035,11.6878322 L30.2310035,11.6878322 L25.6867258,11.6875187 C25.685141,11.1972774 25.6876766,10.7070361 25.685458,10.2171082 C25.6952835,10.1033246 25.5963942,9.99424274 25.4788048,10.0023925 Z M14.5579136,13.6005692 L13.5653227,13.6010404 C13.4387548,13.5881602 13.3250751,13.6968568 13.3373023,13.8168629 C13.3363109,17.0846733 13.3376327,20.3524837 13.3366413,23.6206082 C13.3283797,24.598878 12.9371099,25.5686656 12.2547011,26.3009542 C11.5719618,27.0451805 10.6000661,27.5453107 9.56934786,27.6728565 C9.52605703,27.7275189 9.49301059,27.7903494 9.5012722,27.8613477 C9.50292452,28.5012756 9.49895895,29.1415176 9.50325499,29.7814455 C9.50193313,29.908363 9.6291619,30.022086 9.76465228,29.9963256 C10.4169889,29.9391499 11.059742,29.782388 11.6628395,29.5392342 C12.8029414,29.0796297 13.7854119,28.295506 14.5002063,27.3382845 C14.5193732,27.3150372 14.534905,27.287706 14.5620031,27.2726267 C14.9532729,27.797889 15.4142706,28.2782276 15.9443354,28.6793999 C16.8696356,29.3871846 18.005772,29.8405061 19.1848688,29.9740208 C19.2965657,29.982817 19.4313952,30.02617 19.5245861,29.9426056 C19.5982797,29.8891997 19.6194294,29.7984097 19.6144724,29.7148453 C19.6131506,29.0965939 19.6144724,28.4783425 19.6138115,27.8600911 L19.613048,27.8184573 C19.6063393,27.746595 19.5709062,27.668406 19.4836085,27.6744272 C18.6858676,27.5858363 17.9053108,27.2999579 17.282716,26.8120797 C16.4945586,26.2029387 15.9975402,25.2944108 15.8428829,24.3466138 C15.7923218,24.0717935 15.7803062,23.7939197 15.778141,23.5156387 L15.778141,23.5156387 L15.7784423,14.0389685 C15.777451,13.9447229 15.7847212,13.8498489 15.7718331,13.7562316 C15.7536575,13.6604152 15.651544,13.5925583 15.5507524,13.6010404 C14.8888323,13.6004121 14.2269123,13.6004121 13.5653227,13.6010404 Z M23.3632716,21.5838607 C23.6233313,21.5844353 23.8745639,21.5848272 24.1199117,21.5850884 L27.7265693,21.5857414 L27.7265693,21.5857414 L27.7265693,27.6836797 C26.1655771,27.6840416 24.9220451,27.6843066 23.3610529,27.6836797 C23.3623207,25.54624 23.3578834,23.7213003 23.3632716,21.5838607 Z M19.2977188,10.0349917 C16.909163,10.0346782 14.2034638,10.0337379 11.814908,10.0356186 C11.1122238,10.0362455 10.4225347,10.377283 9.99401456,10.9270805 C9.66787019,11.3377046 9.49164447,11.8599182 9.50051915,12.3818183 C9.50020219,16.4893135 9.49925134,20.5971221 9.50115305,24.7046173 C9.49354619,24.821222 9.60416269,24.9177657 9.71953349,24.9083621 C10.3550237,24.9092121 10.9908309,24.9096159 11.6263211,24.9083621 C11.7233087,24.9133773 11.8212471,24.8453579 11.8361439,24.7481873 C11.8478711,24.6494494 11.8405812,24.5497712 11.841849,24.4510334 C11.842166,20.4165729 11.8415321,16.3824258 11.842166,12.3482788 C13.5137747,12.3476519 15.5028437,12.3476519 17.1744525,12.3482788 C17.1757203,16.4670583 17.1735016,20.5861512 17.1754033,24.7049307 C17.1690643,24.8202816 17.2774621,24.9174522 17.3925159,24.9083621 L17.3925159,24.9083621 L19.2951832,24.9083621 C19.4257677,24.9205868 19.5354334,24.7989668 19.5164162,24.6717046 L19.5164162,24.6717046 L19.5164162,10.4691248 C19.5154654,10.3769695 19.5218044,10.2845007 19.5103941,10.1926588 C19.4939126,10.0954882 19.3956572,10.026215 19.2977188,10.0349917 Z" id="形状结合"></path>
            </g>
        </g>
    </g>
</svg>