<?xml version="1.0" encoding="UTF-8"?>
<svg width="30px" height="30px" viewBox="0 0 30 30" version="1.1" xmlns="http://www.w3.org/2000/svg" xmlns:xlink="http://www.w3.org/1999/xlink">
    <!-- Generator: Sketch 56.2 (81672) - https://sketch.com -->
    <title>icon_phone</title>
    <desc>Created with Sketch.</desc>
    <g id="icon_phone" stroke="none" stroke-width="1" fill="none" fill-rule="evenodd">
        <g>
            <g id="列表icon-栅格-" opacity="0">
                <g id="列表icon-栅格-copy-3">
                    <g id="Group-5">
                        <g id="首页tab-栅格" stroke-width="0.5">
                            <g id="图标栅格－240px">
                                <g id="线" opacity="0.40123" stroke="#4A4A4A">
                                    <path d="M15,0 L15,30" id="Line"></path>
                                    <path d="M10,0 L10,30" id="Line"></path>
                                    <path d="M2.04545455,0 L2.04545455,30" id="Line"></path>
                                    <path d="M20,0 L20,30" id="Line"></path>
                                    <path d="M27.9545455,0 L27.9545455,30" id="Line"></path>
                                    <path d="M29.875,20 L-7.10542736e-15,20" id="Line" transform="translate(14.937500, 20.000000) scale(-1, -1) translate(-14.937500, -20.000000) "></path>
                                    <path d="M29.875,27.9545455 L-6.39488462e-14,27.9545455" id="Line" transform="translate(14.937500, 27.954545) scale(-1, -1) translate(-14.937500, -27.954545) "></path>
                                    <path d="M29.875,15 L-7.10542736e-15,15" id="Line" transform="translate(14.937500, 15.000000) scale(-1, -1) translate(-14.937500, -15.000000) "></path>
                                    <path d="M29.875,10 L-7.10542736e-15,10" id="Line" transform="translate(14.937500, 10.000000) scale(-1, -1) translate(-14.937500, -10.000000) "></path>
                                    <path d="M29.875,2.04545455 L-2.84217094e-14,2.04545455" id="Line" transform="translate(14.937500, 2.045455) scale(-1, -1) translate(-14.937500, -2.045455) "></path>
                                    <path d="M0,0 L30,30" id="Line"></path>
                                    <path d="M0,0 L30,30" id="Line" transform="translate(15.000000, 15.000000) scale(-1, 1) translate(-15.000000, -15.000000) "></path>
                                </g>
                                <g id="栅格" opacity="0.976213728" transform="translate(1.818182, 1.818182)" stroke="#9B9B9B">
                                    <circle id="正圆" cx="13.1818182" cy="13.1818182" r="12.7045455"></circle>
                                    <rect id="正方形" x="1.84090909" y="1.84090909" width="22.6818182" height="22.6818182" rx="0.909090909"></rect>
                                    <rect id="竖矩形" x="3.20454545" y="0.477272727" width="19.9545455" height="25.4090909" rx="0.909090909"></rect>
                                    <path d="M3.20454545,1.13419916 L3.20454545,25.2294372 C3.20454545,25.5917818 3.49839162,25.8863636 3.85984434,25.8863636 L22.503792,25.8863636 C22.8636012,25.8863636 23.1590909,25.5910797 23.1590909,25.2294372 L23.1590909,1.13419916 C23.1590909,0.771854592 22.8652447,0.477272727 22.503792,0.477272727 L3.85984434,0.477272727 C3.5000352,0.477272727 3.20454545,0.772556698 3.20454545,1.13419916 Z" id="横矩形" transform="translate(13.181818, 13.181818) scale(-1, -1) rotate(90.000000) translate(-13.181818, -13.181818) "></path>
                                    <circle id="中心圆" cx="13.1818182" cy="13.1818182" r="5.88636364"></circle>
                                </g>
                            </g>
                        </g>
                        <rect id="Rectangle" fill="#FD4C5C" opacity="0.1" x="2.04545455" y="2.04545455" width="25.9090909" height="25.9090909"></rect>
                    </g>
                </g>
            </g>
            <path d="M12,4 L18,4 C20.7614237,4 23,6.23857625 23,9 L23,21 C23,23.7614237 20.7614237,26 18,26 L12,26 C9.23857625,26 7,23.7614237 7,21 L7,9 C7,6.23857625 9.23857625,4 12,4 Z M15,20 C13.8954305,20 13,20.8954305 13,22 C13,23.1045695 13.8954305,24 15,24 C16.1045695,24 17,23.1045695 17,22 C17,20.8954305 16.1045695,20 15,20 Z" id="形状结合" fill="#999999"></path>
            <rect id="矩形" x="0" y="5.68434189e-14" width="30" height="30"></rect>
        </g>
    </g>
</svg>