<?xml version="1.0" encoding="UTF-8"?>
<svg width="18px" height="18px" viewBox="0 0 18 18" version="1.1" xmlns="http://www.w3.org/2000/svg" xmlns:xlink="http://www.w3.org/1999/xlink">
    <title>icon_gjdm_web</title>
    <defs>
        <linearGradient x1="1.28304246%" y1="8.75532041%" x2="101.999998%" y2="93.1663992%" id="linearGradient-1">
            <stop stop-color="#FEFF55" offset="0%"></stop>
            <stop stop-color="#FF9A25" offset="100%"></stop>
        </linearGradient>
    </defs>
    <g id="icon_gjdm_web" stroke="none" stroke-width="1" fill="none" fill-rule="evenodd">
        <g id="矩形-+-矩形备份-6-+-矩形备份-7蒙版" transform="translate(2.000000, 1.942401)">
            <path d="M4.48863636,1.5575991 C4.7710547,1.5575991 5,1.7865444 5,2.06896274 L5,6.04623546 C5,6.3286538 4.7710547,6.5575991 4.48863636,6.5575991 L3,6.5575991 L3,7.5575991 L4.48863636,7.5575991 C4.7710547,7.5575991 5,7.7865444 5,8.06896274 L5,11.8457853 C5,11.9814074 4.94612434,12.1114748 4.85022506,12.207374 L4.64977494,12.4078242 C4.55387566,12.5037234 4.42380832,12.5575991 4.28818625,12.5575991 L1.89926066,12.5575991 C1.66461244,12.5575991 1.46007562,12.3979016 1.40316507,12.1702594 L1.15884688,11.1929866 C1.09035038,10.9190006 1.25693255,10.6413636 1.53091858,10.5728671 C1.57148025,10.5627267 1.61313247,10.5575991 1.65494248,10.5575991 L3,10.5575991 L3,9.5575991 L1.51136364,9.5575991 C1.2289453,9.5575991 1,9.3286538 1,9.04623546 L1,5.06896274 C1,4.7865444 1.2289453,4.5575991 1.51136364,4.5575991 L3,4.5575991 L3,3.5575991 L1.89926066,3.5575991 C1.66461244,3.5575991 1.46007562,3.39790158 1.40316507,3.17025936 L1,1.5575991 L4.48863636,1.5575991 Z M7.63142994,1.0575991 C7.8515364,1.0575991 8.04694831,1.19844404 8.11655209,1.40725536 L8.5,2.5575991 L11,2.5575991 L11.3834479,1.40725536 C11.4530517,1.19844404 11.6484636,1.0575991 11.8685701,1.0575991 L12.7905209,1.0575991 C13.0729392,1.0575991 13.3018845,1.2865444 13.3018845,1.56896274 C13.3018845,1.62392517 13.2930236,1.67852817 13.275643,1.73067012 L13,2.5575991 C13.2761424,2.5575991 13.5,2.78145673 13.5,3.0575991 L13.5,8.04623546 C13.5,8.3286538 13.2710547,8.5575991 12.9886364,8.5575991 L10.5,8.5575991 L10.5,9.5575991 L12.9886364,9.5575991 C13.2710547,9.5575991 13.5,9.7865444 13.5,10.0689627 L13.5,10.5462355 C13.5,10.8286538 13.2710547,11.0575991 12.9886364,11.0575991 L10.5,11.0575991 L10.5,12.0462355 C10.5,12.3286538 10.2710547,12.5575991 9.98863636,12.5575991 L9.51136364,12.5575991 C9.2289453,12.5575991 9,12.3286538 9,12.0462355 L9,11.0575991 L6.36857006,11.0575991 C6.1484636,11.0575991 5.95305169,10.9167542 5.88344791,10.7079428 L5.5,9.5575991 L9,9.5575991 L9,8.5575991 L6.51136364,8.5575991 C6.2289453,8.5575991 6,8.3286538 6,8.04623546 L6,3.0575991 C6,2.81213921 6.17687516,2.60799073 6.41012437,2.56565477 L6.5,2.5575991 L6,1.0575991 L7.63142994,1.0575991 Z M12,6.0575991 L10.5,6.0575991 L10.5,7.5575991 L12,7.5575991 L12,6.0575991 Z M7.51136364,6.04623546 L7.5,7.5575991 L9,7.5575991 L9,6.0575991 L7.51136364,6.04623546 Z M9,3.5575991 L7.5,3.5575991 L7.5,5.0575991 L9,5.0575991 L9,3.5575991 Z M12,3.5575991 L10.5,3.5575991 L10.5,5.0575991 L12,5.0575991 L12,3.5575991 Z" id="形状" fill="url(#linearGradient-1)"></path>
            <polygon id="矩形" fill="#B14D29" opacity="0.4" transform="translate(11.584250, 9.317021) rotate(45.000000) translate(-11.584250, -9.317021) " points="10.525426 5.05921929 12.6430731 6.85730732 12.6430731 13.5748217 10.525426 13.2212684"></polygon>
            <polygon id="矩形备份-6" fill="#FFFFFF" opacity="0.4" transform="translate(9.295342, 7.881697) rotate(45.000000) translate(-9.295342, -7.881697) " points="8.76593031 0.881697218 9.82475384 1.78983215 9.82475384 14.8816972 8.76593031 14.8816972"></polygon>
            <polygon id="矩形备份-7" fill="#FFFFFF" opacity="0.4" transform="translate(2.587011, 2.553270) rotate(45.000000) translate(-2.587011, -2.553270) " points="3.11642263 -0.446729906 3.11642263 5.55327009 2.0575991 5.55327009 2.0575991 0.180651048"></polygon>
        </g>
        <path d="M9.63142994,2 C10.2354999,2 10.7766379,2.35893102 11.0155706,2.90433449 L11.0652354,3.03342849 L11.221,3.5 L12.278,3.5 L12.4347646,3.03342849 C12.6110942,2.50443981 13.0606071,2.12303528 13.5951084,2.02485825 L13.7303953,2.00629306 L13.8685701,2 L14.7905209,2 C15.6252239,2 16.3018845,2.67666055 16.3018845,3.51136364 C16.3018845,3.61965999 16.2902451,3.7274842 16.2672648,3.83299583 L16.2243263,3.98929878 L16.191,4.088 C16.3251883,4.26428928 16.4205964,4.46718485 16.4673475,4.68733667 L16.4931334,4.85553999 L16.5,5 L16.5,9.98863636 C16.5,10.3066185 16.4017998,10.6016647 16.2340716,10.845103 L16.1445462,10.9623887 L16.11,11 L16.1445462,11.0376113 C16.3062699,11.2293911 16.4211356,11.4619769 16.471492,11.7177172 L16.4938236,11.8737987 L16.5,12.0113636 L16.5,12.4886364 C16.5,13.2769671 15.8964355,13.9243277 15.1262013,13.9938236 L14.9886364,14 L13.499,14 L13.4938236,14.1262013 C13.4327762,14.8027992 12.9258243,15.3507878 12.2691101,15.4740248 L12.1262013,15.4938236 L11.9886364,15.5 L11.5113636,15.5 C10.7230329,15.5 10.0756723,14.8964355 10.0061764,14.1262013 L10,14 L8.36857006,14 C8.2386739,14 8.11168771,13.983403 7.98999065,13.9519238 C7.95946066,14.2432119 7.8433027,14.5201093 7.65653204,14.747484 L7.55733184,14.8568817 L7.35688172,15.0573318 C7.10887552,15.305338 6.78355222,15.4582512 6.43756597,15.4926044 L6.28818625,15.5 L3.89926066,15.5 C3.25197919,15.5 2.68222306,15.08884 2.47237768,14.4869999 L2.43302257,14.3551959 L2.18870438,13.3779232 C2.09492461,13.002804 2.15023728,12.6253694 2.31713221,12.3081363 L2.39538082,12.1760473 L2.465,12.078 L2.44266816,12.0573318 C2.2342849,11.8489486 2.08646967,11.5799973 2.02789458,11.2791501 L2.00617645,11.1262013 L2,10.9886364 L2,7.01136364 C2,6.59916458 2.165014,6.22550661 2.43258625,5.95284549 L2.53761127,5.85545378 L2.62,5.791 L2.58352349,5.73261426 L2.52275048,5.61296668 L2.47237768,5.48699986 L2.43302257,5.35519589 L2.0298575,3.74253563 C1.88135239,3.14851518 2.29546681,2.57199647 2.88708541,2.50622618 L3,2.5 L6.48863636,2.5 C6.6969257,2.5 6.89537393,2.54213479 7.07592257,2.61834591 C7.19422439,2.33208999 7.44381648,2.10578686 7.7601181,2.02858748 L7.88173208,2.00680107 L8,2 L9.63142994,2 Z M7,10.0113636 C7,9.76032511 6.81910495,9.55153689 6.58055462,9.50823875 L6.48863636,9.5 L5,9.5 L5,8.5 L6.48863636,8.5 L6.58055462,8.49176125 C6.78928616,8.45387537 6.95387537,8.28928616 6.99176125,8.08055462 L7,7.98863636 L7,4.01136364 C7,3.76032511 6.81910495,3.55153689 6.58055462,3.50823875 L6.48863636,3.5 L3,3.5 L3.40316507,5.11266026 C3.4529618,5.3118472 3.61578489,5.45901398 3.81290857,5.49269338 L3.89926066,5.5 L5,5.5 L5,6.5 L3.51136364,6.5 C3.26032511,6.5 3.05153689,6.68089505 3.00823875,6.91944538 L3,7.01136364 L3,10.9886364 C3,11.2396749 3.18089505,11.4484631 3.41944538,11.4917612 L3.51136364,11.5 L5,11.5 L5,12.5 L3.65494248,12.5 C3.61313247,12.5 3.57148025,12.5051276 3.53091858,12.515268 C3.28737544,12.5761538 3.12869461,12.8022864 3.1445462,13.0442155 L3.15884688,13.1353875 L3.40316507,14.1126603 C3.4529618,14.3118472 3.61578489,14.459014 3.81290857,14.4926934 L3.89926066,14.5 L6.28818625,14.5 L6.36866401,14.4936297 C6.4480174,14.480984 6.52331093,14.4497964 6.58836411,14.402627 L6.64977494,14.3502251 L6.85022506,14.1497749 C6.92694449,14.0730555 6.97676879,13.9744685 6.99362974,13.868664 L7,13.7881862 L7,10.0113636 Z M9.63142994,3 L8,3 L8.5,4.5 L8.41012437,4.50805567 C8.20603131,4.54509963 8.04509963,4.70603131 8.00805567,4.91012437 L8,5 L8,9.98863636 C8,10.2396749 8.18089505,10.4484631 8.41944538,10.4917612 L8.51136364,10.5 L11,10.5 L11,11.5 L7.5,11.5 L7.88344791,12.6503437 C7.90333471,12.7100041 7.93349155,12.7641162 7.97156011,12.8109803 L7.99819173,12.8412422 C8.07375105,12.9205623 8.1738159,12.9745752 8.28413282,12.9930076 L8.36857006,13 L11,13 L11,13.9886364 C11,14.2396749 11.1808951,14.4484631 11.4194454,14.4917612 L11.5113636,14.5 L11.9886364,14.5 L12.0805546,14.4917612 C12.2892862,14.4538754 12.4538754,14.2892862 12.4917612,14.0805546 L12.5,13.9886364 L12.5,13 L14.9886364,13 L15.0805546,12.9917612 C15.2892862,12.9538754 15.4538754,12.7892862 15.4917612,12.5805546 L15.5,12.4886364 L15.5,12.0113636 C15.5,11.7603251 15.3191049,11.5515369 15.0805546,11.5082388 L14.9886364,11.5 L12.5,11.5 L12.5,10.5 L14.9886364,10.5 L15.0805546,10.4917612 C15.2892862,10.4538754 15.4538754,10.2892862 15.4917612,10.0805546 L15.5,9.98863636 L15.5,5 C15.5,4.75454011 15.3231248,4.55039163 15.0898756,4.50805567 L15,4.5 L15.275643,3.67307102 C15.2930236,3.62092907 15.3018845,3.56632607 15.3018845,3.51136364 C15.3018845,3.26032511 15.1209894,3.05153689 14.8824391,3.00823875 L14.7905209,3 L13.8685701,3 C13.6799074,3 13.5093876,3.10347791 13.4206859,3.26453937 L13.3834479,3.34965626 L13,4.5 L10.5,4.5 L10.1165521,3.34965626 C10.0568917,3.17067512 9.90480086,3.04162848 9.72395458,3.00841069 L9.63142994,3 Z" id="形状" fill="#B14D29" fill-rule="nonzero"></path>
        <rect id="矩形" fill="#B14D29" fill-rule="nonzero" x="9.5" y="5.5" width="1.5" height="1.5"></rect>
        <rect id="矩形备份" fill="#B14D29" fill-rule="nonzero" x="12.5" y="5.5" width="1.5" height="1.5"></rect>
        <rect id="矩形备份-2" fill="#B14D29" fill-rule="nonzero" x="12.5" y="8" width="1.5" height="1.5"></rect>
        <rect id="矩形备份-3" fill="#B14D29" fill-rule="nonzero" x="9.5" y="8" width="1.5" height="1.5"></rect>
        <circle id="椭圆形" fill="#FFFFFF" fill-rule="nonzero" opacity="0.7" cx="5.29411765" cy="4.23529412" r="1.05882353"></circle>
    </g>
</svg>