<?xml version="1.0" encoding="UTF-8"?>
<svg width="30px" height="30px" viewBox="0 0 30 30" version="1.1" xmlns="http://www.w3.org/2000/svg" xmlns:xlink="http://www.w3.org/1999/xlink">
    <!-- Generator: Sketch 56.2 (81672) - https://sketch.com -->
    <title>icon_Banana</title>
    <desc>Created with Sketch.</desc>
    <g id="icon_Banana" stroke="none" stroke-width="1" fill="none" fill-rule="evenodd">
        <g>
            <g id="列表icon-栅格-" opacity="0">
                <g id="列表icon-栅格-copy-3">
                    <g id="Group-5">
                        <g id="首页tab-栅格" stroke-width="0.5">
                            <g id="图标栅格－240px">
                                <g id="线" opacity="0.40123" stroke="#4A4A4A">
                                    <path d="M15,0 L15,30" id="Line"></path>
                                    <path d="M10,0 L10,30" id="Line"></path>
                                    <path d="M2.04545455,0 L2.04545455,30" id="Line"></path>
                                    <path d="M20,0 L20,30" id="Line"></path>
                                    <path d="M27.9545455,0 L27.9545455,30" id="Line"></path>
                                    <path d="M29.875,20 L-7.10542736e-15,20" id="Line" transform="translate(14.937500, 20.000000) scale(-1, -1) translate(-14.937500, -20.000000) "></path>
                                    <path d="M29.875,27.9545455 L-6.39488462e-14,27.9545455" id="Line" transform="translate(14.937500, 27.954545) scale(-1, -1) translate(-14.937500, -27.954545) "></path>
                                    <path d="M29.875,15 L-7.10542736e-15,15" id="Line" transform="translate(14.937500, 15.000000) scale(-1, -1) translate(-14.937500, -15.000000) "></path>
                                    <path d="M29.875,10 L-7.10542736e-15,10" id="Line" transform="translate(14.937500, 10.000000) scale(-1, -1) translate(-14.937500, -10.000000) "></path>
                                    <path d="M29.875,2.04545455 L-2.84217094e-14,2.04545455" id="Line" transform="translate(14.937500, 2.045455) scale(-1, -1) translate(-14.937500, -2.045455) "></path>
                                    <path d="M0,0 L30,30" id="Line"></path>
                                    <path d="M0,0 L30,30" id="Line" transform="translate(15.000000, 15.000000) scale(-1, 1) translate(-15.000000, -15.000000) "></path>
                                </g>
                                <g id="栅格" opacity="0.976213728" transform="translate(1.818182, 1.818182)" stroke="#9B9B9B">
                                    <circle id="正圆" cx="13.1818182" cy="13.1818182" r="12.7045455"></circle>
                                    <rect id="正方形" x="1.84090909" y="1.84090909" width="22.6818182" height="22.6818182" rx="0.909090909"></rect>
                                    <rect id="竖矩形" x="3.20454545" y="0.477272727" width="19.9545455" height="25.4090909" rx="0.909090909"></rect>
                                    <path d="M3.20454545,1.13419916 L3.20454545,25.2294372 C3.20454545,25.5917818 3.49839162,25.8863636 3.85984434,25.8863636 L22.503792,25.8863636 C22.8636012,25.8863636 23.1590909,25.5910797 23.1590909,25.2294372 L23.1590909,1.13419916 C23.1590909,0.771854592 22.8652447,0.477272727 22.503792,0.477272727 L3.85984434,0.477272727 C3.5000352,0.477272727 3.20454545,0.772556698 3.20454545,1.13419916 Z" id="横矩形" transform="translate(13.181818, 13.181818) scale(-1, -1) rotate(90.000000) translate(-13.181818, -13.181818) "></path>
                                    <circle id="中心圆" cx="13.1818182" cy="13.1818182" r="5.88636364"></circle>
                                </g>
                            </g>
                        </g>
                        <rect id="Rectangle" fill="#FD4C5C" opacity="0.1" x="2.04545455" y="2.04545455" width="25.9090909" height="25.9090909"></rect>
                    </g>
                </g>
            </g>
            <g id="详情页_香蕉" transform="translate(1.045455, 2.045455)" fill-rule="nonzero">
                <g id="香蕉数" transform="translate(13.909091, 13.000000) scale(-1, 1) translate(-13.909091, -13.000000) translate(0.909091, 0.000000)">
                    <rect id="Rectangle-2" x="0" y="0" width="25.9090909" height="25.9090909"></rect>
                    <g id="Path-3" transform="translate(1.045455, 0.681818)" fill="#999999">
                        <path d="M4.61685022,4.22102051 L3.36454848,3.6771335 C3.16486843,3.59041048 3.07120682,3.35992287 3.15379383,3.15849699 L4.34201406,0.260483295 C4.41582704,0.0804568643 4.6084755,-0.0203419346 4.79845916,0.0216590794 L11.4445301,1.49095245 C11.6598994,1.53856565 11.7960813,1.75153274 11.7489429,1.96700651 L10.8995641,5.84959565 C10.8477262,6.08655183 10.5986143,6.22320761 10.370921,6.13959443 L8.59417453,5.48714039 L7.94124355,7.40443981 C8.41837287,8.17777681 8.65643683,8.99195077 8.65030878,9.84005078 C8.63859742,11.460863 9.38463502,13.1159205 11.1040778,14.309255 C12.9476558,15.5887422 15.4890912,15.9749272 16.9435574,15.4470833 C17.9230707,15.0916057 19.0022127,15.2290948 20.1616249,15.8373897 L21.1141167,15.6768845 C21.2851543,15.6480627 21.4552778,15.732756 21.535377,15.8866023 L22.3935315,17.5348557 C22.4625289,17.6673787 22.4519175,17.8273081 22.3660161,17.9495535 L21.8496381,18.6844063 C21.7496012,20.0600541 21.0146259,21.2404056 19.6737425,22.2070858 C15.8603321,24.9562795 9.29076503,24.6734355 5.62242305,21.8587741 C1.24327325,18.4987209 -0.655710413,11.7984515 1.85202715,8.1010736 C2.49921611,7.14686603 3.18524784,6.52851383 3.9200244,6.26151097 L4.61685022,4.22102051 Z M17.0370543,9.75105967 C16.8903352,9.89066774 18.3079063,8.46417416 18.5313418,8.3524564 C18.8536472,8.19130371 19.2014283,8.08562941 19.5847667,8.03086679 C19.7249667,8.01083822 19.8442778,7.9992874 19.9755962,7.99302448 C20.1126499,7.98648804 20.2437078,7.93486978 20.3484083,7.84618932 L20.8357583,7.43340798 C20.9872164,7.30512417 21.2098371,7.30730839 21.3587491,7.43853924 L23.0568147,8.93498435 C23.1585376,9.02462908 23.2079235,9.15970136 23.1880138,9.29381816 L23.0974629,9.90378969 C23.0836472,9.99685581 23.0910993,10.0918427 23.1192594,10.1816157 C23.2955619,10.743658 23.2773506,11.407282 23.0764543,12.1176135 C22.965278,12.510712 22.2391448,13.5083588 21.6919336,14.05557 C21.5357239,14.2117797 21.2824579,14.2117797 21.1262482,14.05557 C21.1199214,14.0492432 21.0935045,14.0276293 21.0551445,14.0046133 C20.9207492,13.9239762 20.8235274,13.9239762 20.6919336,14.05557 C20.5478113,14.1996923 20.3183693,14.2123999 20.1592129,14.0850748 C19.4634039,13.5284276 18.8615203,13.5494725 17.0918469,14.0003447 C14.0648925,14.7715432 12.4241955,14.3986576 10.5660937,11.4785256 L10.5716263,11.4874775 C10.3538217,11.1452131 10.7251169,10.7335267 11.0879763,10.9149564 C11.9864402,11.3641883 14.3670877,11.3567255 15.5047685,10.880968 C15.6326938,10.827472 15.7691505,10.7549942 15.9134276,10.6642805 C16.2527493,10.4509332 16.6189098,10.148938 17.0370543,9.75105967 Z" id="形状结合"></path>
                    </g>
                </g>
            </g>
            <rect id="矩形" x="0" y="5.68434189e-14" width="30" height="30"></rect>
        </g>
    </g>
</svg>