<?xml version="1.0" encoding="UTF-8"?>
<svg width="30px" height="30px" viewBox="0 0 30 30" version="1.1" xmlns="http://www.w3.org/2000/svg" xmlns:xlink="http://www.w3.org/1999/xlink">
    <!-- Generator: Sketch 56.2 (81672) - https://sketch.com -->
    <title>icon_arrow_slim_up</title>
    <desc>Created with Sketch.</desc>
    <g id="icon_arrow_slim_up" stroke="none" stroke-width="1" fill="none" fill-rule="evenodd">
        <g>
            <rect id="矩形" x="4" y="4" width="22" height="22"></rect>
            <path d="M12.0204947,15 L19.949216,23.0670861 C20.3532601,23.4781812 20.353616,24.1371425 19.9500162,24.5486738 C19.9456438,24.5531321 19.9412305,24.5575501 19.936777,24.5619273 C19.5353123,24.9565062 18.8899915,24.9509241 18.4954126,24.5494594 L9.91745069,15.8218028 C9.69498371,15.5954535 9.59489932,15.2939609 9.61724217,15 C9.59489932,14.7060391 9.69498371,14.4045465 9.91745069,14.1781972 L18.4954126,5.45054056 C18.8899915,5.04907587 19.5353123,5.0434938 19.936777,5.43807266 C19.9412305,5.44244985 19.9456438,5.44686787 19.9500162,5.45132617 C20.353616,5.86285748 20.3532601,6.5218188 19.949216,6.93291391 L12.0204947,15 Z" id="形状结合" fill="#999999" fill-rule="nonzero"></path>
            <rect id="矩形" x="0" y="0" width="30" height="30"></rect>
        </g>
    </g>
</svg>