<?xml version="1.0" encoding="UTF-8"?>
<svg width="12px" height="12px" viewBox="0 0 12 12" version="1.1" xmlns="http://www.w3.org/2000/svg" xmlns:xlink="http://www.w3.org/1999/xlink">
    <!-- Generator: Sketch 56.2 (81672) - https://sketch.com -->
    <title>icon_arrow</title>
    <desc>Created with Sketch.</desc>
    <g id="icon_arrow" stroke="none" stroke-width="1" fill="none" fill-rule="evenodd">
        <g transform="translate(6.000000, 6.000000) scale(1, -1) translate(-6.000000, -6.000000) ">
            <rect id="矩形" fill="#D8D8D8" opacity="0" x="0" y="0" width="12" height="12"></rect>
            <g id="more" transform="translate(6.000000, 6.000000) scale(1, -1) rotate(90.000000) translate(-6.000000, -6.000000) translate(2.500000, 0.500000)" fill="#999999" fill-rule="nonzero">
                <path d="M4.58578644,5.5 L0.792893219,9.29289322 C0.402368927,9.68341751 0.402368927,10.3165825 0.792893219,10.7071068 C1.18341751,11.0976311 1.81658249,11.0976311 2.20710678,10.7071068 L6.70710678,6.20710678 C7.09763107,5.81658249 7.09763107,5.18341751 6.70710678,4.79289322 L2.20710678,0.292893219 C1.81658249,-0.0976310729 1.18341751,-0.0976310729 0.792893219,0.292893219 C0.402368927,0.683417511 0.402368927,1.31658249 0.792893219,1.70710678 L4.58578644,5.5 Z" id="路径-2"></path>
            </g>
            <rect id="矩形" fill="#D8D8D8" opacity="0" x="0" y="0" width="12" height="12"></rect>
        </g>
    </g>
</svg>