<?xml version="1.0" encoding="UTF-8"?>
<svg width="40px" height="40px" viewBox="0 0 40 40" version="1.1" xmlns="http://www.w3.org/2000/svg" xmlns:xlink="http://www.w3.org/1999/xlink">
    <!-- Generator: Sketch 56.2 (81672) - https://sketch.com -->
    <title>icon_share_wb</title>
    <desc>Created with Sketch.</desc>
    <g id="icon_share_wb" stroke="none" stroke-width="1" fill="none" fill-rule="evenodd">
        <g>
            <g id="btn_share_wb">
                <circle id="绿色底" fill="#F15440" cx="20" cy="20" r="20"></circle>
                <g id="weibo-copy" transform="translate(8.000000, 9.000000)" fill="#FFFFFF" fill-rule="nonzero">
                    <path d="M19.0626603,10.1836884 C18.0617657,9.98462791 18.5487453,9.43237756 18.5487453,9.43237756 C18.5487453,9.43237756 19.528086,7.77761906 18.3548706,6.57455633 C16.9000548,5.08456364 13.3657463,6.76413104 13.3657463,6.76413104 C12.0155971,7.19340341 12.3740773,6.56824185 12.5648769,5.50432219 C12.5648769,4.25082782 12.1455791,2.12935909 8.54976663,3.38243251 C4.95777066,4.64226941 1.8727705,9.05631522 1.8727705,9.05631522 C-0.272125145,11.9894612 0.012522856,14.2563875 0.012522856,14.2563875 C0.547964238,19.2609073 5.73708623,20.6346855 9.7729815,20.9598391 C14.0189238,21.3012139 19.7504064,19.4599677 21.4875637,15.677398 C23.2254624,11.8885418 20.0673989,10.3890353 19.0626603,10.1836884 Z M10.0876676,19.5486792 C5.87173596,19.7504899 2.46436172,17.5844831 2.46436172,14.7017968 C2.46436172,11.8160235 5.87173598,9.50172459 10.0876676,9.30266413 C14.3051643,9.10360366 17.7194029,10.8845395 17.7194029,13.7643913 C17.7194029,16.6466846 14.3051369,19.352369 10.0876676,19.5486792 Z" id="形状"></path>
                    <path d="M9.74301047,10.0465779 C5.53091855,10.6072267 6.01710229,15.0940873 6.01710229,15.0940873 C6.01710229,15.0940873 5.97429522,16.514847 7.14697478,17.2385013 C9.6115608,18.7566064 12.1495382,17.8373641 13.4322775,15.9546315 C14.7150169,14.0710016 13.9627962,9.48982801 9.74301047,10.0465779 Z M8.68044523,16.3440749 C7.89458457,16.4488465 7.26009022,15.933374 7.26009022,15.1849656 C7.26009022,14.4400229 7.82348497,13.6599294 8.61010954,13.5664518 C9.51366922,13.4687042 10.102328,14.0606358 10.102328,14.8090132 C10.102328,15.553956 9.46477803,16.2427998 8.68044523,16.3440749 Z M11.1641294,13.9385055 C10.8973558,14.1649124 10.5701504,14.1336294 10.429479,13.8619535 C10.2827235,13.5973325 10.3377534,13.1726765 10.606846,12.9497661 C10.9187185,12.6854545 11.2436049,12.7616042 11.3842762,13.0266584 C11.5257115,13.2978702 11.4248188,13.7051055 11.1641294,13.9385055 Z" id="形状"></path>
                    <path d="M21.1945497,9 C21.5698248,9 21.8893472,8.72307843 21.9426261,8.36186206 C21.9494141,8.33488412 21.9527931,8.31129716 21.9527931,8.28092822 C22.5216944,3.17957572 17.7608078,4.05757433 17.7608078,4.05757433 C17.338167,4.05757433 17,4.39856475 17,4.82385002 C17,5.24241331 17.338167,5.58340373 17.7608078,5.58340373 C21.1810037,4.83060202 20.4261694,8.24050632 20.4261694,8.24050632 C20.4261392,8.66240056 20.770159,9 21.1945497,9 Z" id="路径"></path>
                    <path d="M20.5815387,0.187031626 C18.9946028,-0.208845162 17.3637654,0.13233202 16.9067541,0.225661298 C16.8717201,0.229153432 16.8382853,0.264754508 16.8057226,0.271676956 C16.7902263,0.27516909 16.7804575,0.29250606 16.7804575,0.29250606 C16.3291156,0.428389756 16,0.87284723 16,1.39808705 C16,2.02401123 16.4757639,2.53880557 17.0704397,2.53880557 C17.0704397,2.53880557 17.647206,2.45635441 18.0390047,2.29312091 C18.4275762,2.12642618 21.7121612,2.16898062 23.3446848,5.08935233 C24.2342854,7.22059728 23.7356985,8.64692809 23.6738004,8.87611017 C23.6738004,8.87611017 23.4619977,9.42999775 23.4619977,9.97513957 C23.4619977,10.6045868 23.9377325,11 24.5274948,11 C25.0211681,11 25.4350048,10.9283342 25.5563879,10.0394193 L25.5629296,10.0394193 C27.3152664,3.81667489 23.4196662,0.892780152 20.5815387,0.187031626 Z" id="路径"></path>
                </g>
            </g>
            <rect id="Rectangle" fill-opacity="0" fill="#D8D8D8" fill-rule="nonzero" x="0" y="0" width="40" height="40"></rect>
        </g>
    </g>
</svg>