<?xml version="1.0" encoding="UTF-8"?>
<svg width="14px" height="14px" viewBox="0 0 14 14" version="1.1" xmlns="http://www.w3.org/2000/svg" xmlns:xlink="http://www.w3.org/1999/xlink">
    <title>icon_点赞</title>
    <g id="icon_点赞" stroke="none" stroke-width="1" fill="none" fill-rule="evenodd">
        <path d="M9.75625,1.75 C11.64275,1.75 13.125,3.23225 13.125,5.11875 C13.125,6.8551875 11.9535938,8.17053125 10.0371387,9.92898047 L7.87815094,11.875806 C7.42780367,12.2671423 6.71852253,12.2935361 6.23035861,11.9544808 L6.111875,11.8610139 L4.20626783,10.1482363 C2.14605713,8.27941216 0.875,6.92753906 0.875,5.11875 C0.875,3.23225 2.35725,1.75 4.24375,1.75 C5.3095,1.75 6.332375,2.246125 7,3.030125 C7.667625,2.246125 8.6905,1.75 9.75625,1.75 Z M9.75625,2.91666667 C9.11033812,2.91666667 8.46437525,3.1949806 8.00789751,3.6562539 L7.88824396,3.78652025 L7,4.82959573 L6.11175604,3.78652025 C5.65307296,3.24788324 4.94838114,2.91666667 4.24375,2.91666667 C3.00158221,2.91666667 2.04166667,3.87658221 2.04166667,5.11875 C2.04166667,5.6241583 2.18464429,6.09382057 2.50160306,6.61040767 L2.92875965,7.26076753 C3.1674265,7.60426669 3.46831415,7.88898514 5.43786256,9.67541779 L6.89053285,10.9921187 C6.92607942,11.0232526 7.00823691,11.0312628 7.06596122,11.016927 L7.11290988,10.9951714 L10.051034,8.31787473 C10.6758626,7.73855851 10.88463,7.52077427 11.0324209,7.31923932 L11.3749407,6.80147041 C11.7784481,6.20755744 11.9583333,5.68567123 11.9583333,5.11875 C11.9583333,3.87658221 10.9984178,2.91666667 9.75625,2.91666667 Z" id="Page-1-Copy" fill="#FFFFFF" fill-rule="nonzero"></path>
    </g>
</svg>