<?xml version="1.0" encoding="UTF-8"?>
<svg width="18px" height="18px" viewBox="0 0 18 18" version="1.1" xmlns="http://www.w3.org/2000/svg" xmlns:xlink="http://www.w3.org/1999/xlink">
    <!-- Generator: Sketch 52.5 (67469) - http://www.bohemiancoding.com/sketch -->
    <title>web_dbxxl_xx</title>
    <desc>Created with Sketch.</desc>
    <g id="web_dbxxl_xx" stroke="none" stroke-width="1" fill="none" fill-rule="evenodd">
        <g fill="#909699" id="icon私信">
            <g>
                <path d="M0.7,8.96437995 C0.7,4.91888181 4.46244887,1.7 9.03366946,1.7 C10.5366372,1.7 11.9862168,2.04845195 13.25459,2.7002044 C13.6475694,2.90213652 13.8024451,3.38441009 13.6005146,3.77739256 C13.398584,4.17037503 12.9163142,4.32525194 12.5233348,4.12331981 C11.4818895,3.58817408 10.2830692,3.3 9.03366946,3.3 C5.29551376,3.3 2.29998754,5.86275771 2.29998754,8.96437995 C2.29998754,10.5752858 3.09003829,12.0603692 4.48670961,13.1317313 C4.65386334,13.259952 4.76369459,13.4489314 4.79235842,13.657641 C4.90391233,14.4698975 4.97181681,14.9119187 5.06144455,15.3451987 C5.08845494,15.4757728 5.11516837,15.5911209 5.14083248,15.6888564 C5.70557589,15.6481517 6.16996851,15.496427 6.64207348,15.2417949 C6.79199919,15.1609317 7.25383929,14.8827852 7.27574723,14.870274 C7.59902138,14.685658 7.84010925,14.5918206 8.14332597,14.5918206 L8.31454588,14.5918206 C8.43013425,14.5918206 8.51631228,14.5972889 8.70601744,14.6130302 C8.85019109,14.6249934 8.90954997,14.6287599 8.9651815,14.6287599 C12.7033372,14.6287599 15.6988634,12.0660022 15.6990095,8.94909135 C15.7136137,8.18503695 15.5448013,7.44391199 15.2063729,6.75516381 C15.011525,6.35862183 15.175028,5.87920444 15.5715668,5.6843551 C15.9681057,5.48950576 16.4475194,5.65300994 16.6423672,6.04955192 C17.0920235,6.96466395 17.3182371,7.95779319 17.298851,8.96437995 C17.298851,13.0098781 13.5364021,16.2287599 8.9651815,16.2287599 C8.84959313,16.2287599 8.7634151,16.2232916 8.57370994,16.2075503 C8.42953629,16.1955871 8.37017741,16.1918206 8.31454588,16.1918206 L8.14332597,16.1918206 C8.19857959,16.1918206 8.16538677,16.2047401 8.06919526,16.2596733 C8.07732129,16.2550326 7.59183499,16.5474203 7.40159775,16.6500257 C6.62351221,17.0696899 5.82168163,17.3 4.82165987,17.3 L4.68468395,17.3 C3.89979604,17.3 3.75136478,16.9104307 3.49462882,15.6693132 C3.40823078,15.2516463 3.34312305,14.8469014 3.25114866,14.1918071 C1.63375735,12.8418919 0.7,10.9853671 0.7,8.96437995 Z" id="Shape" fill-rule="nonzero"></path>
                <circle id="Oval-7-Copy" cx="4.8" cy="9" r="1.2"></circle>
                <circle id="Oval-7-Copy-2" cx="9" cy="9" r="1.2"></circle>
                <circle id="Oval-7-Copy-3" cx="13.2" cy="9" r="1.2"></circle>
            </g>
        </g>
    </g>
</svg>