<?xml version="1.0" encoding="UTF-8"?>
<svg width="20px" height="20px" viewBox="0 0 20 20" version="1.1" xmlns="http://www.w3.org/2000/svg" xmlns:xlink="http://www.w3.org/1999/xlink">
    <!-- Generator: Sketch 56.2 (81672) - https://sketch.com -->
    <title>icon_upload</title>
    <desc>Created with Sketch.</desc>
    <g id="icon_upload" stroke="none" stroke-width="1" fill="none" fill-rule="evenodd">
        <g>
            <rect id="矩形" x="0" y="0" width="20" height="20"></rect>
            <g id="图标栅格－240px" opacity="0" transform="translate(1.000000, 1.000000)">
                <g opacity="0.344935826">
                    <g id="底" opacity="0.4" stroke="#4A4A4A" stroke-width="0.5">
                        <path d="M2,1.75 L2.25,1.75 L2,1.5 L2,1.75 Z M2,2 L2,2.25 L2.25,2 L2,2 Z M1.75,2 L1.5,2 L1.75,2.25 L1.75,2 Z M1.75,1.75 L1.75,1.5 L1.5,1.75 L1.75,1.75 Z M1.25,2.5 L1.5,2.5 L1.25,2.25 L1.25,2.5 Z M1.25,2.75 L1.25,3 L1.5,2.75 L1.25,2.75 Z M1,2.75 L0.75,2.75 L1,3 L1,2.75 Z M1,2.5 L1,2.25 L0.75,2.5 L1,2.5 Z M0.5,1.75 L0.75,1.75 L0.5,1.5 L0.5,1.75 Z M0.5,2 L0.5,2.25 L0.75,2 L0.5,2 Z M0.25,2 L0,2 L0.25,2.25 L0.25,2 Z M0.25,1.75 L0.25,1.5 L0,1.75 L0.25,1.75 Z M2.75,2.5 L3,2.5 L2.75,2.25 L2.75,2.5 Z M2.75,2.75 L2.75,3 L3,2.75 L2.75,2.75 Z M2.5,2.75 L2.25,2.75 L2.5,3 L2.5,2.75 Z M2.5,2.5 L2.5,2.25 L2.25,2.5 L2.5,2.5 Z M11,1.75 L11.25,1.75 L11,1.5 L11,1.75 Z M11,2 L11,2.25 L11.25,2 L11,2 Z M10.75,2 L10.5,2 L10.75,2.25 L10.75,2 Z M10.75,1.75 L10.75,1.5 L10.5,1.75 L10.75,1.75 Z M11.75,2.5 L12,2.5 L11.75,2.25 L11.75,2.5 Z M11.75,2.75 L11.75,3 L12,2.75 L11.75,2.75 Z M11.5,2.75 L11.25,2.75 L11.5,3 L11.5,2.75 Z M11.5,2.5 L11.5,2.25 L11.25,2.5 L11.5,2.5 Z M6.5,1.75 L6.75,1.75 L6.5,1.5 L6.5,1.75 Z M6.5,2 L6.5,2.25 L6.75,2 L6.5,2 Z M6.25,2 L6,2 L6.25,2.25 L6.25,2 Z M6.25,1.75 L6.25,1.5 L6,1.75 L6.25,1.75 Z M7.25,2.5 L7.5,2.5 L7.25,2.25 L7.25,2.5 Z M7.25,2.75 L7.25,3 L7.5,2.75 L7.25,2.75 Z M7,2.75 L6.75,2.75 L7,3 L7,2.75 Z M7,2.5 L7,2.25 L6.75,2.5 L7,2.5 Z M15.5,1.75 L15.75,1.75 L15.5,1.5 L15.5,1.75 Z M15.5,2 L15.5,2.25 L15.75,2 L15.5,2 Z M15.25,2 L15,2 L15.25,2.25 L15.25,2 Z M15.25,1.75 L15.25,1.5 L15,1.75 L15.25,1.75 Z M16.25,2.5 L16.5,2.5 L16.25,2.25 L16.25,2.5 Z M16.25,2.75 L16.25,3 L16.5,2.75 L16.25,2.75 Z M16,2.75 L15.75,2.75 L16,3 L16,2.75 Z M16,2.5 L16,2.25 L15.75,2.5 L16,2.5 Z M17,1.75 L17.25,1.75 L17,1.5 L17,1.75 Z M17,2 L17,2.25 L17.25,2 L17,2 Z M16.75,2 L16.5,2 L16.75,2.25 L16.75,2 Z M16.75,1.75 L16.75,1.5 L16.5,1.75 L16.75,1.75 Z M17.75,2.5 L18,2.5 L17.75,2.25 L17.75,2.5 Z M17.75,2.75 L17.75,3 L18,2.75 L17.75,2.75 Z M17.5,2.75 L17.25,2.75 L17.5,3 L17.5,2.75 Z M17.5,2.5 L17.5,2.25 L17.25,2.5 L17.5,2.5 Z M5,1.75 L5.25,1.75 L5,1.5 L5,1.75 Z M5,2 L5,2.25 L5.25,2 L5,2 Z M4.75,2 L4.5,2 L4.75,2.25 L4.75,2 Z M4.75,1.75 L4.75,1.5 L4.5,1.75 L4.75,1.75 Z M5.75,2.5 L6,2.5 L5.75,2.25 L5.75,2.5 Z M5.75,2.75 L5.75,3 L6,2.75 L5.75,2.75 Z M5.5,2.75 L5.25,2.75 L5.5,3 L5.5,2.75 Z M5.5,2.5 L5.5,2.25 L5.25,2.5 L5.5,2.5 Z M14,1.75 L14.25,1.75 L14,1.5 L14,1.75 Z M14,2 L14,2.25 L14.25,2 L14,2 Z M13.75,2 L13.5,2 L13.75,2.25 L13.75,2 Z M13.75,1.75 L13.75,1.5 L13.5,1.75 L13.75,1.75 Z M14.75,2.5 L15,2.5 L14.75,2.25 L14.75,2.5 Z M14.75,2.75 L14.75,3 L15,2.75 L14.75,2.75 Z M14.5,2.75 L14.25,2.75 L14.5,3 L14.5,2.75 Z M14.5,2.5 L14.5,2.25 L14.25,2.5 L14.5,2.5 Z M9.5,1.75 L9.75,1.75 L9.5,1.5 L9.5,1.75 Z M9.5,2 L9.5,2.25 L9.75,2 L9.5,2 Z M9.25,2 L9,2 L9.25,2.25 L9.25,2 Z M9.25,1.75 L9.25,1.5 L9,1.75 L9.25,1.75 Z M10.25,2.5 L10.5,2.5 L10.25,2.25 L10.25,2.5 Z M10.25,2.75 L10.25,3 L10.5,2.75 L10.25,2.75 Z M10,2.75 L9.75,2.75 L10,3 L10,2.75 Z M10,2.5 L10,2.25 L9.75,2.5 L10,2.5 Z M3.5,1.75 L3.75,1.75 L3.5,1.5 L3.5,1.75 Z M3.5,2 L3.5,2.25 L3.75,2 L3.5,2 Z M3.25,2 L3,2 L3.25,2.25 L3.25,2 Z M3.25,1.75 L3.25,1.5 L3,1.75 L3.25,1.75 Z M4.25,2.5 L4.5,2.5 L4.25,2.25 L4.25,2.5 Z M4.25,2.75 L4.25,3 L4.5,2.75 L4.25,2.75 Z M4,2.75 L3.75,2.75 L4,3 L4,2.75 Z M4,2.5 L4,2.25 L3.75,2.5 L4,2.5 Z M12.5,1.75 L12.75,1.75 L12.5,1.5 L12.5,1.75 Z M12.5,2 L12.5,2.25 L12.75,2 L12.5,2 Z M12.25,2 L12,2 L12.25,2.25 L12.25,2 Z M12.25,1.75 L12.25,1.5 L12,1.75 L12.25,1.75 Z M13.25,2.5 L13.5,2.5 L13.25,2.25 L13.25,2.5 Z M13.25,2.75 L13.25,3 L13.5,2.75 L13.25,2.75 Z M13,2.75 L12.75,2.75 L13,3 L13,2.75 Z M13,2.5 L13,2.25 L12.75,2.5 L13,2.5 Z M8,1.75 L8.25,1.75 L8,1.5 L8,1.75 Z M8,2 L8,2.25 L8.25,2 L8,2 Z M7.75,2 L7.5,2 L7.75,2.25 L7.75,2 Z M7.75,1.75 L7.75,1.5 L7.5,1.75 L7.75,1.75 Z M8.75,2.5 L9,2.5 L8.75,2.25 L8.75,2.5 Z M8.75,2.75 L8.75,3 L9,2.75 L8.75,2.75 Z M8.5,2.75 L8.25,2.75 L8.5,3 L8.5,2.75 Z M8.5,2.5 L8.5,2.25 L8.25,2.5 L8.5,2.5 Z M2,3.25 L2.25,3.25 L2,3 L2,3.25 Z M2,3.5 L2,3.75 L2.25,3.5 L2,3.5 Z M1.75,3.5 L1.5,3.5 L1.75,3.75 L1.75,3.5 Z M1.75,3.25 L1.75,3 L1.5,3.25 L1.75,3.25 Z M1.25,4 L1.5,4 L1.25,3.75 L1.25,4 Z M1.25,4.25 L1.25,4.5 L1.5,4.25 L1.25,4.25 Z M1,4.25 L0.75,4.25 L1,4.5 L1,4.25 Z M1,4 L1,3.75 L0.75,4 L1,4 Z M0.5,3.25 L0.75,3.25 L0.5,3 L0.5,3.25 Z M0.5,3.5 L0.5,3.75 L0.75,3.5 L0.5,3.5 Z M0.25,3.5 L0,3.5 L0.25,3.75 L0.25,3.5 Z M0.25,3.25 L0.25,3 L0,3.25 L0.25,3.25 Z M2.75,4 L3,4 L2.75,3.75 L2.75,4 Z M2.75,4.25 L2.75,4.5 L3,4.25 L2.75,4.25 Z M2.5,4.25 L2.25,4.25 L2.5,4.5 L2.5,4.25 Z M2.5,4 L2.5,3.75 L2.25,4 L2.5,4 Z M11,3.25 L11.25,3.25 L11,3 L11,3.25 Z M11,3.5 L11,3.75 L11.25,3.5 L11,3.5 Z M10.75,3.5 L10.5,3.5 L10.75,3.75 L10.75,3.5 Z M10.75,3.25 L10.75,3 L10.5,3.25 L10.75,3.25 Z M11.75,4 L12,4 L11.75,3.75 L11.75,4 Z M11.75,4.25 L11.75,4.5 L12,4.25 L11.75,4.25 Z M11.5,4.25 L11.25,4.25 L11.5,4.5 L11.5,4.25 Z M11.5,4 L11.5,3.75 L11.25,4 L11.5,4 Z M6.5,3.25 L6.75,3.25 L6.5,3 L6.5,3.25 Z M6.5,3.5 L6.5,3.75 L6.75,3.5 L6.5,3.5 Z M6.25,3.5 L6,3.5 L6.25,3.75 L6.25,3.5 Z M6.25,3.25 L6.25,3 L6,3.25 L6.25,3.25 Z M7.25,4 L7.5,4 L7.25,3.75 L7.25,4 Z M7.25,4.25 L7.25,4.5 L7.5,4.25 L7.25,4.25 Z M7,4.25 L6.75,4.25 L7,4.5 L7,4.25 Z M7,4 L7,3.75 L6.75,4 L7,4 Z M15.5,3.25 L15.75,3.25 L15.5,3 L15.5,3.25 Z M15.5,3.5 L15.5,3.75 L15.75,3.5 L15.5,3.5 Z M15.25,3.5 L15,3.5 L15.25,3.75 L15.25,3.5 Z M15.25,3.25 L15.25,3 L15,3.25 L15.25,3.25 Z M16.25,4 L16.5,4 L16.25,3.75 L16.25,4 Z M16.25,4.25 L16.25,4.5 L16.5,4.25 L16.25,4.25 Z M16,4.25 L15.75,4.25 L16,4.5 L16,4.25 Z M16,4 L16,3.75 L15.75,4 L16,4 Z M17,3.25 L17.25,3.25 L17,3 L17,3.25 Z M17,3.5 L17,3.75 L17.25,3.5 L17,3.5 Z M16.75,3.5 L16.5,3.5 L16.75,3.75 L16.75,3.5 Z M16.75,3.25 L16.75,3 L16.5,3.25 L16.75,3.25 Z M17.75,4 L18,4 L17.75,3.75 L17.75,4 Z M17.75,4.25 L17.75,4.5 L18,4.25 L17.75,4.25 Z M17.5,4.25 L17.25,4.25 L17.5,4.5 L17.5,4.25 Z M17.5,4 L17.5,3.75 L17.25,4 L17.5,4 Z M5,3.25 L5.25,3.25 L5,3 L5,3.25 Z M5,3.5 L5,3.75 L5.25,3.5 L5,3.5 Z M4.75,3.5 L4.5,3.5 L4.75,3.75 L4.75,3.5 Z M4.75,3.25 L4.75,3 L4.5,3.25 L4.75,3.25 Z M5.75,4 L6,4 L5.75,3.75 L5.75,4 Z M5.75,4.25 L5.75,4.5 L6,4.25 L5.75,4.25 Z M5.5,4.25 L5.25,4.25 L5.5,4.5 L5.5,4.25 Z M5.5,4 L5.5,3.75 L5.25,4 L5.5,4 Z M14,3.25 L14.25,3.25 L14,3 L14,3.25 Z M14,3.5 L14,3.75 L14.25,3.5 L14,3.5 Z M13.75,3.5 L13.5,3.5 L13.75,3.75 L13.75,3.5 Z M13.75,3.25 L13.75,3 L13.5,3.25 L13.75,3.25 Z M14.75,4 L15,4 L14.75,3.75 L14.75,4 Z M14.75,4.25 L14.75,4.5 L15,4.25 L14.75,4.25 Z M14.5,4.25 L14.25,4.25 L14.5,4.5 L14.5,4.25 Z M14.5,4 L14.5,3.75 L14.25,4 L14.5,4 Z M9.5,3.25 L9.75,3.25 L9.5,3 L9.5,3.25 Z M9.5,3.5 L9.5,3.75 L9.75,3.5 L9.5,3.5 Z M9.25,3.5 L9,3.5 L9.25,3.75 L9.25,3.5 Z M9.25,3.25 L9.25,3 L9,3.25 L9.25,3.25 Z M10.25,4 L10.5,4 L10.25,3.75 L10.25,4 Z M10.25,4.25 L10.25,4.5 L10.5,4.25 L10.25,4.25 Z M10,4.25 L9.75,4.25 L10,4.5 L10,4.25 Z M10,4 L10,3.75 L9.75,4 L10,4 Z M3.5,3.25 L3.75,3.25 L3.5,3 L3.5,3.25 Z M3.5,3.5 L3.5,3.75 L3.75,3.5 L3.5,3.5 Z M3.25,3.5 L3,3.5 L3.25,3.75 L3.25,3.5 Z M3.25,3.25 L3.25,3 L3,3.25 L3.25,3.25 Z M4.25,4 L4.5,4 L4.25,3.75 L4.25,4 Z M4.25,4.25 L4.25,4.5 L4.5,4.25 L4.25,4.25 Z M4,4.25 L3.75,4.25 L4,4.5 L4,4.25 Z M4,4 L4,3.75 L3.75,4 L4,4 Z M12.5,3.25 L12.75,3.25 L12.5,3 L12.5,3.25 Z M12.5,3.5 L12.5,3.75 L12.75,3.5 L12.5,3.5 Z M12.25,3.5 L12,3.5 L12.25,3.75 L12.25,3.5 Z M12.25,3.25 L12.25,3 L12,3.25 L12.25,3.25 Z M13.25,4 L13.5,4 L13.25,3.75 L13.25,4 Z M13.25,4.25 L13.25,4.5 L13.5,4.25 L13.25,4.25 Z M13,4.25 L12.75,4.25 L13,4.5 L13,4.25 Z M13,4 L13,3.75 L12.75,4 L13,4 Z M8,3.25 L8.25,3.25 L8,3 L8,3.25 Z M8,3.5 L8,3.75 L8.25,3.5 L8,3.5 Z M7.75,3.5 L7.5,3.5 L7.75,3.75 L7.75,3.5 Z M7.75,3.25 L7.75,3 L7.5,3.25 L7.75,3.25 Z M8.75,4 L9,4 L8.75,3.75 L8.75,4 Z M8.75,4.25 L8.75,4.5 L9,4.25 L8.75,4.25 Z M8.5,4.25 L8.25,4.25 L8.5,4.5 L8.5,4.25 Z M8.5,4 L8.5,3.75 L8.25,4 L8.5,4 Z M2,4.75 L2.25,4.75 L2,4.5 L2,4.75 Z M2,5 L2,5.25 L2.25,5 L2,5 Z M1.75,5 L1.5,5 L1.75,5.25 L1.75,5 Z M1.75,4.75 L1.75,4.5 L1.5,4.75 L1.75,4.75 Z M1.25,5.5 L1.5,5.5 L1.25,5.25 L1.25,5.5 Z M1.25,5.75 L1.25,6 L1.5,5.75 L1.25,5.75 Z M1,5.75 L0.75,5.75 L1,6 L1,5.75 Z M1,5.5 L1,5.25 L0.75,5.5 L1,5.5 Z M0.5,4.75 L0.75,4.75 L0.5,4.5 L0.5,4.75 Z M0.5,5 L0.5,5.25 L0.75,5 L0.5,5 Z M0.25,5 L0,5 L0.25,5.25 L0.25,5 Z M0.25,4.75 L0.25,4.5 L0,4.75 L0.25,4.75 Z M2.75,5.5 L3,5.5 L2.75,5.25 L2.75,5.5 Z M2.75,5.75 L2.75,6 L3,5.75 L2.75,5.75 Z M2.5,5.75 L2.25,5.75 L2.5,6 L2.5,5.75 Z M2.5,5.5 L2.5,5.25 L2.25,5.5 L2.5,5.5 Z M11,4.75 L11.25,4.75 L11,4.5 L11,4.75 Z M11,5 L11,5.25 L11.25,5 L11,5 Z M10.75,5 L10.5,5 L10.75,5.25 L10.75,5 Z M10.75,4.75 L10.75,4.5 L10.5,4.75 L10.75,4.75 Z M11.75,5.5 L12,5.5 L11.75,5.25 L11.75,5.5 Z M11.75,5.75 L11.75,6 L12,5.75 L11.75,5.75 Z M11.5,5.75 L11.25,5.75 L11.5,6 L11.5,5.75 Z M11.5,5.5 L11.5,5.25 L11.25,5.5 L11.5,5.5 Z M6.5,4.75 L6.75,4.75 L6.5,4.5 L6.5,4.75 Z M6.5,5 L6.5,5.25 L6.75,5 L6.5,5 Z M6.25,5 L6,5 L6.25,5.25 L6.25,5 Z M6.25,4.75 L6.25,4.5 L6,4.75 L6.25,4.75 Z M7.25,5.5 L7.5,5.5 L7.25,5.25 L7.25,5.5 Z M7.25,5.75 L7.25,6 L7.5,5.75 L7.25,5.75 Z M7,5.75 L6.75,5.75 L7,6 L7,5.75 Z M7,5.5 L7,5.25 L6.75,5.5 L7,5.5 Z M15.5,4.75 L15.75,4.75 L15.5,4.5 L15.5,4.75 Z M15.5,5 L15.5,5.25 L15.75,5 L15.5,5 Z M15.25,5 L15,5 L15.25,5.25 L15.25,5 Z M15.25,4.75 L15.25,4.5 L15,4.75 L15.25,4.75 Z M16.25,5.5 L16.5,5.5 L16.25,5.25 L16.25,5.5 Z M16.25,5.75 L16.25,6 L16.5,5.75 L16.25,5.75 Z M16,5.75 L15.75,5.75 L16,6 L16,5.75 Z M16,5.5 L16,5.25 L15.75,5.5 L16,5.5 Z M17,4.75 L17.25,4.75 L17,4.5 L17,4.75 Z M17,5 L17,5.25 L17.25,5 L17,5 Z M16.75,5 L16.5,5 L16.75,5.25 L16.75,5 Z M16.75,4.75 L16.75,4.5 L16.5,4.75 L16.75,4.75 Z M17.75,5.5 L18,5.5 L17.75,5.25 L17.75,5.5 Z M17.75,5.75 L17.75,6 L18,5.75 L17.75,5.75 Z M17.5,5.75 L17.25,5.75 L17.5,6 L17.5,5.75 Z M17.5,5.5 L17.5,5.25 L17.25,5.5 L17.5,5.5 Z M5,4.75 L5.25,4.75 L5,4.5 L5,4.75 Z M5,5 L5,5.25 L5.25,5 L5,5 Z M4.75,5 L4.5,5 L4.75,5.25 L4.75,5 Z M4.75,4.75 L4.75,4.5 L4.5,4.75 L4.75,4.75 Z M5.75,5.5 L6,5.5 L5.75,5.25 L5.75,5.5 Z M5.75,5.75 L5.75,6 L6,5.75 L5.75,5.75 Z M5.5,5.75 L5.25,5.75 L5.5,6 L5.5,5.75 Z M5.5,5.5 L5.5,5.25 L5.25,5.5 L5.5,5.5 Z M14,4.75 L14.25,4.75 L14,4.5 L14,4.75 Z M14,5 L14,5.25 L14.25,5 L14,5 Z M13.75,5 L13.5,5 L13.75,5.25 L13.75,5 Z M13.75,4.75 L13.75,4.5 L13.5,4.75 L13.75,4.75 Z M14.75,5.5 L15,5.5 L14.75,5.25 L14.75,5.5 Z M14.75,5.75 L14.75,6 L15,5.75 L14.75,5.75 Z M14.5,5.75 L14.25,5.75 L14.5,6 L14.5,5.75 Z M14.5,5.5 L14.5,5.25 L14.25,5.5 L14.5,5.5 Z M9.5,4.75 L9.75,4.75 L9.5,4.5 L9.5,4.75 Z M9.5,5 L9.5,5.25 L9.75,5 L9.5,5 Z M9.25,5 L9,5 L9.25,5.25 L9.25,5 Z M9.25,4.75 L9.25,4.5 L9,4.75 L9.25,4.75 Z M10.25,5.5 L10.5,5.5 L10.25,5.25 L10.25,5.5 Z M10.25,5.75 L10.25,6 L10.5,5.75 L10.25,5.75 Z M10,5.75 L9.75,5.75 L10,6 L10,5.75 Z M10,5.5 L10,5.25 L9.75,5.5 L10,5.5 Z M3.5,4.75 L3.75,4.75 L3.5,4.5 L3.5,4.75 Z M3.5,5 L3.5,5.25 L3.75,5 L3.5,5 Z M3.25,5 L3,5 L3.25,5.25 L3.25,5 Z M3.25,4.75 L3.25,4.5 L3,4.75 L3.25,4.75 Z M4.25,5.5 L4.5,5.5 L4.25,5.25 L4.25,5.5 Z M4.25,5.75 L4.25,6 L4.5,5.75 L4.25,5.75 Z M4,5.75 L3.75,5.75 L4,6 L4,5.75 Z M4,5.5 L4,5.25 L3.75,5.5 L4,5.5 Z M12.5,4.75 L12.75,4.75 L12.5,4.5 L12.5,4.75 Z M12.5,5 L12.5,5.25 L12.75,5 L12.5,5 Z M12.25,5 L12,5 L12.25,5.25 L12.25,5 Z M12.25,4.75 L12.25,4.5 L12,4.75 L12.25,4.75 Z M13.25,5.5 L13.5,5.5 L13.25,5.25 L13.25,5.5 Z M13.25,5.75 L13.25,6 L13.5,5.75 L13.25,5.75 Z M13,5.75 L12.75,5.75 L13,6 L13,5.75 Z M13,5.5 L13,5.25 L12.75,5.5 L13,5.5 Z M8,4.75 L8.25,4.75 L8,4.5 L8,4.75 Z M8,5 L8,5.25 L8.25,5 L8,5 Z M7.75,5 L7.5,5 L7.75,5.25 L7.75,5 Z M7.75,4.75 L7.75,4.5 L7.5,4.75 L7.75,4.75 Z M8.75,5.5 L9,5.5 L8.75,5.25 L8.75,5.5 Z M8.75,5.75 L8.75,6 L9,5.75 L8.75,5.75 Z M8.5,5.75 L8.25,5.75 L8.5,6 L8.5,5.75 Z M8.5,5.5 L8.5,5.25 L8.25,5.5 L8.5,5.5 Z M2,6.25 L2.25,6.25 L2,6 L2,6.25 Z M2,6.5 L2,6.75 L2.25,6.5 L2,6.5 Z M1.75,6.5 L1.5,6.5 L1.75,6.75 L1.75,6.5 Z M1.75,6.25 L1.75,6 L1.5,6.25 L1.75,6.25 Z M1.25,7 L1.5,7 L1.25,6.75 L1.25,7 Z M1.25,7.25 L1.25,7.5 L1.5,7.25 L1.25,7.25 Z M1,7.25 L0.75,7.25 L1,7.5 L1,7.25 Z M1,7 L1,6.75 L0.75,7 L1,7 Z M0.5,6.25 L0.75,6.25 L0.5,6 L0.5,6.25 Z M0.5,6.5 L0.5,6.75 L0.75,6.5 L0.5,6.5 Z M0.25,6.5 L0,6.5 L0.25,6.75 L0.25,6.5 Z M0.25,6.25 L0.25,6 L0,6.25 L0.25,6.25 Z M2.75,7 L3,7 L2.75,6.75 L2.75,7 Z M2.75,7.25 L2.75,7.5 L3,7.25 L2.75,7.25 Z M2.5,7.25 L2.25,7.25 L2.5,7.5 L2.5,7.25 Z M2.5,7 L2.5,6.75 L2.25,7 L2.5,7 Z M11,6.25 L11.25,6.25 L11,6 L11,6.25 Z M11,6.5 L11,6.75 L11.25,6.5 L11,6.5 Z M10.75,6.5 L10.5,6.5 L10.75,6.75 L10.75,6.5 Z M10.75,6.25 L10.75,6 L10.5,6.25 L10.75,6.25 Z M11.75,7 L12,7 L11.75,6.75 L11.75,7 Z M11.75,7.25 L11.75,7.5 L12,7.25 L11.75,7.25 Z M11.5,7.25 L11.25,7.25 L11.5,7.5 L11.5,7.25 Z M11.5,7 L11.5,6.75 L11.25,7 L11.5,7 Z M6.5,6.25 L6.75,6.25 L6.5,6 L6.5,6.25 Z M6.5,6.5 L6.5,6.75 L6.75,6.5 L6.5,6.5 Z M6.25,6.5 L6,6.5 L6.25,6.75 L6.25,6.5 Z M6.25,6.25 L6.25,6 L6,6.25 L6.25,6.25 Z M7.25,7 L7.5,7 L7.25,6.75 L7.25,7 Z M7.25,7.25 L7.25,7.5 L7.5,7.25 L7.25,7.25 Z M7,7.25 L6.75,7.25 L7,7.5 L7,7.25 Z M7,7 L7,6.75 L6.75,7 L7,7 Z M15.5,6.25 L15.75,6.25 L15.5,6 L15.5,6.25 Z M15.5,6.5 L15.5,6.75 L15.75,6.5 L15.5,6.5 Z M15.25,6.5 L15,6.5 L15.25,6.75 L15.25,6.5 Z M15.25,6.25 L15.25,6 L15,6.25 L15.25,6.25 Z M16.25,7 L16.5,7 L16.25,6.75 L16.25,7 Z M16.25,7.25 L16.25,7.5 L16.5,7.25 L16.25,7.25 Z M16,7.25 L15.75,7.25 L16,7.5 L16,7.25 Z M16,7 L16,6.75 L15.75,7 L16,7 Z M17,6.25 L17.25,6.25 L17,6 L17,6.25 Z M17,6.5 L17,6.75 L17.25,6.5 L17,6.5 Z M16.75,6.5 L16.5,6.5 L16.75,6.75 L16.75,6.5 Z M16.75,6.25 L16.75,6 L16.5,6.25 L16.75,6.25 Z M17.75,7 L18,7 L17.75,6.75 L17.75,7 Z M17.75,7.25 L17.75,7.5 L18,7.25 L17.75,7.25 Z M17.5,7.25 L17.25,7.25 L17.5,7.5 L17.5,7.25 Z M17.5,7 L17.5,6.75 L17.25,7 L17.5,7 Z M5,6.25 L5.25,6.25 L5,6 L5,6.25 Z M5,6.5 L5,6.75 L5.25,6.5 L5,6.5 Z M4.75,6.5 L4.5,6.5 L4.75,6.75 L4.75,6.5 Z M4.75,6.25 L4.75,6 L4.5,6.25 L4.75,6.25 Z M5.75,7 L6,7 L5.75,6.75 L5.75,7 Z M5.75,7.25 L5.75,7.5 L6,7.25 L5.75,7.25 Z M5.5,7.25 L5.25,7.25 L5.5,7.5 L5.5,7.25 Z M5.5,7 L5.5,6.75 L5.25,7 L5.5,7 Z M14,6.25 L14.25,6.25 L14,6 L14,6.25 Z M14,6.5 L14,6.75 L14.25,6.5 L14,6.5 Z M13.75,6.5 L13.5,6.5 L13.75,6.75 L13.75,6.5 Z M13.75,6.25 L13.75,6 L13.5,6.25 L13.75,6.25 Z M14.75,7 L15,7 L14.75,6.75 L14.75,7 Z M14.75,7.25 L14.75,7.5 L15,7.25 L14.75,7.25 Z M14.5,7.25 L14.25,7.25 L14.5,7.5 L14.5,7.25 Z M14.5,7 L14.5,6.75 L14.25,7 L14.5,7 Z M9.5,6.25 L9.75,6.25 L9.5,6 L9.5,6.25 Z M9.5,6.5 L9.5,6.75 L9.75,6.5 L9.5,6.5 Z M9.25,6.5 L9,6.5 L9.25,6.75 L9.25,6.5 Z M9.25,6.25 L9.25,6 L9,6.25 L9.25,6.25 Z M10.25,7 L10.5,7 L10.25,6.75 L10.25,7 Z M10.25,7.25 L10.25,7.5 L10.5,7.25 L10.25,7.25 Z M10,7.25 L9.75,7.25 L10,7.5 L10,7.25 Z M10,7 L10,6.75 L9.75,7 L10,7 Z M3.5,6.25 L3.75,6.25 L3.5,6 L3.5,6.25 Z M3.5,6.5 L3.5,6.75 L3.75,6.5 L3.5,6.5 Z M3.25,6.5 L3,6.5 L3.25,6.75 L3.25,6.5 Z M3.25,6.25 L3.25,6 L3,6.25 L3.25,6.25 Z M4.25,7 L4.5,7 L4.25,6.75 L4.25,7 Z M4.25,7.25 L4.25,7.5 L4.5,7.25 L4.25,7.25 Z M4,7.25 L3.75,7.25 L4,7.5 L4,7.25 Z M4,7 L4,6.75 L3.75,7 L4,7 Z M12.5,6.25 L12.75,6.25 L12.5,6 L12.5,6.25 Z M12.5,6.5 L12.5,6.75 L12.75,6.5 L12.5,6.5 Z M12.25,6.5 L12,6.5 L12.25,6.75 L12.25,6.5 Z M12.25,6.25 L12.25,6 L12,6.25 L12.25,6.25 Z M13.25,7 L13.5,7 L13.25,6.75 L13.25,7 Z M13.25,7.25 L13.25,7.5 L13.5,7.25 L13.25,7.25 Z M13,7.25 L12.75,7.25 L13,7.5 L13,7.25 Z M13,7 L13,6.75 L12.75,7 L13,7 Z M8,6.25 L8.25,6.25 L8,6 L8,6.25 Z M8,6.5 L8,6.75 L8.25,6.5 L8,6.5 Z M7.75,6.5 L7.5,6.5 L7.75,6.75 L7.75,6.5 Z M7.75,6.25 L7.75,6 L7.5,6.25 L7.75,6.25 Z M8.75,7 L9,7 L8.75,6.75 L8.75,7 Z M8.75,7.25 L8.75,7.5 L9,7.25 L8.75,7.25 Z M8.5,7.25 L8.25,7.25 L8.5,7.5 L8.5,7.25 Z M8.5,7 L8.5,6.75 L8.25,7 L8.5,7 Z M2,7.75 L2.25,7.75 L2,7.5 L2,7.75 Z M2,8 L2,8.25 L2.25,8 L2,8 Z M1.75,8 L1.5,8 L1.75,8.25 L1.75,8 Z M1.75,7.75 L1.75,7.5 L1.5,7.75 L1.75,7.75 Z M1.25,8.5 L1.5,8.5 L1.25,8.25 L1.25,8.5 Z M1.25,8.75 L1.25,9 L1.5,8.75 L1.25,8.75 Z M1,8.75 L0.75,8.75 L1,9 L1,8.75 Z M1,8.5 L1,8.25 L0.75,8.5 L1,8.5 Z M0.5,7.75 L0.75,7.75 L0.5,7.5 L0.5,7.75 Z M0.5,8 L0.5,8.25 L0.75,8 L0.5,8 Z M0.25,8 L0,8 L0.25,8.25 L0.25,8 Z M0.25,7.75 L0.25,7.5 L0,7.75 L0.25,7.75 Z M2.75,8.5 L3,8.5 L2.75,8.25 L2.75,8.5 Z M2.75,8.75 L2.75,9 L3,8.75 L2.75,8.75 Z M2.5,8.75 L2.25,8.75 L2.5,9 L2.5,8.75 Z M2.5,8.5 L2.5,8.25 L2.25,8.5 L2.5,8.5 Z M11,7.75 L11.25,7.75 L11,7.5 L11,7.75 Z M11,8 L11,8.25 L11.25,8 L11,8 Z M10.75,8 L10.5,8 L10.75,8.25 L10.75,8 Z M10.75,7.75 L10.75,7.5 L10.5,7.75 L10.75,7.75 Z M11.75,8.5 L12,8.5 L11.75,8.25 L11.75,8.5 Z M11.75,8.75 L11.75,9 L12,8.75 L11.75,8.75 Z M11.5,8.75 L11.25,8.75 L11.5,9 L11.5,8.75 Z M11.5,8.5 L11.5,8.25 L11.25,8.5 L11.5,8.5 Z M6.5,7.75 L6.75,7.75 L6.5,7.5 L6.5,7.75 Z M6.5,8 L6.5,8.25 L6.75,8 L6.5,8 Z M6.25,8 L6,8 L6.25,8.25 L6.25,8 Z M6.25,7.75 L6.25,7.5 L6,7.75 L6.25,7.75 Z M7.25,8.5 L7.5,8.5 L7.25,8.25 L7.25,8.5 Z M7.25,8.75 L7.25,9 L7.5,8.75 L7.25,8.75 Z M7,8.75 L6.75,8.75 L7,9 L7,8.75 Z M7,8.5 L7,8.25 L6.75,8.5 L7,8.5 Z M15.5,7.75 L15.75,7.75 L15.5,7.5 L15.5,7.75 Z M15.5,8 L15.5,8.25 L15.75,8 L15.5,8 Z M15.25,8 L15,8 L15.25,8.25 L15.25,8 Z M15.25,7.75 L15.25,7.5 L15,7.75 L15.25,7.75 Z M16.25,8.5 L16.5,8.5 L16.25,8.25 L16.25,8.5 Z M16.25,8.75 L16.25,9 L16.5,8.75 L16.25,8.75 Z M16,8.75 L15.75,8.75 L16,9 L16,8.75 Z M16,8.5 L16,8.25 L15.75,8.5 L16,8.5 Z M17,7.75 L17.25,7.75 L17,7.5 L17,7.75 Z M17,8 L17,8.25 L17.25,8 L17,8 Z M16.75,8 L16.5,8 L16.75,8.25 L16.75,8 Z M16.75,7.75 L16.75,7.5 L16.5,7.75 L16.75,7.75 Z M17.75,8.5 L18,8.5 L17.75,8.25 L17.75,8.5 Z M17.75,8.75 L17.75,9 L18,8.75 L17.75,8.75 Z M17.5,8.75 L17.25,8.75 L17.5,9 L17.5,8.75 Z M17.5,8.5 L17.5,8.25 L17.25,8.5 L17.5,8.5 Z M5,7.75 L5.25,7.75 L5,7.5 L5,7.75 Z M5,8 L5,8.25 L5.25,8 L5,8 Z M4.75,8 L4.5,8 L4.75,8.25 L4.75,8 Z M4.75,7.75 L4.75,7.5 L4.5,7.75 L4.75,7.75 Z M5.75,8.5 L6,8.5 L5.75,8.25 L5.75,8.5 Z M5.75,8.75 L5.75,9 L6,8.75 L5.75,8.75 Z M5.5,8.75 L5.25,8.75 L5.5,9 L5.5,8.75 Z M5.5,8.5 L5.5,8.25 L5.25,8.5 L5.5,8.5 Z M14,7.75 L14.25,7.75 L14,7.5 L14,7.75 Z M14,8 L14,8.25 L14.25,8 L14,8 Z M13.75,8 L13.5,8 L13.75,8.25 L13.75,8 Z M13.75,7.75 L13.75,7.5 L13.5,7.75 L13.75,7.75 Z M14.75,8.5 L15,8.5 L14.75,8.25 L14.75,8.5 Z M14.75,8.75 L14.75,9 L15,8.75 L14.75,8.75 Z M14.5,8.75 L14.25,8.75 L14.5,9 L14.5,8.75 Z M14.5,8.5 L14.5,8.25 L14.25,8.5 L14.5,8.5 Z M9.5,7.75 L9.75,7.75 L9.5,7.5 L9.5,7.75 Z M9.5,8 L9.5,8.25 L9.75,8 L9.5,8 Z M9.25,8 L9,8 L9.25,8.25 L9.25,8 Z M9.25,7.75 L9.25,7.5 L9,7.75 L9.25,7.75 Z M10.25,8.5 L10.5,8.5 L10.25,8.25 L10.25,8.5 Z M10.25,8.75 L10.25,9 L10.5,8.75 L10.25,8.75 Z M10,8.75 L9.75,8.75 L10,9 L10,8.75 Z M10,8.5 L10,8.25 L9.75,8.5 L10,8.5 Z M3.5,7.75 L3.75,7.75 L3.5,7.5 L3.5,7.75 Z M3.5,8 L3.5,8.25 L3.75,8 L3.5,8 Z M3.25,8 L3,8 L3.25,8.25 L3.25,8 Z M3.25,7.75 L3.25,7.5 L3,7.75 L3.25,7.75 Z M4.25,8.5 L4.5,8.5 L4.25,8.25 L4.25,8.5 Z M4.25,8.75 L4.25,9 L4.5,8.75 L4.25,8.75 Z M4,8.75 L3.75,8.75 L4,9 L4,8.75 Z M4,8.5 L4,8.25 L3.75,8.5 L4,8.5 Z M12.5,7.75 L12.75,7.75 L12.5,7.5 L12.5,7.75 Z M12.5,8 L12.5,8.25 L12.75,8 L12.5,8 Z M12.25,8 L12,8 L12.25,8.25 L12.25,8 Z M12.25,7.75 L12.25,7.5 L12,7.75 L12.25,7.75 Z M13.25,8.5 L13.5,8.5 L13.25,8.25 L13.25,8.5 Z M13.25,8.75 L13.25,9 L13.5,8.75 L13.25,8.75 Z M13,8.75 L12.75,8.75 L13,9 L13,8.75 Z M13,8.5 L13,8.25 L12.75,8.5 L13,8.5 Z M8,7.75 L8.25,7.75 L8,7.5 L8,7.75 Z M8,8 L8,8.25 L8.25,8 L8,8 Z M7.75,8 L7.5,8 L7.75,8.25 L7.75,8 Z M7.75,7.75 L7.75,7.5 L7.5,7.75 L7.75,7.75 Z M8.75,8.5 L9,8.5 L8.75,8.25 L8.75,8.5 Z M8.75,8.75 L8.75,9 L9,8.75 L8.75,8.75 Z M8.5,8.75 L8.25,8.75 L8.5,9 L8.5,8.75 Z M8.5,8.5 L8.5,8.25 L8.25,8.5 L8.5,8.5 Z M2,9.25 L2.25,9.25 L2,9 L2,9.25 Z M2,9.5 L2,9.75 L2.25,9.5 L2,9.5 Z M1.75,9.5 L1.5,9.5 L1.75,9.75 L1.75,9.5 Z M1.75,9.25 L1.75,9 L1.5,9.25 L1.75,9.25 Z M1.25,10 L1.5,10 L1.25,9.75 L1.25,10 Z M1.25,10.25 L1.25,10.5 L1.5,10.25 L1.25,10.25 Z M1,10.25 L0.75,10.25 L1,10.5 L1,10.25 Z M1,10 L1,9.75 L0.75,10 L1,10 Z M0.5,9.25 L0.75,9.25 L0.5,9 L0.5,9.25 Z M0.5,9.5 L0.5,9.75 L0.75,9.5 L0.5,9.5 Z M0.25,9.5 L0,9.5 L0.25,9.75 L0.25,9.5 Z M0.25,9.25 L0.25,9 L0,9.25 L0.25,9.25 Z M2.75,10 L3,10 L2.75,9.75 L2.75,10 Z M2.75,10.25 L2.75,10.5 L3,10.25 L2.75,10.25 Z M2.5,10.25 L2.25,10.25 L2.5,10.5 L2.5,10.25 Z M2.5,10 L2.5,9.75 L2.25,10 L2.5,10 Z M11,9.25 L11.25,9.25 L11,9 L11,9.25 Z M11,9.5 L11,9.75 L11.25,9.5 L11,9.5 Z M10.75,9.5 L10.5,9.5 L10.75,9.75 L10.75,9.5 Z M10.75,9.25 L10.75,9 L10.5,9.25 L10.75,9.25 Z M11.75,10 L12,10 L11.75,9.75 L11.75,10 Z M11.75,10.25 L11.75,10.5 L12,10.25 L11.75,10.25 Z M11.5,10.25 L11.25,10.25 L11.5,10.5 L11.5,10.25 Z M11.5,10 L11.5,9.75 L11.25,10 L11.5,10 Z M6.5,9.25 L6.75,9.25 L6.5,9 L6.5,9.25 Z M6.5,9.5 L6.5,9.75 L6.75,9.5 L6.5,9.5 Z M6.25,9.5 L6,9.5 L6.25,9.75 L6.25,9.5 Z M6.25,9.25 L6.25,9 L6,9.25 L6.25,9.25 Z M7.25,10 L7.5,10 L7.25,9.75 L7.25,10 Z M7.25,10.25 L7.25,10.5 L7.5,10.25 L7.25,10.25 Z M7,10.25 L6.75,10.25 L7,10.5 L7,10.25 Z M7,10 L7,9.75 L6.75,10 L7,10 Z M15.5,9.25 L15.75,9.25 L15.5,9 L15.5,9.25 Z M15.5,9.5 L15.5,9.75 L15.75,9.5 L15.5,9.5 Z M15.25,9.5 L15,9.5 L15.25,9.75 L15.25,9.5 Z M15.25,9.25 L15.25,9 L15,9.25 L15.25,9.25 Z M16.25,10 L16.5,10 L16.25,9.75 L16.25,10 Z M16.25,10.25 L16.25,10.5 L16.5,10.25 L16.25,10.25 Z M16,10.25 L15.75,10.25 L16,10.5 L16,10.25 Z M16,10 L16,9.75 L15.75,10 L16,10 Z M17,9.25 L17.25,9.25 L17,9 L17,9.25 Z M17,9.5 L17,9.75 L17.25,9.5 L17,9.5 Z M16.75,9.5 L16.5,9.5 L16.75,9.75 L16.75,9.5 Z M16.75,9.25 L16.75,9 L16.5,9.25 L16.75,9.25 Z M17.75,10 L18,10 L17.75,9.75 L17.75,10 Z M17.75,10.25 L17.75,10.5 L18,10.25 L17.75,10.25 Z M17.5,10.25 L17.25,10.25 L17.5,10.5 L17.5,10.25 Z M17.5,10 L17.5,9.75 L17.25,10 L17.5,10 Z M5,9.25 L5.25,9.25 L5,9 L5,9.25 Z M5,9.5 L5,9.75 L5.25,9.5 L5,9.5 Z M4.75,9.5 L4.5,9.5 L4.75,9.75 L4.75,9.5 Z M4.75,9.25 L4.75,9 L4.5,9.25 L4.75,9.25 Z M5.75,10 L6,10 L5.75,9.75 L5.75,10 Z M5.75,10.25 L5.75,10.5 L6,10.25 L5.75,10.25 Z M5.5,10.25 L5.25,10.25 L5.5,10.5 L5.5,10.25 Z M5.5,10 L5.5,9.75 L5.25,10 L5.5,10 Z M14,9.25 L14.25,9.25 L14,9 L14,9.25 Z M14,9.5 L14,9.75 L14.25,9.5 L14,9.5 Z M13.75,9.5 L13.5,9.5 L13.75,9.75 L13.75,9.5 Z M13.75,9.25 L13.75,9 L13.5,9.25 L13.75,9.25 Z M14.75,10 L15,10 L14.75,9.75 L14.75,10 Z M14.75,10.25 L14.75,10.5 L15,10.25 L14.75,10.25 Z M14.5,10.25 L14.25,10.25 L14.5,10.5 L14.5,10.25 Z M14.5,10 L14.5,9.75 L14.25,10 L14.5,10 Z M9.5,9.25 L9.75,9.25 L9.5,9 L9.5,9.25 Z M9.5,9.5 L9.5,9.75 L9.75,9.5 L9.5,9.5 Z M9.25,9.5 L9,9.5 L9.25,9.75 L9.25,9.5 Z M9.25,9.25 L9.25,9 L9,9.25 L9.25,9.25 Z M10.25,10 L10.5,10 L10.25,9.75 L10.25,10 Z M10.25,10.25 L10.25,10.5 L10.5,10.25 L10.25,10.25 Z M10,10.25 L9.75,10.25 L10,10.5 L10,10.25 Z M10,10 L10,9.75 L9.75,10 L10,10 Z M3.5,9.25 L3.75,9.25 L3.5,9 L3.5,9.25 Z M3.5,9.5 L3.5,9.75 L3.75,9.5 L3.5,9.5 Z M3.25,9.5 L3,9.5 L3.25,9.75 L3.25,9.5 Z M3.25,9.25 L3.25,9 L3,9.25 L3.25,9.25 Z M4.25,10 L4.5,10 L4.25,9.75 L4.25,10 Z M4.25,10.25 L4.25,10.5 L4.5,10.25 L4.25,10.25 Z M4,10.25 L3.75,10.25 L4,10.5 L4,10.25 Z M4,10 L4,9.75 L3.75,10 L4,10 Z M12.5,9.25 L12.75,9.25 L12.5,9 L12.5,9.25 Z M12.5,9.5 L12.5,9.75 L12.75,9.5 L12.5,9.5 Z M12.25,9.5 L12,9.5 L12.25,9.75 L12.25,9.5 Z M12.25,9.25 L12.25,9 L12,9.25 L12.25,9.25 Z M13.25,10 L13.5,10 L13.25,9.75 L13.25,10 Z M13.25,10.25 L13.25,10.5 L13.5,10.25 L13.25,10.25 Z M13,10.25 L12.75,10.25 L13,10.5 L13,10.25 Z M13,10 L13,9.75 L12.75,10 L13,10 Z M8,9.25 L8.25,9.25 L8,9 L8,9.25 Z M8,9.5 L8,9.75 L8.25,9.5 L8,9.5 Z M7.75,9.5 L7.5,9.5 L7.75,9.75 L7.75,9.5 Z M7.75,9.25 L7.75,9 L7.5,9.25 L7.75,9.25 Z M8.75,10 L9,10 L8.75,9.75 L8.75,10 Z M8.75,10.25 L8.75,10.5 L9,10.25 L8.75,10.25 Z M8.5,10.25 L8.25,10.25 L8.5,10.5 L8.5,10.25 Z M8.5,10 L8.5,9.75 L8.25,10 L8.5,10 Z M2,10.75 L2.25,10.75 L2,10.5 L2,10.75 Z M2,11 L2,11.25 L2.25,11 L2,11 Z M1.75,11 L1.5,11 L1.75,11.25 L1.75,11 Z M1.75,10.75 L1.75,10.5 L1.5,10.75 L1.75,10.75 Z M1.25,11.5 L1.5,11.5 L1.25,11.25 L1.25,11.5 Z M1.25,11.75 L1.25,12 L1.5,11.75 L1.25,11.75 Z M1,11.75 L0.75,11.75 L1,12 L1,11.75 Z M1,11.5 L1,11.25 L0.75,11.5 L1,11.5 Z M0.5,10.75 L0.75,10.75 L0.5,10.5 L0.5,10.75 Z M0.5,11 L0.5,11.25 L0.75,11 L0.5,11 Z M0.25,11 L0,11 L0.25,11.25 L0.25,11 Z M0.25,10.75 L0.25,10.5 L0,10.75 L0.25,10.75 Z M2.75,11.5 L3,11.5 L2.75,11.25 L2.75,11.5 Z M2.75,11.75 L2.75,12 L3,11.75 L2.75,11.75 Z M2.5,11.75 L2.25,11.75 L2.5,12 L2.5,11.75 Z M2.5,11.5 L2.5,11.25 L2.25,11.5 L2.5,11.5 Z M11,10.75 L11.25,10.75 L11,10.5 L11,10.75 Z M11,11 L11,11.25 L11.25,11 L11,11 Z M10.75,11 L10.5,11 L10.75,11.25 L10.75,11 Z M10.75,10.75 L10.75,10.5 L10.5,10.75 L10.75,10.75 Z M11.75,11.5 L12,11.5 L11.75,11.25 L11.75,11.5 Z M11.75,11.75 L11.75,12 L12,11.75 L11.75,11.75 Z M11.5,11.75 L11.25,11.75 L11.5,12 L11.5,11.75 Z M11.5,11.5 L11.5,11.25 L11.25,11.5 L11.5,11.5 Z M6.5,10.75 L6.75,10.75 L6.5,10.5 L6.5,10.75 Z M6.5,11 L6.5,11.25 L6.75,11 L6.5,11 Z M6.25,11 L6,11 L6.25,11.25 L6.25,11 Z M6.25,10.75 L6.25,10.5 L6,10.75 L6.25,10.75 Z M7.25,11.5 L7.5,11.5 L7.25,11.25 L7.25,11.5 Z M7.25,11.75 L7.25,12 L7.5,11.75 L7.25,11.75 Z M7,11.75 L6.75,11.75 L7,12 L7,11.75 Z M7,11.5 L7,11.25 L6.75,11.5 L7,11.5 Z M15.5,10.75 L15.75,10.75 L15.5,10.5 L15.5,10.75 Z M15.5,11 L15.5,11.25 L15.75,11 L15.5,11 Z M15.25,11 L15,11 L15.25,11.25 L15.25,11 Z M15.25,10.75 L15.25,10.5 L15,10.75 L15.25,10.75 Z M16.25,11.5 L16.5,11.5 L16.25,11.25 L16.25,11.5 Z M16.25,11.75 L16.25,12 L16.5,11.75 L16.25,11.75 Z M16,11.75 L15.75,11.75 L16,12 L16,11.75 Z M16,11.5 L16,11.25 L15.75,11.5 L16,11.5 Z M17,10.75 L17.25,10.75 L17,10.5 L17,10.75 Z M17,11 L17,11.25 L17.25,11 L17,11 Z M16.75,11 L16.5,11 L16.75,11.25 L16.75,11 Z M16.75,10.75 L16.75,10.5 L16.5,10.75 L16.75,10.75 Z M17.75,11.5 L18,11.5 L17.75,11.25 L17.75,11.5 Z M17.75,11.75 L17.75,12 L18,11.75 L17.75,11.75 Z M17.5,11.75 L17.25,11.75 L17.5,12 L17.5,11.75 Z M17.5,11.5 L17.5,11.25 L17.25,11.5 L17.5,11.5 Z M5,10.75 L5.25,10.75 L5,10.5 L5,10.75 Z M5,11 L5,11.25 L5.25,11 L5,11 Z M4.75,11 L4.5,11 L4.75,11.25 L4.75,11 Z M4.75,10.75 L4.75,10.5 L4.5,10.75 L4.75,10.75 Z M5.75,11.5 L6,11.5 L5.75,11.25 L5.75,11.5 Z M5.75,11.75 L5.75,12 L6,11.75 L5.75,11.75 Z M5.5,11.75 L5.25,11.75 L5.5,12 L5.5,11.75 Z M5.5,11.5 L5.5,11.25 L5.25,11.5 L5.5,11.5 Z M14,10.75 L14.25,10.75 L14,10.5 L14,10.75 Z M14,11 L14,11.25 L14.25,11 L14,11 Z M13.75,11 L13.5,11 L13.75,11.25 L13.75,11 Z M13.75,10.75 L13.75,10.5 L13.5,10.75 L13.75,10.75 Z M14.75,11.5 L15,11.5 L14.75,11.25 L14.75,11.5 Z M14.75,11.75 L14.75,12 L15,11.75 L14.75,11.75 Z M14.5,11.75 L14.25,11.75 L14.5,12 L14.5,11.75 Z M14.5,11.5 L14.5,11.25 L14.25,11.5 L14.5,11.5 Z M9.5,10.75 L9.75,10.75 L9.5,10.5 L9.5,10.75 Z M9.5,11 L9.5,11.25 L9.75,11 L9.5,11 Z M9.25,11 L9,11 L9.25,11.25 L9.25,11 Z M9.25,10.75 L9.25,10.5 L9,10.75 L9.25,10.75 Z M10.25,11.5 L10.5,11.5 L10.25,11.25 L10.25,11.5 Z M10.25,11.75 L10.25,12 L10.5,11.75 L10.25,11.75 Z M10,11.75 L9.75,11.75 L10,12 L10,11.75 Z M10,11.5 L10,11.25 L9.75,11.5 L10,11.5 Z M3.5,10.75 L3.75,10.75 L3.5,10.5 L3.5,10.75 Z M3.5,11 L3.5,11.25 L3.75,11 L3.5,11 Z M3.25,11 L3,11 L3.25,11.25 L3.25,11 Z M3.25,10.75 L3.25,10.5 L3,10.75 L3.25,10.75 Z M4.25,11.5 L4.5,11.5 L4.25,11.25 L4.25,11.5 Z M4.25,11.75 L4.25,12 L4.5,11.75 L4.25,11.75 Z M4,11.75 L3.75,11.75 L4,12 L4,11.75 Z M4,11.5 L4,11.25 L3.75,11.5 L4,11.5 Z M12.5,10.75 L12.75,10.75 L12.5,10.5 L12.5,10.75 Z M12.5,11 L12.5,11.25 L12.75,11 L12.5,11 Z M12.25,11 L12,11 L12.25,11.25 L12.25,11 Z M12.25,10.75 L12.25,10.5 L12,10.75 L12.25,10.75 Z M13.25,11.5 L13.5,11.5 L13.25,11.25 L13.25,11.5 Z M13.25,11.75 L13.25,12 L13.5,11.75 L13.25,11.75 Z M13,11.75 L12.75,11.75 L13,12 L13,11.75 Z M13,11.5 L13,11.25 L12.75,11.5 L13,11.5 Z M8,10.75 L8.25,10.75 L8,10.5 L8,10.75 Z M8,11 L8,11.25 L8.25,11 L8,11 Z M7.75,11 L7.5,11 L7.75,11.25 L7.75,11 Z M7.75,10.75 L7.75,10.5 L7.5,10.75 L7.75,10.75 Z M8.75,11.5 L9,11.5 L8.75,11.25 L8.75,11.5 Z M8.75,11.75 L8.75,12 L9,11.75 L8.75,11.75 Z M8.5,11.75 L8.25,11.75 L8.5,12 L8.5,11.75 Z M8.5,11.5 L8.5,11.25 L8.25,11.5 L8.5,11.5 Z M2,12.25 L2.25,12.25 L2,12 L2,12.25 Z M2,12.5 L2,12.75 L2.25,12.5 L2,12.5 Z M1.75,12.5 L1.5,12.5 L1.75,12.75 L1.75,12.5 Z M1.75,12.25 L1.75,12 L1.5,12.25 L1.75,12.25 Z M1.25,13 L1.5,13 L1.25,12.75 L1.25,13 Z M1.25,13.25 L1.25,13.5 L1.5,13.25 L1.25,13.25 Z M1,13.25 L0.75,13.25 L1,13.5 L1,13.25 Z M1,13 L1,12.75 L0.75,13 L1,13 Z M0.5,12.25 L0.75,12.25 L0.5,12 L0.5,12.25 Z M0.5,12.5 L0.5,12.75 L0.75,12.5 L0.5,12.5 Z M0.25,12.5 L0,12.5 L0.25,12.75 L0.25,12.5 Z M0.25,12.25 L0.25,12 L0,12.25 L0.25,12.25 Z M2.75,13 L3,13 L2.75,12.75 L2.75,13 Z M2.75,13.25 L2.75,13.5 L3,13.25 L2.75,13.25 Z M2.5,13.25 L2.25,13.25 L2.5,13.5 L2.5,13.25 Z M2.5,13 L2.5,12.75 L2.25,13 L2.5,13 Z M11,12.25 L11.25,12.25 L11,12 L11,12.25 Z M11,12.5 L11,12.75 L11.25,12.5 L11,12.5 Z M10.75,12.5 L10.5,12.5 L10.75,12.75 L10.75,12.5 Z M10.75,12.25 L10.75,12 L10.5,12.25 L10.75,12.25 Z M11.75,13 L12,13 L11.75,12.75 L11.75,13 Z M11.75,13.25 L11.75,13.5 L12,13.25 L11.75,13.25 Z M11.5,13.25 L11.25,13.25 L11.5,13.5 L11.5,13.25 Z M11.5,13 L11.5,12.75 L11.25,13 L11.5,13 Z M6.5,12.25 L6.75,12.25 L6.5,12 L6.5,12.25 Z M6.5,12.5 L6.5,12.75 L6.75,12.5 L6.5,12.5 Z M6.25,12.5 L6,12.5 L6.25,12.75 L6.25,12.5 Z M6.25,12.25 L6.25,12 L6,12.25 L6.25,12.25 Z M7.25,13 L7.5,13 L7.25,12.75 L7.25,13 Z M7.25,13.25 L7.25,13.5 L7.5,13.25 L7.25,13.25 Z M7,13.25 L6.75,13.25 L7,13.5 L7,13.25 Z M7,13 L7,12.75 L6.75,13 L7,13 Z M15.5,12.25 L15.75,12.25 L15.5,12 L15.5,12.25 Z M15.5,12.5 L15.5,12.75 L15.75,12.5 L15.5,12.5 Z M15.25,12.5 L15,12.5 L15.25,12.75 L15.25,12.5 Z M15.25,12.25 L15.25,12 L15,12.25 L15.25,12.25 Z M16.25,13 L16.5,13 L16.25,12.75 L16.25,13 Z M16.25,13.25 L16.25,13.5 L16.5,13.25 L16.25,13.25 Z M16,13.25 L15.75,13.25 L16,13.5 L16,13.25 Z M16,13 L16,12.75 L15.75,13 L16,13 Z M17,12.25 L17.25,12.25 L17,12 L17,12.25 Z M17,12.5 L17,12.75 L17.25,12.5 L17,12.5 Z M16.75,12.5 L16.5,12.5 L16.75,12.75 L16.75,12.5 Z M16.75,12.25 L16.75,12 L16.5,12.25 L16.75,12.25 Z M17.75,13 L18,13 L17.75,12.75 L17.75,13 Z M17.75,13.25 L17.75,13.5 L18,13.25 L17.75,13.25 Z M17.5,13.25 L17.25,13.25 L17.5,13.5 L17.5,13.25 Z M17.5,13 L17.5,12.75 L17.25,13 L17.5,13 Z M5,12.25 L5.25,12.25 L5,12 L5,12.25 Z M5,12.5 L5,12.75 L5.25,12.5 L5,12.5 Z M4.75,12.5 L4.5,12.5 L4.75,12.75 L4.75,12.5 Z M4.75,12.25 L4.75,12 L4.5,12.25 L4.75,12.25 Z M5.75,13 L6,13 L5.75,12.75 L5.75,13 Z M5.75,13.25 L5.75,13.5 L6,13.25 L5.75,13.25 Z M5.5,13.25 L5.25,13.25 L5.5,13.5 L5.5,13.25 Z M5.5,13 L5.5,12.75 L5.25,13 L5.5,13 Z M14,12.25 L14.25,12.25 L14,12 L14,12.25 Z M14,12.5 L14,12.75 L14.25,12.5 L14,12.5 Z M13.75,12.5 L13.5,12.5 L13.75,12.75 L13.75,12.5 Z M13.75,12.25 L13.75,12 L13.5,12.25 L13.75,12.25 Z M14.75,13 L15,13 L14.75,12.75 L14.75,13 Z M14.75,13.25 L14.75,13.5 L15,13.25 L14.75,13.25 Z M14.5,13.25 L14.25,13.25 L14.5,13.5 L14.5,13.25 Z M14.5,13 L14.5,12.75 L14.25,13 L14.5,13 Z M9.5,12.25 L9.75,12.25 L9.5,12 L9.5,12.25 Z M9.5,12.5 L9.5,12.75 L9.75,12.5 L9.5,12.5 Z M9.25,12.5 L9,12.5 L9.25,12.75 L9.25,12.5 Z M9.25,12.25 L9.25,12 L9,12.25 L9.25,12.25 Z M10.25,13 L10.5,13 L10.25,12.75 L10.25,13 Z M10.25,13.25 L10.25,13.5 L10.5,13.25 L10.25,13.25 Z M10,13.25 L9.75,13.25 L10,13.5 L10,13.25 Z M10,13 L10,12.75 L9.75,13 L10,13 Z M3.5,12.25 L3.75,12.25 L3.5,12 L3.5,12.25 Z M3.5,12.5 L3.5,12.75 L3.75,12.5 L3.5,12.5 Z M3.25,12.5 L3,12.5 L3.25,12.75 L3.25,12.5 Z M3.25,12.25 L3.25,12 L3,12.25 L3.25,12.25 Z M4.25,13 L4.5,13 L4.25,12.75 L4.25,13 Z M4.25,13.25 L4.25,13.5 L4.5,13.25 L4.25,13.25 Z M4,13.25 L3.75,13.25 L4,13.5 L4,13.25 Z M4,13 L4,12.75 L3.75,13 L4,13 Z M12.5,12.25 L12.75,12.25 L12.5,12 L12.5,12.25 Z M12.5,12.5 L12.5,12.75 L12.75,12.5 L12.5,12.5 Z M12.25,12.5 L12,12.5 L12.25,12.75 L12.25,12.5 Z M12.25,12.25 L12.25,12 L12,12.25 L12.25,12.25 Z M13.25,13 L13.5,13 L13.25,12.75 L13.25,13 Z M13.25,13.25 L13.25,13.5 L13.5,13.25 L13.25,13.25 Z M13,13.25 L12.75,13.25 L13,13.5 L13,13.25 Z M13,13 L13,12.75 L12.75,13 L13,13 Z M8,12.25 L8.25,12.25 L8,12 L8,12.25 Z M8,12.5 L8,12.75 L8.25,12.5 L8,12.5 Z M7.75,12.5 L7.5,12.5 L7.75,12.75 L7.75,12.5 Z M7.75,12.25 L7.75,12 L7.5,12.25 L7.75,12.25 Z M8.75,13 L9,13 L8.75,12.75 L8.75,13 Z M8.75,13.25 L8.75,13.5 L9,13.25 L8.75,13.25 Z M8.5,13.25 L8.25,13.25 L8.5,13.5 L8.5,13.25 Z M8.5,13 L8.5,12.75 L8.25,13 L8.5,13 Z M2,13.75 L2.25,13.75 L2,13.5 L2,13.75 Z M2,14 L2,14.25 L2.25,14 L2,14 Z M1.75,14 L1.5,14 L1.75,14.25 L1.75,14 Z M1.75,13.75 L1.75,13.5 L1.5,13.75 L1.75,13.75 Z M1.25,14.5 L1.5,14.5 L1.25,14.25 L1.25,14.5 Z M1.25,14.75 L1.25,15 L1.5,14.75 L1.25,14.75 Z M1,14.75 L0.75,14.75 L1,15 L1,14.75 Z M1,14.5 L1,14.25 L0.75,14.5 L1,14.5 Z M0.5,13.75 L0.75,13.75 L0.5,13.5 L0.5,13.75 Z M0.5,14 L0.5,14.25 L0.75,14 L0.5,14 Z M0.25,14 L0,14 L0.25,14.25 L0.25,14 Z M0.25,13.75 L0.25,13.5 L0,13.75 L0.25,13.75 Z M2.75,14.5 L3,14.5 L2.75,14.25 L2.75,14.5 Z M2.75,14.75 L2.75,15 L3,14.75 L2.75,14.75 Z M2.5,14.75 L2.25,14.75 L2.5,15 L2.5,14.75 Z M2.5,14.5 L2.5,14.25 L2.25,14.5 L2.5,14.5 Z M11,13.75 L11.25,13.75 L11,13.5 L11,13.75 Z M11,14 L11,14.25 L11.25,14 L11,14 Z M10.75,14 L10.5,14 L10.75,14.25 L10.75,14 Z M10.75,13.75 L10.75,13.5 L10.5,13.75 L10.75,13.75 Z M11.75,14.5 L12,14.5 L11.75,14.25 L11.75,14.5 Z M11.75,14.75 L11.75,15 L12,14.75 L11.75,14.75 Z M11.5,14.75 L11.25,14.75 L11.5,15 L11.5,14.75 Z M11.5,14.5 L11.5,14.25 L11.25,14.5 L11.5,14.5 Z M6.5,13.75 L6.75,13.75 L6.5,13.5 L6.5,13.75 Z M6.5,14 L6.5,14.25 L6.75,14 L6.5,14 Z M6.25,14 L6,14 L6.25,14.25 L6.25,14 Z M6.25,13.75 L6.25,13.5 L6,13.75 L6.25,13.75 Z M7.25,14.5 L7.5,14.5 L7.25,14.25 L7.25,14.5 Z M7.25,14.75 L7.25,15 L7.5,14.75 L7.25,14.75 Z M7,14.75 L6.75,14.75 L7,15 L7,14.75 Z M7,14.5 L7,14.25 L6.75,14.5 L7,14.5 Z M15.5,13.75 L15.75,13.75 L15.5,13.5 L15.5,13.75 Z M15.5,14 L15.5,14.25 L15.75,14 L15.5,14 Z M15.25,14 L15,14 L15.25,14.25 L15.25,14 Z M15.25,13.75 L15.25,13.5 L15,13.75 L15.25,13.75 Z M16.25,14.5 L16.5,14.5 L16.25,14.25 L16.25,14.5 Z M16.25,14.75 L16.25,15 L16.5,14.75 L16.25,14.75 Z M16,14.75 L15.75,14.75 L16,15 L16,14.75 Z M16,14.5 L16,14.25 L15.75,14.5 L16,14.5 Z M17,13.75 L17.25,13.75 L17,13.5 L17,13.75 Z M17,14 L17,14.25 L17.25,14 L17,14 Z M16.75,14 L16.5,14 L16.75,14.25 L16.75,14 Z M16.75,13.75 L16.75,13.5 L16.5,13.75 L16.75,13.75 Z M17.75,14.5 L18,14.5 L17.75,14.25 L17.75,14.5 Z M17.75,14.75 L17.75,15 L18,14.75 L17.75,14.75 Z M17.5,14.75 L17.25,14.75 L17.5,15 L17.5,14.75 Z M17.5,14.5 L17.5,14.25 L17.25,14.5 L17.5,14.5 Z M5,13.75 L5.25,13.75 L5,13.5 L5,13.75 Z M5,14 L5,14.25 L5.25,14 L5,14 Z M4.75,14 L4.5,14 L4.75,14.25 L4.75,14 Z M4.75,13.75 L4.75,13.5 L4.5,13.75 L4.75,13.75 Z M5.75,14.5 L6,14.5 L5.75,14.25 L5.75,14.5 Z M5.75,14.75 L5.75,15 L6,14.75 L5.75,14.75 Z M5.5,14.75 L5.25,14.75 L5.5,15 L5.5,14.75 Z M5.5,14.5 L5.5,14.25 L5.25,14.5 L5.5,14.5 Z M14,13.75 L14.25,13.75 L14,13.5 L14,13.75 Z M14,14 L14,14.25 L14.25,14 L14,14 Z M13.75,14 L13.5,14 L13.75,14.25 L13.75,14 Z M13.75,13.75 L13.75,13.5 L13.5,13.75 L13.75,13.75 Z M14.75,14.5 L15,14.5 L14.75,14.25 L14.75,14.5 Z M14.75,14.75 L14.75,15 L15,14.75 L14.75,14.75 Z M14.5,14.75 L14.25,14.75 L14.5,15 L14.5,14.75 Z M14.5,14.5 L14.5,14.25 L14.25,14.5 L14.5,14.5 Z M9.5,13.75 L9.75,13.75 L9.5,13.5 L9.5,13.75 Z M9.5,14 L9.5,14.25 L9.75,14 L9.5,14 Z M9.25,14 L9,14 L9.25,14.25 L9.25,14 Z M9.25,13.75 L9.25,13.5 L9,13.75 L9.25,13.75 Z M10.25,14.5 L10.5,14.5 L10.25,14.25 L10.25,14.5 Z M10.25,14.75 L10.25,15 L10.5,14.75 L10.25,14.75 Z M10,14.75 L9.75,14.75 L10,15 L10,14.75 Z M10,14.5 L10,14.25 L9.75,14.5 L10,14.5 Z M3.5,13.75 L3.75,13.75 L3.5,13.5 L3.5,13.75 Z M3.5,14 L3.5,14.25 L3.75,14 L3.5,14 Z M3.25,14 L3,14 L3.25,14.25 L3.25,14 Z M3.25,13.75 L3.25,13.5 L3,13.75 L3.25,13.75 Z M4.25,14.5 L4.5,14.5 L4.25,14.25 L4.25,14.5 Z M4.25,14.75 L4.25,15 L4.5,14.75 L4.25,14.75 Z M4,14.75 L3.75,14.75 L4,15 L4,14.75 Z M4,14.5 L4,14.25 L3.75,14.5 L4,14.5 Z M12.5,13.75 L12.75,13.75 L12.5,13.5 L12.5,13.75 Z M12.5,14 L12.5,14.25 L12.75,14 L12.5,14 Z M12.25,14 L12,14 L12.25,14.25 L12.25,14 Z M12.25,13.75 L12.25,13.5 L12,13.75 L12.25,13.75 Z M13.25,14.5 L13.5,14.5 L13.25,14.25 L13.25,14.5 Z M13.25,14.75 L13.25,15 L13.5,14.75 L13.25,14.75 Z M13,14.75 L12.75,14.75 L13,15 L13,14.75 Z M13,14.5 L13,14.25 L12.75,14.5 L13,14.5 Z M8,13.75 L8.25,13.75 L8,13.5 L8,13.75 Z M8,14 L8,14.25 L8.25,14 L8,14 Z M7.75,14 L7.5,14 L7.75,14.25 L7.75,14 Z M7.75,13.75 L7.75,13.5 L7.5,13.75 L7.75,13.75 Z M8.75,14.5 L9,14.5 L8.75,14.25 L8.75,14.5 Z M8.75,14.75 L8.75,15 L9,14.75 L8.75,14.75 Z M8.5,14.75 L8.25,14.75 L8.5,15 L8.5,14.75 Z M8.5,14.5 L8.5,14.25 L8.25,14.5 L8.5,14.5 Z M2,15.25 L2.25,15.25 L2,15 L2,15.25 Z M2,15.5 L2,15.75 L2.25,15.5 L2,15.5 Z M1.75,15.5 L1.5,15.5 L1.75,15.75 L1.75,15.5 Z M1.75,15.25 L1.75,15 L1.5,15.25 L1.75,15.25 Z M1.25,16 L1.5,16 L1.25,15.75 L1.25,16 Z M1.25,16.25 L1.25,16.5 L1.5,16.25 L1.25,16.25 Z M1,16.25 L0.75,16.25 L1,16.5 L1,16.25 Z M1,16 L1,15.75 L0.75,16 L1,16 Z M0.5,16.75 L0.75,16.75 L0.5,16.5 L0.5,16.75 Z M0.5,17 L0.5,17.25 L0.75,17 L0.5,17 Z M0.25,17 L0,17 L0.25,17.25 L0.25,17 Z M0.25,16.75 L0.25,16.5 L0,16.75 L0.25,16.75 Z M1.25,17.5 L1.5,17.5 L1.25,17.25 L1.25,17.5 Z M1.25,17.75 L1.25,18 L1.5,17.75 L1.25,17.75 Z M1,17.75 L0.75,17.75 L1,18 L1,17.75 Z M1,17.5 L1,17.25 L0.75,17.5 L1,17.5 Z M1.25,1 L1.5,1 L1.25,0.75 L1.25,1 Z M1.25,1.25 L1.25,1.5 L1.5,1.25 L1.25,1.25 Z M1,1.25 L0.75,1.25 L1,1.5 L1,1.25 Z M1,1 L1,0.75 L0.75,1 L1,1 Z M0.5,0.25 L0.75,0.25 L0.5,0 L0.5,0.25 Z M0.5,0.5 L0.5,0.75 L0.75,0.5 L0.5,0.5 Z M0.25,0.5 L0,0.5 L0.25,0.75 L0.25,0.5 Z M0.25,0.25 L0.25,0 L0,0.25 L0.25,0.25 Z M0.5,15.25 L0.75,15.25 L0.5,15 L0.5,15.25 Z M0.5,15.5 L0.5,15.75 L0.75,15.5 L0.5,15.5 Z M0.25,15.5 L0,15.5 L0.25,15.75 L0.25,15.5 Z M0.25,15.25 L0.25,15 L0,15.25 L0.25,15.25 Z M2.75,16 L3,16 L2.75,15.75 L2.75,16 Z M2.75,16.25 L2.75,16.5 L3,16.25 L2.75,16.25 Z M2.5,16.25 L2.25,16.25 L2.5,16.5 L2.5,16.25 Z M2.5,16 L2.5,15.75 L2.25,16 L2.5,16 Z M2,16.75 L2.25,16.75 L2,16.5 L2,16.75 Z M2,17 L2,17.25 L2.25,17 L2,17 Z M1.75,17 L1.5,17 L1.75,17.25 L1.75,17 Z M1.75,16.75 L1.75,16.5 L1.5,16.75 L1.75,16.75 Z M2.75,17.5 L3,17.5 L2.75,17.25 L2.75,17.5 Z M2.75,17.75 L2.75,18 L3,17.75 L2.75,17.75 Z M2.5,17.75 L2.25,17.75 L2.5,18 L2.5,17.75 Z M2.5,17.5 L2.5,17.25 L2.25,17.5 L2.5,17.5 Z M2.75,1 L3,1 L2.75,0.75 L2.75,1 Z M2.75,1.25 L2.75,1.5 L3,1.25 L2.75,1.25 Z M2.5,1.25 L2.25,1.25 L2.5,1.5 L2.5,1.25 Z M2.5,1 L2.5,0.75 L2.25,1 L2.5,1 Z M2,0.25 L2.25,0.25 L2,0 L2,0.25 Z M2,0.5 L2,0.75 L2.25,0.5 L2,0.5 Z M1.75,0.5 L1.5,0.5 L1.75,0.75 L1.75,0.5 Z M1.75,0.25 L1.75,0 L1.5,0.25 L1.75,0.25 Z M11,15.25 L11.25,15.25 L11,15 L11,15.25 Z M11,15.5 L11,15.75 L11.25,15.5 L11,15.5 Z M10.75,15.5 L10.5,15.5 L10.75,15.75 L10.75,15.5 Z M10.75,15.25 L10.75,15 L10.5,15.25 L10.75,15.25 Z M11.75,16 L12,16 L11.75,15.75 L11.75,16 Z M11.75,16.25 L11.75,16.5 L12,16.25 L11.75,16.25 Z M11.5,16.25 L11.25,16.25 L11.5,16.5 L11.5,16.25 Z M11.5,16 L11.5,15.75 L11.25,16 L11.5,16 Z M11,16.75 L11.25,16.75 L11,16.5 L11,16.75 Z M11,17 L11,17.25 L11.25,17 L11,17 Z M10.75,17 L10.5,17 L10.75,17.25 L10.75,17 Z M10.75,16.75 L10.75,16.5 L10.5,16.75 L10.75,16.75 Z M11.75,17.5 L12,17.5 L11.75,17.25 L11.75,17.5 Z M11.75,17.75 L11.75,18 L12,17.75 L11.75,17.75 Z M11.5,17.75 L11.25,17.75 L11.5,18 L11.5,17.75 Z M11.5,17.5 L11.5,17.25 L11.25,17.5 L11.5,17.5 Z M11.75,1 L12,1 L11.75,0.75 L11.75,1 Z M11.75,1.25 L11.75,1.5 L12,1.25 L11.75,1.25 Z M11.5,1.25 L11.25,1.25 L11.5,1.5 L11.5,1.25 Z M11.5,1 L11.5,0.75 L11.25,1 L11.5,1 Z M11,0.25 L11.25,0.25 L11,0 L11,0.25 Z M11,0.5 L11,0.75 L11.25,0.5 L11,0.5 Z M10.75,0.5 L10.5,0.5 L10.75,0.75 L10.75,0.5 Z M10.75,0.25 L10.75,0 L10.5,0.25 L10.75,0.25 Z M6.5,15.25 L6.75,15.25 L6.5,15 L6.5,15.25 Z M6.5,15.5 L6.5,15.75 L6.75,15.5 L6.5,15.5 Z M6.25,15.5 L6,15.5 L6.25,15.75 L6.25,15.5 Z M6.25,15.25 L6.25,15 L6,15.25 L6.25,15.25 Z M7.25,16 L7.5,16 L7.25,15.75 L7.25,16 Z M7.25,16.25 L7.25,16.5 L7.5,16.25 L7.25,16.25 Z M7,16.25 L6.75,16.25 L7,16.5 L7,16.25 Z M7,16 L7,15.75 L6.75,16 L7,16 Z M6.5,16.75 L6.75,16.75 L6.5,16.5 L6.5,16.75 Z M6.5,17 L6.5,17.25 L6.75,17 L6.5,17 Z M6.25,17 L6,17 L6.25,17.25 L6.25,17 Z M6.25,16.75 L6.25,16.5 L6,16.75 L6.25,16.75 Z M7.25,17.5 L7.5,17.5 L7.25,17.25 L7.25,17.5 Z M7.25,17.75 L7.25,18 L7.5,17.75 L7.25,17.75 Z M7,17.75 L6.75,17.75 L7,18 L7,17.75 Z M7,17.5 L7,17.25 L6.75,17.5 L7,17.5 Z M7.25,1 L7.5,1 L7.25,0.75 L7.25,1 Z M7.25,1.25 L7.25,1.5 L7.5,1.25 L7.25,1.25 Z M7,1.25 L6.75,1.25 L7,1.5 L7,1.25 Z M7,1 L7,0.75 L6.75,1 L7,1 Z M6.5,0.25 L6.75,0.25 L6.5,0 L6.5,0.25 Z M6.5,0.5 L6.5,0.75 L6.75,0.5 L6.5,0.5 Z M6.25,0.5 L6,0.5 L6.25,0.75 L6.25,0.5 Z M6.25,0.25 L6.25,0 L6,0.25 L6.25,0.25 Z M15.5,15.25 L15.75,15.25 L15.5,15 L15.5,15.25 Z M15.5,15.5 L15.5,15.75 L15.75,15.5 L15.5,15.5 Z M15.25,15.5 L15,15.5 L15.25,15.75 L15.25,15.5 Z M15.25,15.25 L15.25,15 L15,15.25 L15.25,15.25 Z M16.25,16 L16.5,16 L16.25,15.75 L16.25,16 Z M16.25,16.25 L16.25,16.5 L16.5,16.25 L16.25,16.25 Z M16,16.25 L15.75,16.25 L16,16.5 L16,16.25 Z M16,16 L16,15.75 L15.75,16 L16,16 Z M15.5,16.75 L15.75,16.75 L15.5,16.5 L15.5,16.75 Z M15.5,17 L15.5,17.25 L15.75,17 L15.5,17 Z M15.25,17 L15,17 L15.25,17.25 L15.25,17 Z M15.25,16.75 L15.25,16.5 L15,16.75 L15.25,16.75 Z M16.25,17.5 L16.5,17.5 L16.25,17.25 L16.25,17.5 Z M16.25,17.75 L16.25,18 L16.5,17.75 L16.25,17.75 Z M16,17.75 L15.75,17.75 L16,18 L16,17.75 Z M16,17.5 L16,17.25 L15.75,17.5 L16,17.5 Z M16.25,1 L16.5,1 L16.25,0.75 L16.25,1 Z M16.25,1.25 L16.25,1.5 L16.5,1.25 L16.25,1.25 Z M16,1.25 L15.75,1.25 L16,1.5 L16,1.25 Z M16,1 L16,0.75 L15.75,1 L16,1 Z M15.5,0.25 L15.75,0.25 L15.5,0 L15.5,0.25 Z M15.5,0.5 L15.5,0.75 L15.75,0.5 L15.5,0.5 Z M15.25,0.5 L15,0.5 L15.25,0.75 L15.25,0.5 Z M15.25,0.25 L15.25,0 L15,0.25 L15.25,0.25 Z M17,15.25 L17.25,15.25 L17,15 L17,15.25 Z M17,15.5 L17,15.75 L17.25,15.5 L17,15.5 Z M16.75,15.5 L16.5,15.5 L16.75,15.75 L16.75,15.5 Z M16.75,15.25 L16.75,15 L16.5,15.25 L16.75,15.25 Z M17.75,16 L18,16 L17.75,15.75 L17.75,16 Z M17.75,16.25 L17.75,16.5 L18,16.25 L17.75,16.25 Z M17.5,16.25 L17.25,16.25 L17.5,16.5 L17.5,16.25 Z M17.5,16 L17.5,15.75 L17.25,16 L17.5,16 Z M17,16.75 L17.25,16.75 L17,16.5 L17,16.75 Z M17,17 L17,17.25 L17.25,17 L17,17 Z M16.75,17 L16.5,17 L16.75,17.25 L16.75,17 Z M16.75,16.75 L16.75,16.5 L16.5,16.75 L16.75,16.75 Z M17.75,17.5 L18,17.5 L17.75,17.25 L17.75,17.5 Z M17.75,17.75 L17.75,18 L18,17.75 L17.75,17.75 Z M17.5,17.75 L17.25,17.75 L17.5,18 L17.5,17.75 Z M17.5,17.5 L17.5,17.25 L17.25,17.5 L17.5,17.5 Z M17.75,1 L18,1 L17.75,0.75 L17.75,1 Z M17.75,1.25 L17.75,1.5 L18,1.25 L17.75,1.25 Z M17.5,1.25 L17.25,1.25 L17.5,1.5 L17.5,1.25 Z M17.5,1 L17.5,0.75 L17.25,1 L17.5,1 Z M17,0.25 L17.25,0.25 L17,0 L17,0.25 Z M17,0.5 L17,0.75 L17.25,0.5 L17,0.5 Z M16.75,0.5 L16.5,0.5 L16.75,0.75 L16.75,0.5 Z M16.75,0.25 L16.75,0 L16.5,0.25 L16.75,0.25 Z M5,15.25 L5.25,15.25 L5,15 L5,15.25 Z M5,15.5 L5,15.75 L5.25,15.5 L5,15.5 Z M4.75,15.5 L4.5,15.5 L4.75,15.75 L4.75,15.5 Z M4.75,15.25 L4.75,15 L4.5,15.25 L4.75,15.25 Z M5.75,16 L6,16 L5.75,15.75 L5.75,16 Z M5.75,16.25 L5.75,16.5 L6,16.25 L5.75,16.25 Z M5.5,16.25 L5.25,16.25 L5.5,16.5 L5.5,16.25 Z M5.5,16 L5.5,15.75 L5.25,16 L5.5,16 Z M5,16.75 L5.25,16.75 L5,16.5 L5,16.75 Z M5,17 L5,17.25 L5.25,17 L5,17 Z M4.75,17 L4.5,17 L4.75,17.25 L4.75,17 Z M4.75,16.75 L4.75,16.5 L4.5,16.75 L4.75,16.75 Z M5.75,17.5 L6,17.5 L5.75,17.25 L5.75,17.5 Z M5.75,17.75 L5.75,18 L6,17.75 L5.75,17.75 Z M5.5,17.75 L5.25,17.75 L5.5,18 L5.5,17.75 Z M5.5,17.5 L5.5,17.25 L5.25,17.5 L5.5,17.5 Z M5.75,1 L6,1 L5.75,0.75 L5.75,1 Z M5.75,1.25 L5.75,1.5 L6,1.25 L5.75,1.25 Z M5.5,1.25 L5.25,1.25 L5.5,1.5 L5.5,1.25 Z M5.5,1 L5.5,0.75 L5.25,1 L5.5,1 Z M5,0.25 L5.25,0.25 L5,0 L5,0.25 Z M5,0.5 L5,0.75 L5.25,0.5 L5,0.5 Z M4.75,0.5 L4.5,0.5 L4.75,0.75 L4.75,0.5 Z M4.75,0.25 L4.75,0 L4.5,0.25 L4.75,0.25 Z M14,15.25 L14.25,15.25 L14,15 L14,15.25 Z M14,15.5 L14,15.75 L14.25,15.5 L14,15.5 Z M13.75,15.5 L13.5,15.5 L13.75,15.75 L13.75,15.5 Z M13.75,15.25 L13.75,15 L13.5,15.25 L13.75,15.25 Z M14.75,16 L15,16 L14.75,15.75 L14.75,16 Z M14.75,16.25 L14.75,16.5 L15,16.25 L14.75,16.25 Z M14.5,16.25 L14.25,16.25 L14.5,16.5 L14.5,16.25 Z M14.5,16 L14.5,15.75 L14.25,16 L14.5,16 Z M14,16.75 L14.25,16.75 L14,16.5 L14,16.75 Z M14,17 L14,17.25 L14.25,17 L14,17 Z M13.75,17 L13.5,17 L13.75,17.25 L13.75,17 Z M13.75,16.75 L13.75,16.5 L13.5,16.75 L13.75,16.75 Z M14.75,17.5 L15,17.5 L14.75,17.25 L14.75,17.5 Z M14.75,17.75 L14.75,18 L15,17.75 L14.75,17.75 Z M14.5,17.75 L14.25,17.75 L14.5,18 L14.5,17.75 Z M14.5,17.5 L14.5,17.25 L14.25,17.5 L14.5,17.5 Z M14.75,1 L15,1 L14.75,0.75 L14.75,1 Z M14.75,1.25 L14.75,1.5 L15,1.25 L14.75,1.25 Z M14.5,1.25 L14.25,1.25 L14.5,1.5 L14.5,1.25 Z M14.5,1 L14.5,0.75 L14.25,1 L14.5,1 Z M14,0.25 L14.25,0.25 L14,0 L14,0.25 Z M14,0.5 L14,0.75 L14.25,0.5 L14,0.5 Z M13.75,0.5 L13.5,0.5 L13.75,0.75 L13.75,0.5 Z M13.75,0.25 L13.75,0 L13.5,0.25 L13.75,0.25 Z M9.5,15.25 L9.75,15.25 L9.5,15 L9.5,15.25 Z M9.5,15.5 L9.5,15.75 L9.75,15.5 L9.5,15.5 Z M9.25,15.5 L9,15.5 L9.25,15.75 L9.25,15.5 Z M9.25,15.25 L9.25,15 L9,15.25 L9.25,15.25 Z M10.25,16 L10.5,16 L10.25,15.75 L10.25,16 Z M10.25,16.25 L10.25,16.5 L10.5,16.25 L10.25,16.25 Z M10,16.25 L9.75,16.25 L10,16.5 L10,16.25 Z M10,16 L10,15.75 L9.75,16 L10,16 Z M9.5,16.75 L9.75,16.75 L9.5,16.5 L9.5,16.75 Z M9.5,17 L9.5,17.25 L9.75,17 L9.5,17 Z M9.25,17 L9,17 L9.25,17.25 L9.25,17 Z M9.25,16.75 L9.25,16.5 L9,16.75 L9.25,16.75 Z M10.25,17.5 L10.5,17.5 L10.25,17.25 L10.25,17.5 Z M10.25,17.75 L10.25,18 L10.5,17.75 L10.25,17.75 Z M10,17.75 L9.75,17.75 L10,18 L10,17.75 Z M10,17.5 L10,17.25 L9.75,17.5 L10,17.5 Z M10.25,1 L10.5,1 L10.25,0.75 L10.25,1 Z M10.25,1.25 L10.25,1.5 L10.5,1.25 L10.25,1.25 Z M10,1.25 L9.75,1.25 L10,1.5 L10,1.25 Z M10,1 L10,0.75 L9.75,1 L10,1 Z M9.5,0.25 L9.75,0.25 L9.5,0 L9.5,0.25 Z M9.5,0.5 L9.5,0.75 L9.75,0.5 L9.5,0.5 Z M9.25,0.5 L9,0.5 L9.25,0.75 L9.25,0.5 Z M9.25,0.25 L9.25,0 L9,0.25 L9.25,0.25 Z M3.5,15.25 L3.75,15.25 L3.5,15 L3.5,15.25 Z M3.5,15.5 L3.5,15.75 L3.75,15.5 L3.5,15.5 Z M3.25,15.5 L3,15.5 L3.25,15.75 L3.25,15.5 Z M3.25,15.25 L3.25,15 L3,15.25 L3.25,15.25 Z M4.25,16 L4.5,16 L4.25,15.75 L4.25,16 Z M4.25,16.25 L4.25,16.5 L4.5,16.25 L4.25,16.25 Z M4,16.25 L3.75,16.25 L4,16.5 L4,16.25 Z M4,16 L4,15.75 L3.75,16 L4,16 Z M3.5,16.75 L3.75,16.75 L3.5,16.5 L3.5,16.75 Z M3.5,17 L3.5,17.25 L3.75,17 L3.5,17 Z M3.25,17 L3,17 L3.25,17.25 L3.25,17 Z M3.25,16.75 L3.25,16.5 L3,16.75 L3.25,16.75 Z M4.25,17.5 L4.5,17.5 L4.25,17.25 L4.25,17.5 Z M4.25,17.75 L4.25,18 L4.5,17.75 L4.25,17.75 Z M4,17.75 L3.75,17.75 L4,18 L4,17.75 Z M4,17.5 L4,17.25 L3.75,17.5 L4,17.5 Z M4.25,1 L4.5,1 L4.25,0.75 L4.25,1 Z M4.25,1.25 L4.25,1.5 L4.5,1.25 L4.25,1.25 Z M4,1.25 L3.75,1.25 L4,1.5 L4,1.25 Z M4,1 L4,0.75 L3.75,1 L4,1 Z M3.5,0.25 L3.75,0.25 L3.5,0 L3.5,0.25 Z M3.5,0.5 L3.5,0.75 L3.75,0.5 L3.5,0.5 Z M3.25,0.5 L3,0.5 L3.25,0.75 L3.25,0.5 Z M3.25,0.25 L3.25,0 L3,0.25 L3.25,0.25 Z M12.5,15.25 L12.75,15.25 L12.5,15 L12.5,15.25 Z M12.5,15.5 L12.5,15.75 L12.75,15.5 L12.5,15.5 Z M12.25,15.5 L12,15.5 L12.25,15.75 L12.25,15.5 Z M12.25,15.25 L12.25,15 L12,15.25 L12.25,15.25 Z M13.25,16 L13.5,16 L13.25,15.75 L13.25,16 Z M13.25,16.25 L13.25,16.5 L13.5,16.25 L13.25,16.25 Z M13,16.25 L12.75,16.25 L13,16.5 L13,16.25 Z M13,16 L13,15.75 L12.75,16 L13,16 Z M12.5,16.75 L12.75,16.75 L12.5,16.5 L12.5,16.75 Z M12.5,17 L12.5,17.25 L12.75,17 L12.5,17 Z M12.25,17 L12,17 L12.25,17.25 L12.25,17 Z M12.25,16.75 L12.25,16.5 L12,16.75 L12.25,16.75 Z M13.25,17.5 L13.5,17.5 L13.25,17.25 L13.25,17.5 Z M13.25,17.75 L13.25,18 L13.5,17.75 L13.25,17.75 Z M13,17.75 L12.75,17.75 L13,18 L13,17.75 Z M13,17.5 L13,17.25 L12.75,17.5 L13,17.5 Z M13.25,1 L13.5,1 L13.25,0.75 L13.25,1 Z M13.25,1.25 L13.25,1.5 L13.5,1.25 L13.25,1.25 Z M13,1.25 L12.75,1.25 L13,1.5 L13,1.25 Z M13,1 L13,0.75 L12.75,1 L13,1 Z M12.5,0.25 L12.75,0.25 L12.5,0 L12.5,0.25 Z M12.5,0.5 L12.5,0.75 L12.75,0.5 L12.5,0.5 Z M12.25,0.5 L12,0.5 L12.25,0.75 L12.25,0.5 Z M12.25,0.25 L12.25,0 L12,0.25 L12.25,0.25 Z M8,15.25 L8.25,15.25 L8,15 L8,15.25 Z M8,15.5 L8,15.75 L8.25,15.5 L8,15.5 Z M7.75,15.5 L7.5,15.5 L7.75,15.75 L7.75,15.5 Z M7.75,15.25 L7.75,15 L7.5,15.25 L7.75,15.25 Z M8.75,16 L9,16 L8.75,15.75 L8.75,16 Z M8.75,16.25 L8.75,16.5 L9,16.25 L8.75,16.25 Z M8.5,16.25 L8.25,16.25 L8.5,16.5 L8.5,16.25 Z M8.5,16 L8.5,15.75 L8.25,16 L8.5,16 Z M8,16.75 L8.25,16.75 L8,16.5 L8,16.75 Z M8,17 L8,17.25 L8.25,17 L8,17 Z M7.75,17 L7.5,17 L7.75,17.25 L7.75,17 Z M7.75,16.75 L7.75,16.5 L7.5,16.75 L7.75,16.75 Z M8.75,17.5 L9,17.5 L8.75,17.25 L8.75,17.5 Z M8.75,17.75 L8.75,18 L9,17.75 L8.75,17.75 Z M8.5,17.75 L8.25,17.75 L8.5,18 L8.5,17.75 Z M8.5,17.5 L8.5,17.25 L8.25,17.5 L8.5,17.5 Z M8.75,1 L9,1 L8.75,0.75 L8.75,1 Z M8.75,1.25 L8.75,1.5 L9,1.25 L8.75,1.25 Z M8.5,1.25 L8.25,1.25 L8.5,1.5 L8.5,1.25 Z M8.5,1 L8.5,0.75 L8.25,1 L8.5,1 Z M8,0.25 L8.25,0.25 L8,0 L8,0.25 Z M8,0.5 L8,0.75 L8.25,0.5 L8,0.5 Z M7.75,0.5 L7.5,0.5 L7.75,0.75 L7.75,0.5 Z M7.75,0.25 L7.75,0 L7.5,0.25 L7.75,0.25 Z" id="Combined-Shape" opacity="0.1"></path>
                    </g>
                    <g id="线" stroke="#4A4A4A" stroke-width="0.5">
                        <path d="M9,0 L9,18" id="Line" opacity="0.15"></path>
                        <path d="M6,0 L6,18" id="Line" opacity="0.15"></path>
                        <path d="M1.5,0 L1.5,18" id="Line" opacity="0.15"></path>
                        <path d="M12,0 L12,18" id="Line" opacity="0.15"></path>
                        <path d="M16.5,0 L16.5,18" id="Line" opacity="0.15"></path>
                        <path d="M17.925,12 L-4.26325641e-15,12" id="Line" opacity="0.16343471" transform="translate(8.962500, 12.000000) scale(-1, -1) translate(-8.962500, -12.000000) "></path>
                        <path d="M17.925,16.5 L-4.26325641e-15,16.5" id="Line" opacity="0.15" transform="translate(8.962500, 16.500000) scale(-1, -1) translate(-8.962500, -16.500000) "></path>
                        <path d="M17.925,9 L-4.26325641e-15,9" id="Line" opacity="0.15" transform="translate(8.962500, 9.000000) scale(-1, -1) translate(-8.962500, -9.000000) "></path>
                        <path d="M17.925,6 L-4.26325641e-15,6" id="Line" opacity="0.15" transform="translate(8.962500, 6.000000) scale(-1, -1) translate(-8.962500, -6.000000) "></path>
                        <path d="M17.925,1.5 L-4.26325641e-15,1.5" id="Line" opacity="0.15" transform="translate(8.962500, 1.500000) scale(-1, -1) translate(-8.962500, -1.500000) "></path>
                        <path d="M0,0 L18,18" id="Line" opacity="0.2"></path>
                        <path d="M0,0 L18,18" id="Line" opacity="0.2" transform="translate(9.000000, 9.000000) scale(-1, 1) translate(-9.000000, -9.000000) "></path>
                    </g>
                    <g id="栅格" opacity="0.5" transform="translate(1.500000, 1.500000)" stroke="#9B9B9B" stroke-width="0.5">
                        <circle id="正圆" cx="7.5" cy="7.5" r="7.25"></circle>
                        <rect id="正方形" x="1" y="1" width="13" height="13" rx="0.75"></rect>
                        <rect id="竖矩形" x="1.75" y="0.25" width="11.5" height="14.5" rx="0.75"></rect>
                        <rect id="横矩形" transform="translate(7.500000, 7.500000) scale(-1, -1) rotate(90.000000) translate(-7.500000, -7.500000) " x="1.75" y="0.25" width="11.5" height="14.5" rx="0.75"></rect>
                        <circle id="中心圆" cx="7.5" cy="7.5" r="3.5"></circle>
                    </g>
                </g>
            </g>
            <path d="M16,15.601798 L16,13.851798 C16,13.4375844 16.3357864,13.101798 16.75,13.101798 C17.1642136,13.101798 17.5,13.4375844 17.5,13.851798 L17.5,15.601798 C17.5,16.1454492 17.2107821,16.6215499 16.7778143,16.884632 C16.6422945,17.0188831 16.4558302,17.101798 16.25,17.101798 L3.75,17.101798 C3.54416985,17.101798 3.35770551,17.0188831 3.22218565,16.884632 C2.78921795,16.6215499 2.5,16.1454492 2.5,15.601798 L2.5,13.851798 C2.5,13.4375844 2.83578644,13.101798 3.25,13.101798 C3.66421356,13.101798 4,13.4375844 4,13.851798 L4,15.601798 L16,15.601798 Z M5.2439905,7.05914931 C5.16634481,7.11560016 5.12040372,7.20580031 5.12040372,7.30179797 C5.12040372,7.4674834 5.25471829,7.60179797 5.42040372,7.60179797 L7,7.60179797 C7.55228475,7.60179797 8,8.04951322 8,8.60179797 L8,12.101798 C8,12.3779403 8.22385763,12.601798 8.5,12.601798 L11.5,12.601798 C11.7761424,12.601798 12,12.3779403 12,12.101798 L12,8.60179797 C12,8.04951322 12.4477153,7.60179797 13,7.60179797 L14.577367,7.60179797 C14.6733532,7.60179797 14.763544,7.55586776 14.8199966,7.47823744 C14.9174414,7.34423682 14.8878071,7.15661321 14.7538064,7.05916839 L10.2934583,3.81561736 C10.1181576,3.68813927 9.88068494,3.68812643 9.70537048,3.81558556 L5.2439905,7.05914931 Z M13.5,9.10179797 L13.5,12.101798 C13.5,13.2063675 12.6045695,14.101798 11.5,14.101798 L8.5,14.101798 C7.3954305,14.101798 6.5,13.2063675 6.5,12.101798 L6.5,9.10179797 L5.42040372,9.10179797 C4.42629117,9.10179797 3.62040372,8.29591052 3.62040372,7.30179797 C3.62040372,6.72581198 3.89605028,6.18461112 4.36192439,5.84590597 L8.82330437,2.60234223 C9.52456219,2.09250571 10.4744529,2.09255708 11.1756556,2.60246943 L15.6360038,5.84602046 C16.4400075,6.43068942 16.6178134,7.55643104 16.0331445,8.36043476 C15.6944293,8.82621672 15.1532843,9.10179797 14.577367,9.10179797 L13.5,9.10179797 Z" id="合并形状" fill="#FFFFFF"></path>
            <rect id="矩形" x="0" y="5.68434189e-14" width="20" height="20"></rect>
        </g>
    </g>
</svg>