<?xml version="1.0" encoding="UTF-8"?>
<svg width="18px" height="18px" viewBox="0 0 18 18" version="1.1" xmlns="http://www.w3.org/2000/svg" xmlns:xlink="http://www.w3.org/1999/xlink">
    <title>icon_up_web</title>
    <defs>
        <linearGradient x1="84.8208452%" y1="84.0093688%" x2="-1.11022302e-14%" y2="12.4444444%" id="linearGradient-1">
            <stop stop-color="#F24D86" offset="0%"></stop>
            <stop stop-color="#FFB1CC" offset="100%"></stop>
        </linearGradient>
    </defs>
    <g id="icon_up_web" stroke="none" stroke-width="1" fill="none" fill-rule="evenodd">
        <path d="M4,11.9002901 C2.21916179,10.9899345 1,9.13734251 1,7 L1,4.5 C1,3.94771525 1.44771525,3.5 2,3.5 L4,3.5 L4,3 C4,2.44771525 4.44771525,2 5,2 L10.5,2 C13.5375661,2 16,4.46243388 16,7.5 C16,10.5375661 13.5375661,13 10.5,13 L9,13 L9,14 C9,14.5522847 8.55228475,15 8,15 L5,15 C4.44771525,15 4,14.5522847 4,14 L4,11.9002926 L4,11.9002901 Z" id="路径" fill="url(#linearGradient-1)" fill-rule="nonzero"></path>
        <path d="M10.5,2 C13.5375661,2 16,4.46243388 16,7.5 C16,10.5375661 13.5375661,13 10.5,13 L9,13 L9,14 C9,14.5522847 8.55228475,15 8,15 L5,15 C4.44771525,15 4,14.5522847 4,14 L4,11.9002926 C2.21916179,10.9899345 1,9.13734251 1,7 L1,4.5 C1,3.94771525 1.44771525,3.5 2,3.5 L4,3.5 L4,3 C4,2.44771525 4.44771525,2 5,2 L10.5,2 Z M10.5,3 L5,3 L5,4.5 L2,4.5 L2,7 C2,8.63447041 2.87858138,10.111728 4.26325079,10.9058789 L4.45517128,11.0098887 L5,11.2884032 L5,14 L8,14 L8,12 L10.5,12 C12.9852814,12 15,9.98528137 15,7.5 C15,5.01471863 12.9852814,3 10.5,3 Z" id="路径" fill="#DD3496" fill-rule="nonzero"></path>
        <path d="M4.75,4.5 L2.25,4.5 C2.11192881,4.5 2,4.61192881 2,4.75 L2,7 L2,7 C2,9.48528137 4.01471863,11.5 6.5,11.5 C8.98528137,11.5 11,9.48528137 11,7 L11,4.75 C11,4.61192881 10.8880712,4.5 10.75,4.5 L8.25,4.5 C8.11192881,4.5 8,4.61192881 8,4.75 L8,7 L8,7 C8,7.82842712 7.32842712,8.5 6.5,8.5 C5.67157288,8.5 5,7.82842712 5,7 L5,4.75 C5,4.61192881 4.88807119,4.5 4.75,4.5 Z" id="路径" fill="#FFF700" fill-rule="nonzero"></path>
        <circle id="椭圆形" fill="#FFFFFF" fill-rule="nonzero" opacity="0.7" cx="5.29411765" cy="4.23529412" r="1.05882353"></circle>
    </g>
</svg>