<?xml version="1.0" encoding="UTF-8"?>
<svg width="14px" height="14px" viewBox="0 0 14 14" version="1.1" xmlns="http://www.w3.org/2000/svg" xmlns:xlink="http://www.w3.org/1999/xlink">
    <!-- Generator: Sketch 59 (86127) - https://sketch.com -->
    <title>icon_cover</title>
    <desc>Created with Sketch.</desc>
    <g id="icon_cover" stroke="none" stroke-width="1" fill="none" fill-rule="evenodd">
        <g id="icon_播放数" transform="translate(1.166667, 1.166667)" fill-rule="nonzero">
            <path d="M10.8493481,3.47448214 C11.1865097,4.1901957 11.375,4.98975239 11.375,5.83333333 C11.375,8.89391132 8.89391132,11.375 5.83333333,11.375 C2.77275534,11.375 0.291666667,8.89391132 0.291666667,5.83333333 C0.291666667,2.77275534 2.77275534,0.291666667 5.83333333,0.291666667 C6.83073886,0.291666667 7.7666009,0.555165637 8.57510459,1.01634872 C9.56371377,1.58026676 10.3619029,2.43975253 10.8493481,3.47448214 Z" id="形状" stroke="#FFFFFF" stroke-width="1.16666667" stroke-linecap="round" stroke-linejoin="round"></path>
            <path d="M8.22381332,6.23177247 L4.72197875,8.11548997 C4.5082809,8.23044297 4.24455801,8.1452229 4.13293719,7.92514563 C4.1003515,7.86089803 4.08333333,7.78948878 4.08333333,7.71700482 L4.08333333,3.94956981 C4.08333333,3.70127926 4.27877807,3.5 4.51987136,3.5 C4.59025421,3.5 4.65959351,3.5175262 4.72197875,3.55108466 L8.22381332,5.43480216 C8.43751116,5.54975515 8.52026093,5.82135085 8.40864011,6.04142812 C8.36735488,6.12282816 8.3028538,6.18925477 8.22381332,6.23177247 Z" id="Polygon"></path>
            <path d="M6.91133234,4.29146508 L8.77552122,7.27416728 C8.94626891,7.54736359 8.8632179,7.90725132 8.59002159,8.07799901 C8.49731149,8.13594282 8.39018371,8.16666667 8.28085554,8.16666667 L4.55247779,8.16666667 C4.23031169,8.16666667 3.96914446,7.90549944 3.96914446,7.58333333 C3.96914446,7.47400517 3.9998683,7.36687739 4.05781211,7.27416728 L5.92200099,4.29146508 C6.09274868,4.01826877 6.45263641,3.93521776 6.72583272,4.10596545 C6.80094804,4.15291253 6.86438526,4.21634976 6.91133234,4.29146508 Z" id="三角形" stroke="#FFFFFF" stroke-width="1.16666667" stroke-linecap="round" stroke-linejoin="round" transform="translate(6.416667, 5.833333) rotate(90.000000) translate(-6.416667, -5.833333) "></path>
        </g>
    </g>
</svg>