<?xml version="1.0" encoding="UTF-8"?>
<svg width="20px" height="20px" viewBox="0 0 20 20" version="1.1" xmlns="http://www.w3.org/2000/svg" xmlns:xlink="http://www.w3.org/1999/xlink">
    <!-- Generator: Sketch 59 (86127) - https://sketch.com -->
    <title>icon_to_comm</title>
    <desc>Created with Sketch.</desc>
    <g id="icon_to_comm" stroke="none" stroke-width="1" fill="none" fill-rule="evenodd">
        <g id="icon_comments_big" transform="translate(-1.000000, -2.000000)">
            <rect id="矩形" opacity="0.758207775" x="0" y="0" width="22" height="22"></rect>
            <path d="M7,17 L4,17 C2.8954305,17 2,16.1045695 2,15 L2,6 C2,4.8954305 2.8954305,4 4,4 L18,4 C19.1045695,4 20,4.8954305 20,6 L20,15 C20,16.1045695 19.1045695,17 18,17 L12,17 L12,17 L8,21" id="路径-4" stroke="#333333" stroke-width="2" stroke-linecap="round" stroke-linejoin="round"></path>
            <circle id="椭圆形备份-11" fill="#333333" cx="11" cy="10.5" r="1.5"></circle>
            <circle id="椭圆形备份-13" fill="#333333" cx="15.5" cy="10.5" r="1.5"></circle>
            <circle id="椭圆形备份-12" fill="#333333" cx="6.5" cy="10.5" r="1.5"></circle>
            <rect id="矩形" x="1" y="2" width="20" height="20"></rect>
        </g>
    </g>
</svg>