<?xml version="1.0" encoding="UTF-8"?>
<svg width="94px" height="30px" viewBox="0 0 94 30" version="1.1" xmlns="http://www.w3.org/2000/svg" xmlns:xlink="http://www.w3.org/1999/xlink">
    <!-- Generator: Sketch 56.2 (81672) - https://sketch.com -->
    <title>acfunlogo</title>
    <desc>Created with Sketch.</desc>
    <g id="acfunlogo" stroke="none" stroke-width="1" fill="none" fill-rule="evenodd">
        <g id="分组">
            <rect id="矩形" x="0.00150459328" y="0" width="92.9730825" height="30"></rect>
            <path d="M14.9272644,0.475974615 L30.081823,24.2475068 L23.1101877,28.4088849 C22.6962036,27.5826982 22.2520646,26.730477 21.7777709,25.8522212 C21.3034771,24.9739654 20.7561544,23.9902846 20.1358027,22.9011786 L9.55722095,23.4995467 L7.22885626,28.4360834 L0.553313566,24.6826836 C3.30156943,19.9667944 6.0695868,15.2614453 8.85736566,10.5666364 C11.6451445,5.87182758 13.6684441,2.50827363 14.9272644,0.475974615 Z M14.7926768,11.9265639 L11.8048331,18.2366274 L17.7401442,17.9238441 L14.7926768,11.9265639 Z" id="合并形状" fill="#FD4C5D"></path>
            <path d="M41.7505639,9.356301 C41.7505639,9.356301 41.9928215,13.7080689 41.9928215,13.7080689 C39.6375393,14.0208522 35.3711139,15.6663645 35.3711139,18.8213962 C35.3711139,21.9764279 39.7182919,22.1532185 42.3831254,21.8268359 C42.3831254,21.8268359 42.5984655,25.9746147 42.5984655,25.9746147 C38.0359474,26.681777 30.7682195,25.7162285 30.2837043,19.5285585 C29.7991891,13.3408885 35.5864539,10.1042611 41.7505639,9.356301 Z" id="路径-3" fill="#FD4C5D"></path>
            <path d="M44.5634438,6.55485041 C46.0493707,6.52817982 47.8214402,6.47831581 49.8796522,6.40525839 C51.9378642,6.33220096 53.9970538,6.24607222 56.0572209,6.14687217 L56.1514322,10.6618314 L50.3776262,10.7978241 L50.3776262,15.0135993 L55.6534583,14.7688123 L55.7342108,19.0797824 L50.3776262,19.0389846 L50.4045437,25.988214 L44.5634438,25.988214 C44.6262513,23.5086129 44.6576551,20.4125113 44.6576551,16.6999093 C44.6576551,12.9873073 44.6262513,9.60562103 44.5634438,6.55485041 Z" id="路径-4" fill="#FD4C5D"></path>
            <path d="M63.2441963,9.69628286 C63.1096088,11.2466002 63.0647463,13.1414325 63.1096088,15.3807797 C63.1769026,18.7398005 63.0381836,22.2300956 65.8686537,22.3300091 C68.9507086,22.4388033 68.7353686,18.9709882 68.7353686,15.5575703 C68.7353686,13.2819583 68.6949923,11.2103354 68.6142398,9.34270172 C72.0596811,9.34270172 73.7824018,9.34270172 73.7824018,9.34270172 C73.7824018,16.6727108 75.2224887,26.3825929 65.3572209,26.1106074 C56.6515948,25.8705933 58.0760343,17.7294496 57.9952817,9.69628286 C57.9952817,9.69628286 59.7449199,9.69628286 63.2441963,9.69628286 Z" id="路径-5" fill="#FD4C5D"></path>
            <path d="M76.3395654,9.15231188 L75.42437,25.7570263 L80.0272644,25.9066183 L79.9734293,17.6382593 C82.5411849,19.6920076 84.6542095,21.3556522 86.3125031,22.6291931 C87.9707968,23.902734 89.6531412,25.1538673 91.3595364,26.3825929 L92.3285668,9.57388939 L87.7391312,9.46509519 L87.7795075,17.8014506 L76.3395654,9.15231188 Z" id="路径-6" fill="#FD4C5D"></path>
        </g>
        <rect id="矩形" x="0" y="5.68434189e-14" width="94" height="30"></rect>
    </g>
</svg>