<?xml version="1.0" standalone="no"?>
<!DOCTYPE svg PUBLIC "-//W3C//DTD SVG 1.1//EN" "http://www.w3.org/Graphics/SVG/1.1/DTD/svg11.dtd" >
<svg xmlns="http://www.w3.org/2000/svg">
<metadata>
Created by FontForge 20120731 at Mon Apr 10 15:38:02 2017
 By admin
</metadata>
<defs>
<font id="iconfont" horiz-adv-x="1024" >
  <font-face 
    font-family="iconfont"
    font-weight="500"
    font-stretch="normal"
    units-per-em="1024"
    panose-1="2 0 6 3 0 0 0 0 0 0"
    ascent="896"
    descent="-128"
    x-height="792"
    bbox="0 -212 1314 896"
    underline-thickness="0"
    underline-position="0"
    unicode-range="U+0078-E646"
  />
<missing-glyph 
 />
    <glyph glyph-name=".notdef" 
 />
    <glyph glyph-name=".notdef" 
 />
    <glyph glyph-name=".null" horiz-adv-x="0" 
 />
    <glyph glyph-name="nonmarkingreturn" horiz-adv-x="341" 
 />
    <glyph glyph-name="x" unicode="x" horiz-adv-x="1001" 
d="M281 543q-27 -1 -53 -1h-83q-18 0 -36.5 -6t-32.5 -18.5t-23 -32t-9 -45.5v-76h912v41q0 16 -0.5 30t-0.5 18q0 13 -5 29t-17 29.5t-31.5 22.5t-49.5 9h-133v-97h-438v97zM955 310v-52q0 -23 0.5 -52t0.5 -58t-10.5 -47.5t-26 -30t-33 -16t-31.5 -4.5q-14 -1 -29.5 -0.5
t-29.5 0.5h-32l-45 128h-439l-44 -128h-29h-34q-20 0 -45 1q-25 0 -41 9.5t-25.5 23t-13.5 29.5t-4 30v167h911zM163 247q-12 0 -21 -8.5t-9 -21.5t9 -21.5t21 -8.5q13 0 22 8.5t9 21.5t-9 21.5t-22 8.5zM316 123q-8 -26 -14 -48q-5 -19 -10.5 -37t-7.5 -25t-3 -15t1 -14.5
t9.5 -10.5t21.5 -4h37h67h81h80h64h36q23 0 34 12t2 38q-5 13 -9.5 30.5t-9.5 34.5q-5 19 -11 39h-368zM336 498v228q0 11 2.5 23t10 21.5t20.5 15.5t34 6h188q31 0 51.5 -14.5t20.5 -52.5v-227h-327z" />
    <glyph glyph-name="search" unicode="&#xe603;" 
d="M938 57l-214 216q-2 2 -8 7q57 89 57 194q0 98 -47.5 180t-129 130t-178 48t-178 -48t-129 -130t-47.5 -179.5t47.5 -179.5t129 -130t178.5 -48q104 0 193 58q4 -6 6 -8l214 -216q22 -22 53 -22t53 22t22 53t-22 53v0zM418.5 230q-100.5 0 -171.5 71.5t-71 173t71 173
t171.5 71.5t171.5 -71.5t71 -173t-71 -173t-171.5 -71.5z" />
    <glyph glyph-name="success" unicode="&#xe619;" 
d="M858 779q-64 -34 -137 -98h-506v-248l-99 -49q42 -15 99 -57v-190v0v-50h593v425q30 17 49 21q-17 40 -18 79t8.5 91.5t10.5 75.5zM264 634h405q-66 -65 -133 -146.5t-101 -129t-34 -48.5l-87 173l-50 -25v176zM264 289q84 -70 149 -152h-149v152zM760 137h-347
q36 68 143.5 173t203.5 171v-344z" />
    <glyph glyph-name="error" unicode="&#xe61a;" 
d="M513 749q-100 0 -184.5 -49t-133.5 -133.5t-49 -184t49 -184t133.5 -133.5t184 -49t184 49t133.5 133.5t49 184t-49 184t-133.5 133.5t-183.5 49v0zM574 627l-17 -346h-89l-17 346h123zM510 116q-28 0 -44.5 18t-16.5 44q0 27 17.5 44.5t44.5 17.5q28 0 45 -17.5
t17 -44.5t-17.5 -44.5t-45.5 -17.5v0z" />
    <glyph glyph-name="warning" unicode="&#xe61b;" 
d="M877 92l-326 637q-13 26 -39 26t-39 -26l-325 -637q-14 -28 0 -55q13 -25 38 -25h652q25 0 38 25q15 27 1 55v0zM551 149q0 -6 -3.5 -10t-8.5 -4h-41q-5 0 -8.5 4t-3.5 10v25q0 6 3.5 10.5t8.5 4.5h41q5 0 8.5 -4.5t3.5 -10.5v-25zM548 259q-4 -4 -9 -4h-41
q-5 0 -8.5 4.5t-3.5 10.5v104v163q0 6 3.5 10t8.5 4h41q5 0 8.5 -4t3.5 -10v-162v-105q0 -6 -3 -11v0zM548 259z" />
    <glyph glyph-name="logout" unicode="&#xe60d;" 
d="M512 -128q-122 0 -225 60t-163 163t-60 225q0 132 70.5 240t185.5 162v-147q-59 -45 -93.5 -111.5t-34.5 -143.5q0 -133 93.5 -226.5t226.5 -93.5t226.5 93.5t93.5 226.5q0 77 -34.5 143.5t-93.5 111.5v147q115 -55 185.5 -163t70.5 -239q0 -91 -35.5 -174t-95.5 -143
t-143 -95.5t-174 -35.5zM576 448q0 -26 -19 -45t-45 -19q-27 0 -45.5 18.5t-18.5 45.5v384q0 26 19 45t45 19t45 -19t19 -45v-384z" />
    <glyph glyph-name="help" unicode="&#xe622;" 
d="M450 124v-93h93v93h-93zM689 444q21 36 21 80q0 75 -58 127.5t-155 52.5q-91 0 -147 -49t-67 -142l83 -10q11 69 46 101.5t87 32.5q53 0 90 -35.5t37 -83.5q0 -26 -12.5 -48t-54.5 -59.5t-59 -56.5q-22 -27 -32 -53q-13 -35 -13 -82v-25h78q1 49 7 70.5t18 38.5t52 52
q59 52 79 89v0z" />
    <glyph glyph-name="arrow-round-right" unicode="&#xe613;" 
d="M512 833q-91 0 -174 -35.5t-143.5 -95.5t-96 -143t-35.5 -174t35.5 -174t96 -143t143.5 -95.5t174 -35.5t174 35.5t143 95.5t95.5 143t35.5 174t-35.5 174t-95.5 143t-143 95.5t-174 35.5zM724 365q0 -1 -1 -3q-1 0 -1 -1q-3 -6 -6 -9v0h-1q-1 -2 -2 -3l-262 -252
q-14 -14 -34 -14q-22 0 -36 15q-15 15 -14.5 35.5t15.5 35.5l226 217l-227 215q-15 14 -15.5 34.5t13.5 35.5q15 16 36 16q20 0 35 -14l264 -250q12 -11 15 -27t-5 -31z" />
    <glyph glyph-name="comments" unicode="&#xe600;" 
d="M966 674v44q0 37 -24 63t-61 26h-750q-37 -2 -59.5 -20t-22.5 -52v-549q1 -36 27 -60.5t61 -24.5h47v0h173q44 0 44 33q0 18 -12.5 27.5t-31.5 9.5h-189q-25 1 -35.5 8.5t-13.5 27.5v493q3 19 14 26t35 9l728 1v-1h-57q32 -1 43.5 -8.5t13.5 -33.5v-480q-2 -25 -12 -33.5
t-39 -9.5h-313h-1.5h-1.5q-6 0 -12 -2q-1 0 -4 -2v0q-9 -3 -15 -11l-178 -177q-14 -13 -16.5 -30.5t9.5 -30.5q14 -13 31.5 -10t31.5 17l178 177h327q36 0 61 26t25 63v44v0v440h-1v0zM896 170h-24l24 1v-1zM839 735h-30h30zM260 453q0 -22 15.5 -37.5t37.5 -15.5t37.5 15.5
t15.5 37.5t-15.5 37.5t-37.5 15.5t-37.5 -15.5t-15.5 -37.5zM560 453q0 22 -15.5 37.5t-37.5 15.5t-37.5 -15.5t-15.5 -37.5t15.5 -37.5t37.5 -15.5t37.5 15.5t15.5 37.5zM755 453q0 22 -15.5 37.5t-37.5 15.5t-37.5 -15.5t-15.5 -37.5t15.5 -37.5t37.5 -15.5t37.5 15.5
t15.5 37.5z" />
    <glyph glyph-name="envelope" unicode="&#xe62e;" horiz-adv-x="1434" 
d="M723 263l-590 351v-550q0 -42 32.5 -72t78.5 -30h959q46 0 78.5 30t32.5 72v550zM244 806q-43 0 -74.5 -26t-36.5 -65v-11l590 -350l591 350q0 6 -1 11q-4 39 -35.5 65t-74.5 26h-959z" />
    <glyph glyph-name="info" unicode="&#xe61c;" 
d="M512 768q-159 0 -271.5 -112.5t-112.5 -271.5t112.5 -271.5t271.5 -112.5t271.5 112.5t112.5 271.5t-112.5 271.5t-271.5 112.5zM577 128h-128v321h128v-321zM512 512q-26 0 -44.5 19t-18.5 46q0 26 18.5 44.5t44.5 18.5t45.5 -18.5t19.5 -44.5q0 -27 -19 -46t-46 -19z
" />
    <glyph glyph-name="yonghu" unicode="&#xe60c;" 
d="M921 44q-111 38 -153 51l-155 52v51q4 4 11 12t24.5 37t31 61.5t25 86t11.5 110.5v56v45q0 93 -58 146.5t-146 59.5v0v0v0v-1q-88 -5 -146 -58.5t-58 -146.5v-45v-56q0 -33 3.5 -64.5t9.5 -57t14 -49t16.5 -42t17 -34t16 -26.5t13.5 -19t9.5 -11.5l3.5 -3.5v-51
q-78 -28 -155 -52q-42 -13 -153 -51q-82 -28 -100 -164l-3 -40v-52h512h512v52l-6 54q-20 124 -97 150z" />
    <glyph glyph-name="app-phone" unicode="&#xe604;" 
d="M750 896h-476q-34 0 -58 -24t-24 -58v-859q0 -34 24 -58t58 -24h476q34 0 58 24t24 58v859q0 34 -24 58t-58 24zM274 832h476q7 0 12 -5.5t5 -12.5v-686h-510v686q0 7 5 12.5t12 5.5zM448 0.5q0 26.5 18.5 45t45 18.5t45.5 -18.5t19 -45t-19 -45t-45.5 -18.5t-45 18.5
t-18.5 45zM448 1v0q0 -27 18.5 -45.5t45 -18.5t45.5 18.5t19 45.5v0v0q0 26 -19 44.5t-45.5 18.5t-45 -18.5t-18.5 -44.5v0z" />
    <glyph glyph-name="close" unicode="&#xe616;" 
d="M576 384l256 256q14 14 14 32.5t-13.5 32t-32 13.5t-32.5 -14l-256 -256l-256 256q-14 14 -32.5 14t-32 -13.5t-13.5 -32t14 -32.5l256 -256l-256 -256q-14 -14 -14 -32.5t13.5 -32t32 -13.5t32.5 14l256 256l256 -257q14 -13 32.5 -13t32 13.5t13.5 32t-14 32.5z" />
    <glyph glyph-name="arrow-slim-up" unicode="&#xe60e;" 
d="M511 630q-21 1 -37 -14l-395 -395q-14 -14 -14 -34t14 -34t33.5 -14t33.5 14l365 365l365 -365q14 -14 34 -14t34 14t14 34t-14 34l-396 395q-15 15 -37 14v0v0zM511 630z" />
    <glyph glyph-name="rank" unicode="&#xe601;" 
d="M417 5h189v755h-189v-755zM133 5h189v378h-189v-378zM700 524v-519h189v519h-189zM700 524z" />
    <glyph glyph-name="arrow-slim-right" unicode="&#xe611;" 
d="M724 363l0.5 1t0.5 2q7 13 4.5 28t-13.5 26l-344 325q-14 13 -33 12.5t-32.5 -14.5t-13 -33.5t14.5 -32.5l309 -292l-308 -296q-14 -13 -14 -32.5t13 -33.5q14 -14 34 -14q19 0 32 13l341 328l0.5 1t1 1.5l1.5 1.5t6 9v0zM724 363z" />
    <glyph glyph-name="loading" unicode="&#xe61f;" 
d="M697 117q-85 -61 -189 -59q-13 0 -26 1q-2 0 -6 0.5t-5 1.5q-14 1 -20 3q-2 0 -13 3q-12 2 -19 5q-2 0 -5.5 1t-3.5 2q-14 4 -22 8q-1 0 -5 2q-14 6 -24 12h-0.5t-0.5 1q-41 22 -74 55q0 1 -1 1q-10 10 -19 22q-1 1 -2 2.5t-2 2.5q-71 89 -71 203h75q3 0 5 3t0 6
l-126 190q-2 3 -4.5 3t-4.5 -3l-126 -190q-2 -3 0 -6t5 -3h75q0 -133 75 -243q0 -1 0.5 -2l0.5 -1q3 -4 16 -21q5 -7 6 -7q9 -12 24 -27q0 -1 1 -2t2 -1q42 -43 95 -72q2 -1 3 -2q13 -7 31 -15q1 -1 3.5 -2t3.5 -2q11 -4 28 -10q10 -3 13 -4q8 -3 25 -7q14 -3 16 -3
q1 -1 3.5 -1.5t3.5 -0.5q4 -1 24 -3q1 0 4 -0.5t4 -0.5q24 -3 43 -3q133 0 242 78q18 12 21.5 33.5t-8.5 39t-33 21t-38 -8.5zM936 384q0 133 -74 243q-1 0 -1.5 1.5t-0.5 2.5q-6 8 -19 24l-1 1t-1 2q-65 79 -158 120q-1 1 -3 1.5t-2 1.5q-13 5 -30 11q-1 0 -5 1.5t-6 1.5
q-11 3 -27 7q-14 3 -15 3.5t-3.5 1t-3.5 0.5q-3 1 -6.5 1.5t-7.5 1t-6 0.5q-1 0 -6.5 0.5t-7.5 1.5q-15 1 -34 1q-1 0 -3 0.5t-3 0.5h-0.5h-0.5q-133 -1 -242 -78q-18 -12 -21.5 -33t8.5 -38.5t33 -21.5t38 9q84 59 187 58q15 0 29 -1q1 0 4.5 -0.5l3.5 -0.5q13 -2 23 -4
q1 0 10 -2q13 -3 22 -6q1 0 3.5 -1t3.5 -1q13 -4 24 -9l1 -0.5l1 -0.5q72 -31 122 -92v-0.5v-0.5q74 -90 74 -207h-75q-3 0 -5 -3t0 -5l126 -191q2 -3 4.5 -3t4.5 3l126 191q2 2 0 5t-5 3h-75z" />
    <glyph glyph-name="triangle-right" unicode="&#xe602;" 
d="M331 768v0q-11 9 -26 9q-17 0 -29 -12t-12 -29v0v-704q0 -17 12 -29t29 -12q16 0 28 11l412 350q16 13 16 33q0 19 -16 32v0l-414 350v1v0v0z" />
    <glyph glyph-name="eye" unicode="&#xe609;" 
d="M512 736q-151 0 -273 -88.5t-175 -231.5q53 -143 175 -231.5t273 -88.5t273 88.5t175 231.5q-53 143 -175 231.5t-273 88.5zM512 203q-86 0 -145 61.5t-59 151.5t59 151.5t145 61.5t145 -61.5t59 -151.5t-59 -151.5t-145 -61.5zM512 544q-52 0 -87 -37t-35 -91t35 -91
t87 -37t87 37t35 91t-35 91t-87 37z" />
    <glyph glyph-name="crown" unicode="&#xe606;" 
d="M873 578q-18 0 -30.5 -12.5t-12.5 -30.5q0 -22 18 -35l-160 -131l-167 296q16 3 26 15t10 28q0 17 -12.5 30t-30.5 13t-30.5 -13t-12.5 -30q0 -16 10 -28t25 -15l-166 -296l-160 131q18 13 18 35q0 18 -12.5 30.5t-30.5 12.5t-30.5 -12.5t-12.5 -30.5t12.5 -30.5
t30.5 -12.5l4 1l102 -476h506l102 476l4 -1q18 0 30.5 12.5t12.5 30.5t-12.5 30.5t-30.5 12.5z" />
    <glyph glyph-name="arrow-round-left" unicode="&#xe615;" 
d="M509 817q118 0 217.5 -58t157.5 -157.5t58 -217.5t-58 -217.5t-157.5 -157.5t-217.5 -58t-217.5 58t-157.5 157.5t-58 217.5t58 217.5t157.5 157.5t217.5 58v0zM303 365q1 -2 2 -3l1 -1q3 -5 5 -8h1v-1l2 -2l253 -244q14 -14 34 -14t35 15q13 14 13 34t-15 34l-218 210
l219 208q15 13 15.5 33t-13.5 35t-35 15q-19 0 -33 -13l-256 -242q-11 -11 -14 -26t4 -30v0z" />
    <glyph glyph-name="plus-circle" unicode="&#xe62f;" 
d="M512 896q-139 0 -257 -68.5t-186.5 -186.5t-68.5 -257t68.5 -257t186.5 -186.5t257 -68.5t257 68.5t186.5 186.5t68.5 257t-68.5 257t-186.5 186.5t-257 68.5zM793 328h-225v-225h-112v225h-225v112h225v225h112v-225h225v-112z" />
    <glyph glyph-name="history" unicode="&#xe608;" 
d="M497.5 334q-16.5 0 -28.5 12t-12 29v269q0 16 12 28t28.5 12t28.5 -12t12 -28v-269q0 -17 -12 -29t-28.5 -12zM660 321h-162q-16 0 -28 11.5t-12 28.5t12 29t28 12h162q17 0 28.5 -12t11.5 -29t-11.5 -28.5t-28.5 -11.5zM511 -62q-91 0 -173.5 35.5t-142.5 95.5
t-95.5 142.5t-35.5 173t35.5 173.5t95.5 143t142.5 95t173.5 35q80 0 155 -27.5t136 -79.5q13 -12 14.5 -29.5t-10 -31t-29.5 -15t-32 9.5q-101 87 -234 87q-98 0 -181 -48t-131.5 -131t-48.5 -181t48.5 -181t131.5 -131.5t181 -48.5t181 48.5t131 131.5t48 181
q0 62 -20 120q-6 16 1.5 32.5t24.5 22t33 -2t22 -24.5q25 -71 25 -148q0 -91 -35 -173.5t-95 -142.5t-143 -95.5t-173 -35.5v0z" />
    <glyph glyph-name="upload" unicode="&#xe617;" 
d="M914 233q-15 0 -27 -10t-15 -25h-4q-21 -64 -63.5 -100.5t-104.5 -36.5h-378q-62 0 -104.5 36.5t-64.5 100.5h-3q-3 15 -15 25t-28 10q-17 0 -29.5 -12.5t-12.5 -30.5q0 -19 14 -32q22 -77 74.5 -121.5t134.5 -44.5h446q81 0 134 44.5t74 121.5q15 13 15 32
q0 18 -12.5 30.5t-30.5 12.5zM380 566l102 103v-351q0 -14 10 -24t24 -10t24 10t10 24v345l97 -97q10 -10 24.5 -10t24.5 10t10 24t-10 24l-158 158q-10 10 -24.5 10t-24.5 -10v0l-2 -2l-155 -156q-10 -10 -10 -24t9.5 -24t24 -10t24.5 10zM914 233q-15 0 -27 -10t-15 -25
h-4q-21 -64 -63.5 -100.5t-104.5 -36.5h-378q-62 0 -104.5 36.5t-64.5 100.5h-3q-3 15 -15 25t-28 10q-17 0 -29.5 -12.5t-12.5 -30.5q0 -19 14 -32q22 -77 74.5 -121.5t134.5 -44.5h446q81 0 134 44.5t74 121.5q15 13 15 32q0 18 -12.5 30.5t-30.5 12.5zM380 566l102 103
v-351q0 -14 10 -24t24 -10t24 10t10 24v345l97 -97q10 -10 24.5 -10t24.5 10t10 24t-10 24l-158 158q-10 10 -24.5 10t-24.5 -10v0l-2 -2l-155 -156q-10 -10 -10 -24t9.5 -24t24 -10t24.5 10z" />
    <glyph glyph-name="collect" unicode="&#xe618;" 
d="M724 -62q-25 0 -47 12l-168 90l-169 -90q-23 -13 -51 -11.5t-51 17.5q-22 16 -33 41.5t-6 52.5l33 205l-143 148q-19 20 -25 46t2.5 52t29 43.5t47.5 21.5l194 30l84 181q12 25 36 40.5t52 15.5t51.5 -15.5t35.5 -40.5l14 -30q7 -14 1.5 -28.5t-19.5 -21t-28.5 -1
t-21.5 19.5l-13 29q-6 13 -20 13t-20 -13l-93 -198q-8 -18 -28 -21l-213 -33q-14 -2 -18 -15t5 -23l157 -161q13 -14 10 -32l-37 -224q-2 -13 10 -22q11 -7 23 -1l186 101q18 9 35 0l187 -101q12 -6 23 2t9 21l-36 224q-3 18 10 32l156 161q10 10 5.5 23t-17.5 15l-213 33
q-16 2 -25 14.5t-6.5 27.5t15 24.5t27.5 6.5l213 -33q27 -4 48 -21.5t29.5 -43t2.5 -52t-25 -46.5l-143 -148l33 -205q4 -27 -6.5 -52.5t-33.5 -41.5q-25 -18 -55 -18z" />
    <glyph glyph-name="calendar" unicode="&#xe60f;" 
d="M537 434q-14 0 -23.5 -8.5t-13.5 -20t-15.5 -22.5t-29.5 -15l-17 -5q-14 -3 -17.5 -4t-9 -4t-6 -7t-0.5 -13q0 -27 22 -27h66v-182q0 -23 7 -33.5t26 -10.5q33 0 33 44v275q0 19 -6 26t-16 7v0zM322 616h11q13 0 20.5 8t7.5 20v132q0 13 -7.5 20.5t-20.5 7.5h-11
q-12 0 -19.5 -7.5t-7.5 -20.5v-138q0 -8 7.5 -15t19.5 -7v0zM681 616h11q12 0 19.5 8t7.5 20v132q0 13 -7.5 20.5t-19.5 7.5h-11q-13 0 -20.5 -7.5t-7.5 -20.5v-138q0 -8 9.5 -15t18.5 -7v0zM835 738h-72v-50h72q25 0 43 -18t18 -43v-55h-778v55q0 25 18 43t43 18h72v50h-67
q-48 0 -81.5 -35t-33.5 -81v-535q0 -46 33.5 -80.5t81.5 -34.5h657q46 0 80.5 33.5t34.5 81.5v535q-4 47 -38.5 81.5t-82.5 34.5v0zM835 27h-651q-24 0 -42 17.5t-18 42.5v430h777v-424q0 -29 -18.5 -47.5t-47.5 -18.5v0v0zM399 738h221v-50h-221v50zM399 738z" />
    <glyph glyph-name="danmu" unicode="&#xe60a;" 
d="M141 167h741q32 0 54.5 -17.5t22.5 -41.5v0q0 -25 -22.5 -42t-54.5 -17h-741q-33 0 -55.5 17t-22.5 42v0q0 24 22.5 41.5t55.5 17.5zM453 442h429q32 0 54.5 -17t22.5 -42v0q0 -24 -22.5 -41.5t-54.5 -17.5h-429q-33 0 -55.5 17.5t-22.5 41.5v0q0 25 22.5 42t55.5 17z
M453 718h429q32 0 54.5 -17.5t22.5 -41.5v0q0 -25 -22.5 -42t-54.5 -17h-429q-33 0 -55.5 17t-22.5 42v0q0 24 22.5 41.5t55.5 17.5zM141 442h39q32 0 55 -17t23 -42v0q0 -24 -23 -41.5t-55 -17.5h-39q-33 0 -55.5 17.5t-22.5 41.5v0q0 25 22.5 42t55.5 17zM141 718h39
q32 0 55 -17.5t23 -41.5v0q0 -25 -23 -42t-55 -17h-39q-33 0 -55.5 17t-22.5 42v0q0 24 22.5 41.5t55.5 17.5z" />
    <glyph glyph-name="view-player" unicode="&#xe610;" 
d="M259 -60q-41 0 -76 20q-80 47 -80 166v505q0 119 80 165.5t184 -11.5l233 -129q16 -10 21 -28t-4 -34.5t-27 -21.5t-35 4l-232 129q-59 33 -94 13q-34 -21 -34 -87v-505q0 -67 34.5 -87.5t93.5 12.5l462 258q58 32 58 69t-58 70l-32 18q-17 9 -22 27t4 34.5t27 22
t35 -4.5l32 -17q51 -29 78 -67.5t27 -82.5t-27 -82.5t-78 -66.5l-462 -258q-56 -31 -108 -31z" />
    <glyph glyph-name="arrow-round-up" unicode="&#xe61d;" 
d="M63 384q0 -91 35.5 -174t95.5 -143.5t143 -96t174 -35.5t174 35.5t143 96t95.5 143.5t35.5 174t-35.5 174t-95.5 143t-143 95.5t-174 35.5t-174 -35.5t-143 -95.5t-95.5 -143t-35.5 -174zM531 596q1 0 3 -1q0 -1 1 -1q6 -3 9 -6v0v-1q2 -1 3 -2l252 -262q14 -14 14 -34
q0 -22 -15 -36q-15 -15 -35.5 -14.5t-35.5 15.5l-217 226l-215 -227q-14 -15 -34.5 -15.5t-35.5 13.5q-16 15 -16 36q0 20 14 35l250 264q11 12 27 15t31 -5z" />
    <glyph glyph-name="arrow-round-down" unicode="&#xe61e;" 
d="M961 384q0 91 -35.5 174t-95.5 143.5t-143 96t-174 35.5t-174 -35.5t-143 -96t-95.5 -143.5t-35.5 -174t35.5 -174t95.5 -143t143 -95.5t174 -35.5t174 35.5t143 95.5t95.5 143t35.5 174zM493 172q-1 0 -3 1q0 1 -1 1q-6 3 -9 6v0v1q-2 1 -3 2l-252 262q-14 14 -14 34
q0 22 15 36q15 15 35.5 14.5t35.5 -15.5l217 -226l215 227q14 15 34.5 15.5t35.5 -13.5q16 -15 16 -36q0 -20 -14 -35l-250 -264q-11 -12 -27 -15t-31 5z" />
    <glyph glyph-name="triangle-slim-right" unicode="&#xe605;" 
d="M127 -61v895l763 -442zM171 758v-741l632 374z" />
    <glyph glyph-name="chevron-left" unicode="&#xe620;" 
d="M300 405l-0.5 -1t-0.5 -2q-7 -13 -4.5 -28t13.5 -26l344 -325q14 -13 33 -12.5t32.5 14.5t13 33.5t-14.5 32.5l-309 292l308 296q14 13 14 32.5t-13 33.5q-14 14 -34 14q-19 0 -32 -13l-341 -328l-0.5 -1t-1 -1.5l-1.5 -1.5t-6 -9v0zM300 405z" />
    <glyph glyph-name="th-list2" unicode="&#xe621;" 
d="M316 791q0 15 -10 25t-24 10h-185q-14 0 -24 -10t-10 -25v-184q0 -15 10 -25t24 -10h185q14 0 24 10t10 25v184v0zM635 791q0 15 -10 25t-24 10h-185q-14 0 -24 -10t-10 -25v-184q0 -15 10 -25t24 -10h185q14 0 24 10t10 25v184zM961 791q0 15 -10 25t-24 10h-185
q-14 0 -24 -10t-10 -25v-184q0 -15 10 -25t24 -10h185q14 0 24 10t10 25v184zM316 480q0 14 -10 24t-24 10h-185q-14 0 -24 -10t-10 -24v-185q0 -14 10 -24t24 -10h185q14 0 24 10t10 24v185v0zM635 480q0 14 -10 24t-24 10h-185q-14 0 -24 -10t-10 -24v-185q0 -14 10 -24
t24 -10h185q14 0 24 10t10 24v185zM961 480q0 14 -10 24t-24 10h-185q-14 0 -24 -10t-10 -24v-185q0 -14 10 -24t24 -10h185q14 0 24 10t10 24v185zM316 161q0 15 -10 25t-24 10h-185q-14 0 -24 -10t-10 -25v-185q0 -14 10 -24t24 -10h185q14 0 24 10t10 24v185v0zM635 161
q0 15 -10 25t-24 10h-185q-14 0 -24 -10t-10 -25v-185q0 -14 10 -24t24 -10h185q14 0 24 10t10 24v185zM961 161q0 15 -10 25t-24 10h-185q-14 0 -24 -10t-10 -25v-185q0 -14 10 -24t24 -10h185q14 0 24 10t10 24v185z" />
    <glyph glyph-name="circle-triangle-w" unicode="&#xe625;" 
d="M300 405l-0.5 -1t-0.5 -2q-7 -13 -4.5 -28t13.5 -26l344 -325q14 -13 33 -12.5t32.5 14.5t13 33.5t-14.5 32.5l-309 292l308 296q14 13 14 32.5t-13 33.5q-14 14 -34 14q-19 0 -32 -13l-341 -328l-0.5 -1t-1 -1.5l-1.5 -1.5t-6 -9v0zM300 405z" />
    <glyph glyph-name="circle-triangle-e" unicode="&#xe626;" 
d="M724 363l0.5 1t0.5 2q7 13 4.5 28t-13.5 26l-344 325q-14 13 -33 12.5t-32.5 -14.5t-13 -33.5t14.5 -32.5l309 -292l-308 -296q-14 -13 -14 -32.5t13 -33.5q14 -14 34 -14q19 0 32 13l341 328l0.5 1t1 1.5l1.5 1.5t6 9v0zM724 363z" />
    <glyph glyph-name="label" unicode="&#xe607;" 
d="M242 832h539q20 0 31.5 -13.5t11.5 -36.5v-793q0 -23 -13.5 -36.5t-34.5 -13.5l-263 212l-261 -212q-21 0 -37 14t-16 36v793q0 23 11.5 36.5t31.5 13.5v0zM242 832z" />
    <glyph glyph-name="th-large1" unicode="&#xe628;" 
d="M475 482q0 -30 -22 -52t-52 -22h-265q-31 0 -52.5 22t-21.5 52v276q0 31 21.5 52.5t52.5 21.5h265q30 0 52 -21.5t22 -52.5v-276zM475 10q0 -31 -22 -52.5t-52 -21.5h-265q-31 0 -52.5 21.5t-21.5 52.5v276q0 30 21.5 52t52.5 22h265q30 0 52 -22t22 -52v-276zM959 482
q0 -30 -22 -52t-53 -22h-264q-31 0 -53 22t-22 52v276q0 31 22 52.5t53 21.5h264q31 0 53 -21.5t22 -52.5v-276zM959 10q0 -31 -22 -52.5t-53 -21.5h-264q-31 0 -53 21.5t-22 52.5v276q0 30 22 52t53 22h264q31 0 53 -22t22 -52v-276z" />
    <glyph glyph-name="th3" unicode="&#xe612;" 
d="M957 666q0 -24 -17 -41t-41 -17h-779q-24 0 -41 17t-17 41v76q0 24 17 41t41 17h779q24 0 41 -17t17 -41v-76zM960 347q0 -24 -17 -41t-41 -17h-780q-24 0 -41 17t-17 41v76q0 24 17 41t41 17h780q24 0 41 -17t17 -41v-76zM960 26q0 -24 -17 -41t-41 -17h-780
q-24 0 -41 17t-17 41v76q0 24 17 41t41 17h780q24 0 41 -17t17 -41v-76z" />
    <glyph glyph-name="th-large" unicode="&#xe60b;" 
d="M751 420h-135q-29 0 -50 20q-19 19 -20 44q-1 9 -1 14v196q0 16 6 27q19 39 59 42h12h265q26 1 45 -15.5t24 -38.5q1 -7 1 -16v-203q0 -23 -12 -40q-22 -30 -57 -30h-137zM270 420h-135q-30 0 -50 20t-21 45v12v92v103q0 26 14 44q21 25 51 27h13h264q26 1 45 -15.5
t23 -38.5q2 -7 2 -16v-100v-102q0 -30 -20 -50q-21 -21 -49 -21h-137zM751 7h-136q-23 0 -41.5 14t-25.5 36q-3 9 -3 20v204q0 25 15 43.5t39 24.5q7 2 16 2h272q23 0 41 -13t26 -34q3 -11 3 -23v-204q0 -29 -20 -49q-21 -21 -49 -21h-137zM270 7h-135q-30 0 -51 21
q-19 19 -20 44v15v96.5v97.5q0 24 14 42t33 24q11 4 23 4h272q25 0 44 -15t24 -39q2 -7 2 -16v-203q0 -34 -27 -56q-18 -15 -43 -15h-136v0z" />
    <glyph glyph-name="th-list" unicode="&#xe624;" 
d="M511 558h-84q-18 0 -31 12q-12 12 -13 28v8v122q0 10 4 17q12 24 36 26h8h164q16 0 28 -10t15 -24q1 -4 1 -9v-126q0 -15 -8 -25q-14 -19 -35 -19h-85zM190 558h-84q-18 0 -31 13q-12 12 -12 27v8v57v64q0 16 8 27q13 16 32 17h8h164q16 0 27.5 -10t14.5 -24q1 -4 1 -10
v-61.5v-63.5q0 -19 -12.5 -31.5t-30.5 -12.5h-85zM511 279h-84q-15 0 -26.5 8.5t-15.5 22.5q-2 5 -2 12v127q0 15 9.5 26.5t24.5 15.5q4 1 10 1h168q14 0 25.5 -8t15.5 -21q3 -7 3 -14v-127q0 -18 -13 -30q-13 -13 -31 -13h-84zM190 279h-83q-19 0 -32 13q-11 12 -12 27v9
v38.5v44.5v38q0 15 8.5 26t20.5 15q7 2 14 2h169q15 0 27 -9.5t15 -24.5q1 -4 1 -9v-126q0 -21 -17 -35q-11 -9 -26 -9h-85zM831 558h-84q-18 0 -31 12q-12 12 -13 28v8v122q0 10 4 17q12 24 36 26h8h164q16 0 28 -10t15 -24q1 -4 1 -9v-126q0 -15 -8 -25q-14 -19 -35 -19
h-85zM831 279h-84q-15 0 -26.5 8.5t-15.5 22.5q-2 5 -2 12v127q0 15 9.5 26.5t24.5 15.5q4 1 10 1h168q14 0 25.5 -8t15.5 -21q3 -7 3 -14v-127q0 -18 -13 -30q-13 -13 -30 -13h-85zM511 2h-84q-15 0 -26.5 9t-15.5 22q-2 6 -2 13v126q0 15 9.5 26.5t24.5 15.5q4 1 10 1h168
q14 0 25.5 -8t15.5 -21q3 -7 3 -14v-127q0 -18 -13 -30q-13 -13 -30 -13h-85zM190 2h-83q-19 0 -32 13q-11 12 -12 27v9v38.5v44.5v38q0 15 8.5 26t20.5 15q7 2 14 2h169q15 0 27 -9t15 -24q1 -5 1 -10v-126q0 -21 -17 -35q-11 -9 -26 -9h-85v0zM831 2h-84q-15 0 -26.5 9
t-15.5 22q-2 6 -2 13v126q0 15 9.5 26.5t24.5 15.5q4 1 10 1h168q14 0 25.5 -8t15.5 -21q3 -7 3 -14v-127q0 -18 -13 -30q-13 -13 -30 -13h-85z" />
    <glyph glyph-name="th" unicode="&#xe627;" 
d="M672 577h-234q-53 0 -53 53v87q0 24 14 38t38 14h169h301t51 -37q1 -5 1 -14v-90t-13.5 -37t-36.5 -14h-237zM672 4h-234q-53 0 -53 53v87q0 24 13.5 37.5t37.5 13.5h149h322q42 0 51 -36q1 -5 1 -13v-91q0 -24 -13.5 -37.5t-36.5 -13.5h-237v0zM672 289h-234
q-53 0 -53 52v88q0 24 14 37.5t38 13.5h178h292q42 0 51 -36q1 -5 1 -15v-89q0 -24 -13.5 -37.5t-37.5 -13.5h-236zM192 577h-75q-25 0 -38.5 13.5t-13.5 37.5v90q0 23 13.5 36.5t36.5 14.5h156q22 -1 35.5 -14.5t13.5 -36.5v-91q-1 -22 -14.5 -35.5t-35.5 -14.5h-78zM192 4
h-76q-24 0 -37.5 14t-13.5 38v88q0 24 13.5 37.5t36.5 13.5q76 1 155 0q23 0 36.5 -13.5t13.5 -36.5v-89q0 -24 -14 -38t-38 -14h-76zM192 289h-75q-25 0 -38.5 13.5t-13.5 37.5v89q0 23 13.5 37t36.5 14q82 1 156 0q22 0 35.5 -14t13.5 -37v-90q-1 -23 -14.5 -36.5
t-36.5 -13.5h-77z" />
    <glyph glyph-name="step-forward" unicode="&#xe629;" 
d="M253 673v0h1l289 -289l-290 -289q-8 -8 -8 -20t8.5 -20t19.5 -8q13 0 21 9l308 308q9 8 9 20t-8 20v0l-309 309h-1v0v0q-8 8 -20 8q-11 0 -19.5 -8t-8.5 -20q0 -11 8 -20v0zM751.5 46q11.5 0 20 8.5t8.5 20.5v619q-1 12 -9 20t-19.5 8t-19.5 -8t-9 -20v0v-619
q0 -12 8.5 -20.5t20 -8.5z" />
    <glyph glyph-name="step-backward" unicode="&#xe62a;" 
d="M771 95v0h-1l-289 289l290 289q8 8 8 20t-8.5 20t-19.5 8q-13 0 -21 -9l-308 -308q-9 -8 -9 -20t8 -20v0l309 -309h1v0v0q8 -8 20 -8q11 0 19.5 8t8.5 20q0 11 -8 20v0v0zM272.5 722q-11.5 0 -20 -8.5t-8.5 -20.5v-619q1 -12 9 -20t19.5 -8t19.5 8t9 20v0v619
q0 12 -8.5 20.5t-20 8.5z" />
    <glyph glyph-name="prompt" unicode="&#xe614;" 
d="M512 742q-97 0 -179.5 -48t-130.5 -131t-48 -180t48 -180t130.5 -131t180 -48t180 48t130.5 131t48 180t-48 180t-130.5 131t-180.5 48v0zM512 163q-21 0 -35.5 14.5t-14.5 35.5t14.5 36t35.5 15t36 -15t15 -36t-15 -35.5t-36 -14.5v0zM540 326q-7 -22 -28 -22
q-9 0 -16.5 6.5t-10.5 15.5q-7 20 -19.5 92.5t-12.5 123.5q0 18 16 39.5t42.5 21.5t43.5 -21.5t17 -39.5q0 -51 -12.5 -123t-19.5 -93v0zM540 326z" />
    <glyph glyph-name="helps" unicode="&#xe623;" 
d="M947 383q0 -89 -34.5 -169.5t-92.5 -138.5t-138.5 -92.5t-169.5 -34.5t-169.5 34.5t-138.5 92.5t-92.5 138.5t-34.5 169t34.5 169.5t92.5 139t138.5 92.5t169.5 34.5t169.5 -34.5t138.5 -92.5t92.5 -139t34.5 -169v0v0zM512 739q-97 0 -179 -47.5t-129.5 -129.5
t-47.5 -179t47.5 -179t129.5 -129.5t179 -47.5t179 47.5t129.5 129.5t47.5 179t-47.5 179t-129.5 129.5t-179 47.5v0v0zM551 274h-79v21q0 38 12.5 63t50.5 56t45 40q12 15 12 34q0 25 -20.5 43t-54.5 18q-33 0 -55 -19t-31 -57l-80 10q4 55 47.5 93.5t114.5 38.5
q75 0 119.5 -39t44.5 -91q0 -29 -16.5 -54.5t-69.5 -69.5q-28 -23 -34.5 -37t-5.5 -50v0v0zM472 157v87h87v-87h-87zM472 157z" />
    <glyph glyph-name="delete" unicode="&#xe62b;" 
d="M512 880q-101 0 -193 -39t-158.5 -106t-106 -159t-39.5 -193t39.5 -193t106 -158.5t158.5 -106t193 -39.5t193 39.5t158.5 106t106 158.5t39.5 193t-39.5 193t-106 159t-158.5 106t-193 39v0zM725 234q14 -13 14 -32t-13.5 -32t-32.5 -13t-32 13l-149 149l-149 -149
q-13 -13 -32 -13t-32.5 13t-13.5 32t14 32l149 149l-149 149q-14 13 -14 32t13.5 32.5t32.5 13.5t32 -14l149 -148l149 148q13 14 32 14t32.5 -13.5t13.5 -32.5t-14 -32l-149 -149zM725 234z" />
    <glyph glyph-name="to-comm" unicode="&#xe62c;" 
d="M322 -8q-6 0 -11 2q-15 7 -15 24v111q0 11 -7.5 18t-17.5 7h-128q-32 0 -55 23t-23 55v467q0 32 23 54.5t55 22.5h738q32 0 55 -22.5t23 -54.5v-467q0 -32 -23 -55t-55 -23h-350q-9 0 -16 -6l-176 -150q-7 -6 -17 -6zM143 724q-11 0 -18 -7.5t-7 -17.5v-467q0 -11 7 -18
t18 -7h128q32 0 54.5 -23t22.5 -55v-54l133 113q21 19 50 19h350q11 0 18 7t7 18v467q0 10 -7 17.5t-18 7.5h-738z" />
    <glyph glyph-name="youxi" unicode="&#xe646;" horiz-adv-x="1025" 
d="M352 384h-31v32q0 14 -9.5 23t-23 9t-23 -9t-9.5 -23v-32h-31q-13 0 -22.5 -9.5t-9.5 -22.5t9.5 -22.5t22.5 -9.5h31v-32q0 -13 9.5 -22.5t23 -9.5t23 9.5t9.5 22.5v32h31q14 0 23.5 9.5t9.5 22.5t-9.5 22.5t-23.5 9.5zM705 416q0 -13 9.5 -22.5t22.5 -9.5t22.5 9.5
t9.5 22.5t-9.5 22.5t-22.5 9.5t-22.5 -9.5t-9.5 -22.5zM769 289q0 -13 9.5 -22.5t22.5 -9.5t22.5 9.5t9.5 22.5t-9.5 22.5t-22.5 9.5t-22.5 -9.5t-9.5 -22.5zM931 580q-47 60 -105.5 93.5t-118.5 33.5q-42 0 -74 -21q-26 -17 -41 -46h-15v130q0 26 -19 44t-45.5 18t-45 -18
t-18.5 -44v-130h-17q-6 12 -15 22q-33 40 -92 41h-6q-33 0 -66 -10q-31 -10 -61 -28q-55 -33 -99 -89q-43 -55 -67 -120q-26 -69 -26 -136q0 -172 27 -252q20 -60 59 -93q45 -38 109 -38q106 0 189 82q20 20 38 45h201q4 -4 11 -14q37 -48 68 -71q58 -42 133 -42
q65 0 109 39q38 33 57 94q23 75 23 250q0 67 -24.5 135.5t-68.5 124.5zM835 0v0q-31 0 -56.5 9.5t-42.5 23.5t-31.5 30.5t-24.5 31t-20.5 23.5t-20.5 9h-252q-3 -5 -8 -13.5t-23 -30.5t-38.5 -38.5t-53.5 -30.5t-69 -14q-33 0 -56.5 15.5t-38 41.5t-23 68t-11.5 87t-3 108
q0 74 37 149t97 123t122 48h4q28 -1 41.5 -14t17 -30.5t5.5 -19.5h252q0 3 0.5 7.5t4 16t10 20.5t20.5 16t33 7q61 0 120.5 -47t96 -122.5t36.5 -153.5q0 -54 -1.5 -91t-5.5 -76.5t-12.5 -64.5t-22.5 -46.5t-34.5 -31.5t-48.5 -10v0z" />
    <glyph glyph-name="delete1" unicode="&#xe62d;" 
d="M461 102v377q0 18 -13 31t-31 13t-31 -13t-13 -31v-377q0 -19 13 -31.5t31 -12.5t31 12.5t13 31.5zM886 617q-18 0 -31 -14t-13 -33v-541q0 -26 -18 -45l-2 -2q-17 -17 -41 -17h-540q-25 0 -42.5 19t-17.5 45v541q0 19 -13 33t-31 14t-30.5 -14t-12.5 -33v-541
q0 -65 43 -111t104 -46h540q59 0 103 43q0 1 1 2l1 1q44 46 44 111v541q0 19 -13 33t-31 14zM651 102v377q0 18 -13 31t-31 13t-31 -13t-13 -31v-377q0 -19 13 -31.5t31 -12.5t31 12.5t13 31.5zM979 799h-261l-97 81q-14 16 -34 16h-150q-18 0 -31 -14l-99 -83h-262
q-19 0 -32 -13t-13 -31t13 -31t32 -13h281q20 0 34 16l96 79h113l99 -82q13 -13 32 -13v0h279q19 0 32 13t13 31t-13 31t-32 13z" />
    <glyph glyph-name="chevron-right" unicode="&#xe630;" 
d="M724 363l0.5 1t0.5 2q7 13 4.5 28t-13.5 26l-344 325q-14 13 -33 12.5t-32.5 -14.5t-13 -33.5t14.5 -32.5l309 -292l-308 -296q-14 -13 -14 -32.5t13 -33.5q14 -14 34 -14q19 0 32 13l341 328l0.5 1t1 1.5l1.5 1.5t6 9v0zM724 363z" />
    <glyph glyph-name="icon-dao-hang-_-chuang-zuo-zhong-xin" unicode="&#xe2ea;" horiz-adv-x="1024" d="M665.6 64C686.808 64 704 46.80799999999999 704 25.599999999999994 704 6.159999999999997 689.554-9.906999999999996 670.811-12.448999999999998L665.6-12.799999999999997 358.4-12.799999999999997C337.192-12.799999999999997 320 4.391999999999996 320 25.599999999999994 320 45.03999999999999 334.446 61.107 353.189 63.649L358.4 64 665.6 64zM512 819.2C709.939 819.2 870.4 670.2 870.4 486.4 870.4 372.641 808.932 272.214 715.156 212.19299999999998 706.586 164.31599999999997 664.734 128 614.4 128L409.6 128C359.266 128 317.414 164.31599999999997 308.817 212.176 215.068 272.214 153.6 372.641 153.6 486.4 153.6 670.2 314.061 819.2 512 819.2zM512 742.4C355.257 742.4 230.4 626.461 230.4 486.4 230.4 406.46000000000004 271.118 332.251 339.735 283.905L350.235 276.85 378.478 258.763 384.407 225.75400000000002C386.292 215.26299999999998 394.652 207.08800000000002 405.038 205.209L409.6 204.8 614.4 204.8C625.269 204.8 634.737 211.65300000000002 638.37 221.387L639.557 225.724 645.473 258.777 673.754 276.878C748.706 324.85 793.6 402.46000000000004 793.6 486.4 793.6 626.461 668.743 742.4 512 742.4zM512 627.2C531.44 627.2 547.507 612.754 550.049 594.011L550.4 588.8 550.4 455.424 606.432 556.249C616.732 574.788 640.11 581.467 658.649 571.168 675.643 561.727 682.671 541.296 675.792 523.676L673.568 518.951 545.568 288.551C531.912 263.972 498.01 262.333 481.655 283.635L478.432 288.551 350.432 518.951C340.133 537.49 346.812 560.868 365.351 571.168 382.345 580.609 403.406 575.783 414.731 560.633L417.568 556.249 473.6 455.424 473.6 588.8C473.6 610.008 490.792 627.2 512 627.2z"/>
    <glyph glyph-name="icon-dao-hang-_-chuang-zuo-zhong-xin-18" unicode="&#xe337;" horiz-adv-x="1024" d="M682.667 12.908999999999992C706.231 12.908999999999992 725.333-5.899000000000001 725.333-29.101 725.333-50.369 709.282-67.946 688.456-70.72800000000001L682.667-71.11099999999999 341.333-71.11099999999999C317.769-71.11099999999999 298.667-52.30200000000001 298.667-29.101 298.667-7.832999999999998 314.718 9.744 335.544 12.52600000000001L341.333 12.908999999999992 682.667 12.908999999999992zM512 839.111C731.932 839.111 910.222 676.103 910.222 475.02200000000005 910.222 350.568 841.925 240.699 737.728 175.03500000000003 728.207 122.65700000000001 681.705 82.92599999999999 625.778 82.92599999999999L398.222 82.92599999999999C342.295 82.92599999999999 295.793 122.65700000000001 286.241 175.01600000000002 182.075 240.699 113.778 350.568 113.778 475.02200000000005 113.778 676.103 292.068 839.111 512 839.111zM512 755.091C337.841 755.091 199.111 628.251 199.111 475.02200000000005 199.111 387.567 244.354 306.381 320.594 253.49L332.261 245.77100000000002 363.642 225.98399999999998 370.23 189.87099999999998C372.324 178.394 381.613 169.45100000000002 393.153 167.394L398.222 166.947 625.778 166.947C637.854 166.947 648.375 174.445 652.411 185.094L653.73 189.83800000000002 660.303 225.99900000000002 691.727 245.80200000000002C775.006 298.284 824.889 383.19 824.889 475.02200000000005 824.889 628.251 686.159 755.091 512 755.091zM512 629.06C533.6 629.06 551.452 613.255 554.277 592.75L554.667 587.05 554.667 441.134 616.925 551.438C628.369 571.72 654.344 579.027 674.943 567.759 693.825 557.431 701.635 535.079 693.991 515.803L691.52 510.634 549.297 258.572C534.125 231.68200000000002 496.455 229.889 478.283 253.19400000000002L474.703 258.572 332.48 510.634C321.037 530.916 328.458 556.492 349.057 567.759 367.939 578.088 391.339 572.809 403.923 556.235L407.075 551.438 469.333 441.134 469.333 587.05C469.333 610.251 488.436 629.06 512 629.06z"/>
  </font>
</defs>
</svg>
